<svg xmlns="http://www.w3.org/2000/svg" width="300" height="30" viewBox="0 0 79.37 7.94"><g fill="none" stroke="#000" stroke-width=".26"><path d="M44.08.9v1.18c0 .59-.01.77.05 1.37.06.55.11.7.19 1.23l.1.85c0 .1.03.22.04.33v.28c0 .11.04.22.05.33V7M44.08.9l.52.14h3.54"/><path d="M44.27 3.5h1.04c.1 0 .19.03.28.04h2.37m3.21-2.41h2.7c.19-.08.05.08.09.1.02.01.06-.02.09 0s.02.07.05.1c.02.02.06.02.1.04l.04.05.1.04c0 .02-.02.04 0 .05.02.02.07-.02.09 0 .02.02-.01.07 0 .1s.22.2.23.23c.03.07-.02.17 0 .24l.05.05v.09c.05.17.05.31.05.47v.05c0 .02.04.03.05.05v.04c0 .02.03.03.04.05.03.05-.02.05 0 .1l.05.04c.02.05-.01.1 0 .15l.05.09c.01.04-.01.1 0 .14-.03.09.07.09.1.14 0 .22-.03 0 .04.15v.23l.05.1c.01.04-.02.2 0 .23 0 .02.03.03.04.05v1.56c0 .05.01.1 0 .14 0 .05-.03.1-.04.14v.1c-.02.04-.08.05-.1.1-.02.03.03.1 0 .13-.03.04-.1.02-.14.05l-.1.14c-.07.09-.15.16-.23.24l-.1.1c-.03.02-.05.07-.09.09-.03.01-.07-.02-.1 0-.02.02-.01.07-.04.1-.03 0-.07-.02-.1 0-.03 0-.06.03-.09.04H54l-.1.05-.09.04-.04.05h-.52c-.04 0-.06.04-.1.05-.04 0-.1-.01-.14 0-.02 0-.03.04-.05.04h-1.04c-.04 0-.1.02-.14 0-.15-.04.02-.03-.05-.09-.1-.1 0 .15-.09-.05v-.04c-.13-.27.02.07-.05-.2.03-.08-.07-.08-.1-.13-.02-.05.02-.1 0-.15.1-.2-.07-.05-.09-.1v-.09c0-.02-.04-.02-.04-.04v-.29c0-.25 0 .11-.05-.23-.02-.1.02-.2 0-.29 0-.03-.04-.06-.05-.09v-.1c0-.03-.04-.05-.04-.09-.01-.05 0-.1 0-.14V2.36h-.05v-.14h-.05c-.02-.03.01-.18 0-.24l-.05-.14c-.01 0-.04.02-.04 0v-.66m6.37 5.67c.04-.16.08-.31.1-.47V5.2c0-.88-.02.12.05-.76 0-.1-.01-.19 0-.28 0-.1.04-.19.04-.29 0-.78-.02.06.05-.56v-.2c.02-.14.08-.29.14-.42l.05-.1a.2.2 0 0 0 .05-.09v-.09c0-.03.03-.06.04-.1l.05-.14c.1-.3 0 .05.05-.37 0-.07.04-.13.05-.2.08-.64-.09.2.04-.32.01-.05-.02-.1 0-.15h.05V1.1h.14c.05.07.07.15.1.23l.19.48c.07.16.16.3.23.47.42 1.14-.05-.09.43.99.16.36.1.35.28.66l.14.19.14.19.1.05.1.1c.1.06-.01-.11.09.04l.04.1.05.04c.02.04.02.1.05.14.02.04.07.06.1.1l.04.14.14.28.1.1v.04a.4.4 0 0 0 .04.1c.03.04.08.05.1.1 0 .02-.02.06 0 .09h.05c.02.02.02.06.04.1.1.13.01-.08.1.13.02.05.02.1.05.15.02.02.06.02.09.04.05.05.04.14.1.2h.28c.03-.07.03-.13.04-.2.1-.24.02-.5.05-.75.02-.1.08-.19.1-.29.01-.09-.02-.19 0-.28.01-.08.06-.16.1-.24.03-.09.05-.19.09-.28.02-.07.06-.12.09-.19l.05-.14c.01-.05.04-.1.04-.14v-.2c.02-.06.07-.12.1-.18.05-.11.06-.21.1-.33 0-.05.03-.1.04-.14l.05-.24c.04-.16.07-.15.1-.33 0-.06-.02-.13 0-.19 0-.04.12-.39.13-.42l.05-.05V1.7c.11-.22-.02.2.1-.14V1.5c0-.03.03-.06.04-.1v-.09l.05-.04a.4.4 0 0 0 .05-.1c.02-.06-.04-.05.05-.05m3.01.68c.2.94.02-.03.15 1.03.06.52.1.61.19 1.1.06.32.1.58.19.89.02.08.06.16.1.24l.04.14a.1.1 0 0 0 .05.04h.04c.04.13.04.26.05.38l.05.38v.33c0 .08.07.55.1.66 0 .04.03.06.04.1.03.15-.06.14.05.14m-2.36-5.15h3.73m2.93-.19v5.34c0 .01.04-.02.04 0h-.04 2.97c.1 0 .2.03.29 0 .43-.15.14-.16.42-.33.1-.07.24-.07.33-.14.14-.1.04-.1.15-.1"/><path d="M71.2 5c.27-.01.54.03.8 0 .23 0 .44-.07.67-.09h.23c.08 0 .16-.03.24-.04h.38c.25-.07.1-.11.33-.15.44-.06-.08.1.37-.09l.29-.1c.03 0 .06-.03.1-.04.05-.02.04.04.09-.05V4.3m-3.45-2.41c.14.13.25.3.42.38.12.05.25 0 .38 0h3.65a.4.4 0 0 0 .1-.05l.04-.05h.1c.03 0 .06-.03.09-.04h.1m-59.97.75v.85c0 .94.01-.28-.05.66V7c0 .02.02.05 0 .05V7m.14-5.72h.38c.02 0 .04-.02.05 0v.04c0 .02.04.03.05.05v.52c-.01.02-.13-.02-.15 0v.05c0 .05 0 .1-.04.14-.04.03-.1.03-.15.05l-.14.04-.1.05h-.51c-.02 0-.03-.03-.05-.05-.03-.03-.07-.05-.1-.1 0-.02.02-.06 0-.09 0-.02-.03-.02-.04-.04V1.7c0-.1-.02-.04.14-.1.05 0 .1-.03.14-.04h.81c.03 0 .1-.03.1 0s-.07 0-.1 0c-.09 0-.1.04-.1-.05m5.2 1.56v4.35M21.21 1l.2-.06h.75v.2c0 .13.03.3-.05.42-.1.18-.07.02-.23.14-.03.02-.03.07-.05.1a.13.13 0 0 1-.05.04h-.43c-.01 0-.04.02-.04 0 0-.01.05.02.05 0s-.04-.02-.05-.04c-.02-.05 0-.1 0-.15v-.47c-.03-.06-.1-.12-.1-.19 0-.1.07-.19.1-.28m10.49.71l.19-.05c.05-.01.05.03.09-.05v-.04c.01-.02.03 0 .05 0h.9s.13-.01.14 0v1.04c0 .05.02.1-.05.14h-1.13V1.41h-.2zm.7 1.84v2.65c.05.31.02.03.1.18v.29l.05.05v.09c0 .03.03.06.04.1v.61M26.36 1h.57c.02 0 .04-.02.05 0 .05.05.04.08.04.13v.05c.12.34 0-.07.1.14 0 .02-.01.13 0 .14.01.02.04 0 .05 0v.05c0 .02.03.03.04.05v.33c0 .02.02.04 0 .05h-.04c-.02 0-.03.03-.05.04-.02.1-.1.03-.14.05l-.05.05c-.03 0-.07-.02-.1 0 0 0 .02.03 0 .05-.02.02-.06.02-.09.04l-.05.05h-.33v-.05c.02 0 0 .07 0 .05V1.18c.02 0 .02.05 0 .05v-.05c.01-.01.05.02.05 0 0-.06-.03-.12-.05-.19zm.52 2.17v.52c0 .04.04.09.05.14v.37c.02.07.08.13.1.2v.99c0 .05.03.09.04.14v.1l.05.13v.15l.05.09v1.04c0 .02.03.03.04.05M11.15 1.18c.28.13.32.14.52.14h.05v.58h-.05v.05c-.02.02-.07-.02-.1 0l-.09.1c-.01 0-.03-.02-.05 0-.02 0-.02.03-.04.04H11v-.66h.23c.02-.01.01-.04 0-.05-.02-.07-.06-.13-.09-.19zm.24 1.65v4.35M7.46 2.74v3.22L7.42 6v.05h-.05v.33c-.01 0-.04-.02-.05 0v.61M6.7.9h.48c.08 0 .17-.01.24.04.04.04.05.1.1.15.02.02.06.02.09.04l.1.1.09.05.04.04c.03.02.08-.02.1 0v.38c-.05.1-.11.01-.2.1-.12.12.06.07-.13.14h-.76c-.08-.04-.05-.12-.05-.2v-.66c-.02-.06-.06-.12-.1-.18zm-4.15.28h.8c.23.06 0 .02.15.1.02.01.06-.02.1 0 .06.03.04.08.04.14v.23a.1.1 0 0 1-.05.05c-.03.02-.15-.01-.19 0-.07.02-.12.08-.19.1h-.1c-.09-.02-.15.07-.23.09h-.56c-.02 0-.05.02-.05 0v-.61c0-.02-.02-.05 0-.05.01 0-.02.05 0 .05s.03-.04.05-.05h.04l.2-.05zm.38 1.7v3.88"/></g></svg>