<?xml version="1.0" encoding="UTF-8" standalone="no"?>
<!-- Created with Inkscape (http://www.inkscape.org/) -->

<svg
   xmlns:dc="http://purl.org/dc/elements/1.1/"
   xmlns:cc="http://creativecommons.org/ns#"
   xmlns:rdf="http://www.w3.org/1999/02/22-rdf-syntax-ns#"
   xmlns:svg="http://www.w3.org/2000/svg"
   xmlns="http://www.w3.org/2000/svg"
   xmlns:sodipodi="http://sodipodi.sourceforge.net/DTD/sodipodi-0.dtd"
   xmlns:inkscape="http://www.inkscape.org/namespaces/inkscape"
   width="300"
   height="30"
   viewBox="0 0 79.374 7.9374"
   version="1.1"
   id="svg8"
   inkscape:version="0.92.2 5c3e80d, 2017-08-06"
   sodipodi:docname="iiiiiiifonte.svg">
  <defs
     id="defs2" />
  <sodipodi:namedview
     id="base"
     pagecolor="#ffffff"
     bordercolor="#666666"
     borderopacity="1.0"
     inkscape:pageopacity="0.0"
     inkscape:pageshadow="2"
     inkscape:zoom="5.6"
     inkscape:cx="148.06622"
     inkscape:cy="1.0419566"
     inkscape:document-units="px"
     inkscape:current-layer="layer1"
     showgrid="false"
     units="px"
     inkscape:window-width="1920"
     inkscape:window-height="1016"
     inkscape:window-x="0"
     inkscape:window-y="27"
     inkscape:window-maximized="1" />
  <metadata
     id="metadata5">
    <rdf:RDF>
      <cc:Work
         rdf:about="">
        <dc:format>image/svg+xml</dc:format>
        <dc:type
           rdf:resource="http://purl.org/dc/dcmitype/StillImage" />
        <dc:title />
      </cc:Work>
    </rdf:RDF>
  </metadata>
  <g
     inkscape:label="Layer 1"
     inkscape:groupmode="layer"
     id="layer1"
     transform="translate(0,-289.05996)">
    <path
       style="fill:none;stroke:#000000;stroke-width:0.26458001px;stroke-linecap:butt;stroke-linejoin:miter;stroke-opacity:1"
       d="m 44.080918,289.95764 c 0,0.39372 0,0.78744 0,1.18116 0,0.5907 -0.01467,0.77166 0.04725,1.37015 0.05715,0.55248 0.113306,0.69865 0.188986,1.2284 0.04034,0.28236 0.05911,0.56742 0.09449,0.85044 0.01381,0.1105 0.03871,0.21969 0.04725,0.33072 0.0072,0.0942 -0.0072,0.18927 0,0.28348 0.0085,0.11104 0.03716,0.21982 0.04725,0.33073 0.0057,0.0627 0,0.12599 0,0.18898 0,0.11025 0,0.22049 0,0.33073"
       id="path3705"
       inkscape:connector-curvature="0" />
    <path
       style="fill:none;stroke:#000000;stroke-width:0.26458001px;stroke-linecap:butt;stroke-linejoin:miter;stroke-opacity:1"
       d="m 44.080918,289.95764 c 0.173237,0.0473 0.344133,0.10412 0.519711,0.14174 0.0462,0.01 0.09449,0 0.141739,0 0.063,0 0.125991,0 0.188986,0 0.251981,0 0.503962,0 0.755943,0 0.818938,0 1.637876,0 2.456814,0"
       id="path3707"
       inkscape:connector-curvature="0" />
    <path
       style="fill:none;stroke:#000000;stroke-width:0.26458001px;stroke-linecap:butt;stroke-linejoin:miter;stroke-opacity:1"
       d="m 44.269904,292.55619 c 0.26773,0 0.53546,0 0.803189,0 0.07874,0 0.157812,-0.007 0.236233,0 0.0954,0.009 0.188075,0.0386 0.283478,0.0473 0.07842,0.007 0.157488,0 0.236232,0 0.188986,0 0.377972,0 0.566957,0 0.519711,0 1.039422,0 1.559133,0"
       id="path3709"
       inkscape:connector-curvature="0" />
    <path
       style="fill:none;stroke:#000000;stroke-width:0.26458001px;stroke-linecap:butt;stroke-linejoin:miter;stroke-opacity:1"
       d="m 51.167883,290.19387 c 0.692947,0 1.385895,0 2.078843,0 0.141739,0 0.283478,0 0.425217,0 0.01609,0 0.163416,-0.009 0.188986,0 0.197668,-0.0856 0.05465,0.0746 0.09449,0.0945 0.02817,0.0141 0.06828,-0.0175 0.09449,0 0.0293,0.0195 0.02235,0.0696 0.04725,0.0945 0.0249,0.0249 0.06519,0.0277 0.09449,0.0472 0.01853,0.0124 0.02871,0.0349 0.04725,0.0473 0.0293,0.0195 0.06959,0.0223 0.09449,0.0472 0.01114,0.0111 -0.01409,0.0402 0,0.0472 0.02817,0.0141 0.07222,-0.0223 0.09449,0 0.02227,0.0223 -0.01,0.0646 0,0.0945 0.01167,0.035 0.224566,0.20123 0.236231,0.23623 0.02363,0.0709 -0.02363,0.16536 0,0.23623 0.007,0.0211 0.03729,0.0273 0.04725,0.0472 0.007,0.0141 0,0.0315 0,0.0472 0,0.0158 0,0.0315 0,0.0473 0.04856,0.16603 0.04725,0.31044 0.04725,0.47257 0,0.0157 -0.007,0.0332 0,0.0473 0.01,0.0199 0.03729,0.0273 0.04725,0.0472 0.007,0.0141 -0.007,0.0332 0,0.0472 0.01,0.0199 0.03729,0.0273 0.04725,0.0473 0.0249,0.0498 -0.0249,0.0447 0,0.0945 0.01,0.0199 0.0402,0.0261 0.04725,0.0473 0.01494,0.0448 -0.01494,0.0969 0,0.14174 0.01114,0.0334 0.03611,0.0611 0.04725,0.0945 0.01494,0.0448 -0.01146,0.0959 0,0.14174 -0.02848,0.0855 0.07654,0.0879 0.09449,0.14174 0,0.21508 -0.02227,0.003 0.04725,0.14174 0.01547,0.0309 -0.01398,0.1943 0,0.23623 0.01114,0.0334 0.03611,0.0611 0.04725,0.0945 0.01398,0.0419 -0.01547,0.2053 0,0.23624 0.01,0.0199 0.03729,0.0273 0.04725,0.0472 0.007,0.0141 0,0.0315 0,0.0473 0,0.0157 0,0.0315 0,0.0472 0,0.0945 0,0.18898 0,0.28347 0,0.20474 0,0.40947 0,0.61421 0,0.18898 0,0.37797 0,0.56695 0,0.0473 0.0078,0.0951 0,0.14174 -0.0082,0.0491 -0.03748,0.0929 -0.04725,0.14174 -0.0062,0.0309 0.01409,0.0663 0,0.0945 -0.01992,0.0398 -0.07795,0.0531 -0.09449,0.0945 -0.01755,0.0439 0.02835,0.10394 0,0.14174 -0.02988,0.0398 -0.102851,0.0161 -0.14174,0.0472 -0.04434,0.0355 -0.05814,0.0981 -0.09449,0.14174 -0.07129,0.0855 -0.157488,0.15749 -0.236233,0.23624 -0.0315,0.0315 -0.063,0.063 -0.09449,0.0945 -0.0315,0.0315 -0.05465,0.0746 -0.09449,0.0945 -0.02817,0.0141 -0.06828,-0.0175 -0.09449,0 -0.0293,0.0195 -0.01795,0.075 -0.04725,0.0945 -0.02621,0.0175 -0.06393,-0.008 -0.09449,0 -0.03416,0.009 -0.06108,0.0361 -0.09449,0.0473 -0.01494,0.005 -0.03231,-0.005 -0.04725,0 -0.03341,0.0111 -0.063,0.0315 -0.09449,0.0472 -0.0315,0.0158 -0.06519,0.0277 -0.09449,0.0472 -0.01853,0.0124 -0.02733,0.0373 -0.04725,0.0472 -0.02018,0.0101 -0.217555,0 -0.236232,0 -0.04725,0 -0.09449,0 -0.141739,0 -0.04725,0 -0.09541,-0.009 -0.14174,0 -0.03453,0.007 -0.05996,0.0403 -0.09449,0.0473 -0.04633,0.009 -0.0959,-0.0115 -0.14174,0 -0.02161,0.005 -0.02612,0.0402 -0.04725,0.0472 -0.02707,0.009 -0.191876,0 -0.236232,0 -0.173237,0 -0.346474,0 -0.519711,0 -0.09449,0 -0.188986,0 -0.283479,0 -0.04725,0 -0.09692,0.0149 -0.141739,0 -0.147471,-0.0491 0.01575,-0.0315 -0.04725,-0.0945 -0.09775,-0.0977 0.0038,0.14938 -0.09449,-0.0472 -0.007,-0.0141 0.005,-0.0323 0,-0.0472 -0.133842,-0.26769 0.01761,0.0704 -0.04725,-0.18899 0.02848,-0.0855 -0.07654,-0.0879 -0.09449,-0.14174 -0.02988,-0.0424 0.01494,-0.0969 0,-0.14174 0.08556,-0.19766 -0.07457,-0.0546 -0.09449,-0.0945 -0.01409,-0.0282 0.01,-0.0646 0,-0.0945 -0.007,-0.0211 -0.0402,-0.0261 -0.04725,-0.0472 -0.0087,-0.026 0,-0.24338 0,-0.28348 0,-0.25283 0.01,0.10701 -0.04725,-0.23623 -0.01553,-0.0932 0.01853,-0.19082 0,-0.28348 -0.0069,-0.0345 -0.03871,-0.0603 -0.04725,-0.0945 -0.0076,-0.0306 0.0076,-0.0639 0,-0.0945 -0.0085,-0.0342 -0.04034,-0.06 -0.04725,-0.0945 -0.0093,-0.0463 0,-0.0945 0,-0.14174 0,-0.0472 0,-0.0945 0,-0.14174 0,-0.17323 0,-0.34647 0,-0.51971 0,-0.53546 0,-1.07091 0,-1.60637 0,-0.18899 0,-0.37798 0,-0.56696 0,-0.0315 0,-0.063 0,-0.0945 0,-0.0157 0.01114,-0.0361 0,-0.0472 -0.01114,-0.0111 -0.03611,0.0111 -0.04725,0 -0.01114,-0.0111 0,-0.0315 0,-0.0473 0,-0.0315 0.01409,-0.0663 0,-0.0945 -0.007,-0.0141 -0.0402,0.0141 -0.04725,0 -0.01781,-0.0356 0.01286,-0.1848 0,-0.23623 -0.01575,-0.0473 -0.0315,-0.0945 -0.04725,-0.14174 -0.01575,0 -0.0402,0.0141 -0.04725,0 -0.0056,-0.0111 0,-0.15795 0,-0.18899 0,-0.15749 0,-0.31497 0,-0.47246"
       id="path3711"
       inkscape:connector-curvature="0" />
    <path
       style="fill:none;stroke:#000000;stroke-width:0.26458001px;stroke-linecap:butt;stroke-linejoin:miter;stroke-opacity:1"
       d="m 57.404412,295.91069 c 0.0315,-0.15749 0.07573,-0.31296 0.09449,-0.47246 0.01289,-0.10949 0,-0.22049 0,-0.33073 0,-0.28348 0,-0.56696 0,-0.85044 0,-0.87927 -0.01564,0.12429 0.04725,-0.75594 0.0067,-0.0942 -0.0079,-0.18931 0,-0.28348 0.008,-0.0955 0.0399,-0.18796 0.04725,-0.28348 0,-0.78919 -0.02162,0.0529 0.04725,-0.56695 0.007,-0.0626 -0.0078,-0.12648 0,-0.18899 0.01826,-0.14608 0.07635,-0.29443 0.141741,-0.42522 0.01574,-0.0315 0.0315,-0.063 0.04725,-0.0945 0.01574,-0.0315 0.0387,-0.0603 0.04725,-0.0945 0.0076,-0.0306 -0.0076,-0.0639 0,-0.0945 0.0085,-0.0342 0.03417,-0.0618 0.04725,-0.0945 0.01849,-0.0462 0.0315,-0.0945 0.04725,-0.14174 0.1023,-0.30689 -5.29e-4,0.0511 0.04725,-0.37797 0.0072,-0.0645 0.03919,-0.12455 0.04725,-0.18898 0.08094,-0.6475 -0.08391,0.19389 0.04725,-0.33073 0.0118,-0.0473 -0.02363,-0.0945 0,-0.14174 0.007,-0.0141 0.03611,0.0111 0.04725,0 0.01114,-0.0111 -0.01114,-0.0361 0,-0.0472 0.0042,-0.004 0.139833,-0.003 0.141738,0 0.04364,0.0727 0.063,0.15748 0.0945,0.23623 0.06299,0.15749 0.119378,0.31778 0.188984,0.47246 0.07226,0.16057 0.166873,0.31063 0.236233,0.47247 0.415967,1.1439 -0.05279,-0.0833 0.425217,0.99217 0.159619,0.35914 0.09665,0.35007 0.283479,0.66145 0.04051,0.0675 0.09449,0.12599 0.141741,0.18899 0.04725,0.063 0.08606,0.1333 0.141738,0.18898 0.0249,0.0249 0.06632,0.0261 0.09449,0.0473 0.03564,0.0267 0.05743,0.0698 0.09449,0.0945 0.100363,0.0669 -0.0075,-0.10576 0.09449,0.0473 0.01953,0.0293 0.02771,0.0652 0.04725,0.0945 0.01236,0.0185 0.03729,0.0273 0.04725,0.0473 0.02228,0.0445 0.02162,0.099 0.04725,0.14174 0.02291,0.0382 0.07158,0.0563 0.0945,0.0945 0.02561,0.0427 0.02875,0.0955 0.04725,0.14174 0.01775,0.0444 0.116185,0.24941 0.141738,0.28348 0.02673,0.0356 0.06979,0.0574 0.09449,0.0945 0.0087,0.0131 -0.005,0.0323 0,0.0473 0.01114,0.0334 0.02772,0.0652 0.04725,0.0945 0.02471,0.0371 0.08041,0.0522 0.09449,0.0945 0.0099,0.0299 -0.01408,0.0663 0,0.0945 0.007,0.0141 0.03611,-0.0111 0.04725,0 0.0249,0.0249 0.02771,0.0652 0.04725,0.0945 0.09013,0.13519 0.0089,-0.0724 0.09449,0.14174 0.01849,0.0462 0.01736,0.1019 0.04725,0.14174 0.02114,0.0282 0.06959,0.0223 0.09449,0.0472 0.0498,0.0498 0.04469,0.13919 0.09449,0.18899 0.0021,0.002 0.213955,0 0.236233,0 0.01574,0 0.0402,0.0141 0.04725,0 0.02904,-0.0581 0.03657,-0.12494 0.04725,-0.18899 0.09886,-0.24599 0.01154,-0.506 0.04725,-0.75594 0.01408,-0.0986 0.07812,-0.18523 0.0945,-0.28348 0.01553,-0.0932 -0.01691,-0.19051 0,-0.28348 0.01516,-0.0834 0.06471,-0.15682 0.09449,-0.23623 0.03497,-0.0933 0.0575,-0.191 0.09449,-0.28348 0.02617,-0.0654 0.06834,-0.12359 0.09449,-0.18898 0.01849,-0.0462 0.0315,-0.0945 0.04725,-0.14174 0.01574,-0.0473 0.0402,-0.0924 0.04725,-0.14174 0.0089,-0.0624 -0.01529,-0.12787 0,-0.18899 0.01709,-0.0683 0.06675,-0.12425 0.09449,-0.18898 0.04855,-0.11328 0.06024,-0.21085 0.09449,-0.33073 0.01368,-0.0479 0.03517,-0.0934 0.04725,-0.14174 0.01947,-0.0779 0.02777,-0.15832 0.04725,-0.23623 0.03922,-0.1569 0.0724,-0.15397 0.09449,-0.33072 0.0078,-0.0625 -0.0089,-0.12663 0,-0.18899 0.0054,-0.038 0.123178,-0.3881 0.141738,-0.42522 0.01,-0.0199 0.03729,-0.0273 0.04725,-0.0472 0.007,-0.0141 -0.007,-0.0332 0,-0.0472 0.108115,-0.21623 -0.01958,0.20049 0.0945,-0.14174 0.005,-0.0149 -0.005,-0.0323 0,-0.0473 0.01114,-0.0334 0.03871,-0.0603 0.04725,-0.0945 0.0076,-0.0306 -0.0099,-0.0646 0,-0.0945 0.007,-0.0211 0.03489,-0.0287 0.04725,-0.0473 0.01953,-0.0293 0.03611,-0.0611 0.04725,-0.0945 0.02101,-0.063 -0.03675,-0.0472 0.04725,-0.0472"
       id="path3713"
       inkscape:connector-curvature="0" />
    <path
       style="fill:none;stroke:#000000;stroke-width:0.26458001px;stroke-linecap:butt;stroke-linejoin:miter;stroke-opacity:1"
       d="m 65.908767,290.85532 c 0.188124,0.94062 0.01453,-0.0208 0.141741,1.03942 0.06234,0.51949 0.09773,0.6076 0.188984,1.08667 0.06268,0.32909 0.09238,0.58373 0.188987,0.89768 0.02495,0.0811 0.06471,0.15683 0.09449,0.23624 0.01749,0.0466 0.02498,0.0972 0.04725,0.14173 0.01,0.0199 0.02733,0.0373 0.04725,0.0473 0.01408,0.007 0.04342,-0.0153 0.04725,0 0.03079,0.12318 0.0315,0.25198 0.04725,0.37797 0.01574,0.12599 0.0388,0.25128 0.04725,0.37797 0.0073,0.11 -0.0073,0.22073 0,0.33073 0.0051,0.0763 0.06715,0.55206 0.09449,0.66145 0.0085,0.0342 0.04034,0.06 0.04725,0.0945 0.0315,0.15749 -0.05774,0.14174 0.04725,0.14174"
       id="path3715"
       inkscape:connector-curvature="0" />
    <path
       style="fill:none;stroke:#000000;stroke-width:0.26458001px;stroke-linecap:butt;stroke-linejoin:miter;stroke-opacity:1"
       d="m 64.585867,291.1388 c 1.244158,0 2.488314,0 3.73247,0"
       id="path3717"
       inkscape:connector-curvature="0" />
    <path
       style="fill:none;stroke:#000000;stroke-width:0.26458001px;stroke-linecap:butt;stroke-linejoin:miter;stroke-opacity:1"
       d="m 71.247616,290.94981 c 0,1.49614 0,2.99228 0,4.48842 0,0.20473 0,0.40946 0,0.6142 0,0.0473 0,0.0945 0,0.14174 0,0.0157 0,0.0315 0,0.0472 0,0.0158 -0.01114,0.0361 0,0.0473 0.01114,0.0111 0.04725,-0.0158 0.04725,0 0,0.0157 -0.063,0 -0.04725,0 0.724444,0 1.44889,0 2.173334,0 0.267731,0 0.53546,0 0.803191,0 0.09449,0 0.193834,0.0299 0.283476,0 0.43679,-0.1456 0.145686,-0.15601 0.42522,-0.33072 0.101707,-0.0636 0.234772,-0.0698 0.330725,-0.14174 0.140838,-0.10563 0.0375,-0.0945 0.141738,-0.0945"
       id="path3719"
       inkscape:connector-curvature="0" />
    <path
       style="fill:none;stroke:#000000;stroke-width:0.26458001px;stroke-linecap:butt;stroke-linejoin:miter;stroke-opacity:1"
       d="m 71.200367,294.06808 c 0.267065,-0.02 0.536055,0.0178 0.803191,0 0.222229,-0.0148 0.439496,-0.076 0.66145,-0.0945 0.07847,-0.007 0.157877,0.008 0.236233,0 0.0799,-0.008 0.15642,-0.0384 0.23623,-0.0473 0.01175,-0.001 0.372666,10e-4 0.377971,0 0.254092,-0.0635 0.107631,-0.10987 0.330725,-0.14174 0.443984,-0.0634 -0.07371,0.0991 0.377974,-0.0945 0.09155,-0.0392 0.190998,-0.0575 0.283476,-0.0945 0.0327,-0.0131 0.06109,-0.0361 0.0945,-0.0472 0.05865,-0.0195 0.05148,0.0388 0.09449,-0.0473 0.0072,-0.0144 0,-0.12046 0,-0.14174"
       id="path3721"
       inkscape:connector-curvature="0" />
    <path
       style="fill:none;stroke:#000000;stroke-width:0.26458001px;stroke-linecap:butt;stroke-linejoin:miter;stroke-opacity:1"
       d="m 71.247616,290.94981 c 0.141738,0.12599 0.253626,0.29723 0.425217,0.37798 0.113997,0.0536 0.251981,0 0.377971,0 0.204735,0 0.409469,0 0.614204,0 0.708696,0 1.417392,0 2.126088,0 0.220485,0 0.440968,0 0.66145,0 0.0264,0 0.208352,0.009 0.236233,0 0.03341,-0.0111 0.06519,-0.0277 0.09449,-0.0473 0.01852,-0.0123 0.02611,-0.0402 0.04725,-0.0473 0.02988,-0.01 0.06394,0.008 0.0945,0 0.03416,-0.009 0.06108,-0.0361 0.09449,-0.0472 0.02988,-0.01 0.063,0 0.09449,0"
       id="path3723"
       inkscape:connector-curvature="0" />
    <path
       style="fill:none;stroke:#000000;stroke-width:0.26458001px;stroke-linecap:butt;stroke-linejoin:miter;stroke-opacity:1"
       d="m 16.158279,291.942 c 0,0.28348 0,0.56696 0,0.85043 0,0.93973 0.01559,-0.2811 -0.04725,0.66145 -0.01362,0.20429 0,0.40947 0,0.61421 0,0.33072 0,0.66145 0,0.99217 0,0.25198 0,0.50397 0,0.75595 0,0.063 0,0.12599 0,0.18898 0,0.0158 0,0.0315 0,0.0473 0,0.0157 0.01575,0.0472 0,0.0472 -0.01575,0 0,-0.0315 0,-0.0472"
       id="path3733"
       inkscape:connector-curvature="0" />
    <path
       style="fill:none;stroke:#000000;stroke-width:0.26458001px;stroke-linecap:butt;stroke-linejoin:miter;stroke-opacity:1"
       d="m 16.252772,290.33562 c 0.12599,0 0.251981,0 0.377971,0 0.01575,0 0.03611,-0.0111 0.04725,0 0.01114,0.0111 -0.007,0.0332 0,0.0472 0.01,0.0199 0.03729,0.0273 0.04725,0.0472 0.007,0.0141 0,0.0315 0,0.0473 0,0.0158 0,0.0315 0,0.0473 0,0.0787 0,0.15748 0,0.23623 0,0.031 0.0056,0.17787 0,0.18898 -0.0098,0.0196 -0.125248,-0.0165 -0.141739,0 -0.01114,0.0111 0.0038,0.032 0,0.0473 -0.01208,0.0483 -0.01203,0.10652 -0.04725,0.14174 -0.03522,0.0352 -0.09449,0.0315 -0.141739,0.0473 -0.04725,0.0157 -0.0955,0.0288 -0.141739,0.0472 -0.0327,0.0131 -0.05996,0.0403 -0.09449,0.0473 -0.04633,0.009 -0.09449,0 -0.14174,0 -0.04725,0 -0.09449,0 -0.141739,0 -0.02637,0 -0.214604,0.007 -0.236232,0 -0.02113,-0.007 -0.0315,-0.0315 -0.04725,-0.0473 -0.0315,-0.0315 -0.07457,-0.0546 -0.09449,-0.0945 -0.01409,-0.0282 0.01,-0.0646 0,-0.0945 -0.007,-0.0211 -0.03729,-0.0273 -0.04725,-0.0472 -0.0086,-0.0172 0,-0.20901 0,-0.23623 0,-0.097 -0.01494,-0.0423 0.141739,-0.0945 0.04725,-0.0157 0.0929,-0.0375 0.141739,-0.0472 0.03089,-0.006 0.063,0 0.09449,0 0.125991,0 0.251981,0 0.377972,0 0.110242,0 0.220483,0 0.330725,0 0.0315,0 0.09449,-0.0315 0.09449,0 0,0.0315 -0.063,0 -0.09449,0 -0.08316,0 -0.09449,0.0391 -0.09449,-0.0473"
       id="path3735"
       inkscape:connector-curvature="0" />
    <path
       style="fill:none;stroke:#000000;stroke-width:0.26458001px;stroke-linecap:butt;stroke-linejoin:miter;stroke-opacity:1"
       d="m 21.638865,292.13098 c 0,1.44889 0,2.89778 0,4.34667"
       id="path3737"
       inkscape:connector-curvature="0" />
    <path
       style="fill:none;stroke:#000000;stroke-width:0.26458001px;stroke-linecap:butt;stroke-linejoin:miter;stroke-opacity:1"
       d="m 21.213646,290.05214 c 0.063,-0.0157 0.124936,-0.0366 0.188986,-0.0472 0.06214,-0.0104 0.125991,0 0.188986,0 0.125991,0 0.251981,0 0.377972,0 0.06148,0 0.188722,-10e-4 0.188985,0 0.01528,0.0611 0,0.12599 0,0.18899 0,0.13827 0.02831,0.29929 -0.04725,0.42522 -0.11018,0.18363 -0.07407,0.0201 -0.236232,0.14173 -0.02817,0.0211 -0.02771,0.0652 -0.04725,0.0945 -0.01235,0.0185 -0.02733,0.0373 -0.04725,0.0472 -0.01329,0.007 -0.294608,0 -0.330725,0 -0.0315,0 -0.063,0 -0.09449,0 -0.01575,0 -0.04725,0.0157 -0.04725,0 0,-0.0157 0.04725,0.0157 0.04725,0 0,-0.0223 -0.0402,-0.0261 -0.04725,-0.0472 -0.01494,-0.0448 0,-0.0945 0,-0.14174 0,-0.12599 0,-0.25198 0,-0.37797 0,-0.0315 0.0117,-0.0652 0,-0.0945 -0.02616,-0.0654 -0.09449,-0.11855 -0.09449,-0.18898 0,-0.0996 0.063,-0.18899 0.09449,-0.28348"
       id="path3741"
       inkscape:connector-curvature="0" />
    <path
       style="fill:none;stroke:#000000;stroke-width:0.26458001px;stroke-linecap:butt;stroke-linejoin:miter;stroke-opacity:1"
       d="m 31.796846,290.47735 c 0.063,-0.0158 0.125313,-0.0345 0.188986,-0.0473 0.05431,-0.0109 0.05762,0.0265 0.09449,-0.0472 0.007,-0.0141 -0.01114,-0.0361 0,-0.0473 0.01114,-0.0111 0.0315,0 0.04725,0 0.04725,0 0.09449,0 0.14174,0 0.25198,0 0.503961,0 0.755942,0 0.01257,0 0.137838,-0.008 0.14174,0 0.0024,0.005 0,0.27883 0,0.28348 0,0.25198 0,0.50396 0,0.75594 0,0.0577 0.01833,0.10895 -0.04725,0.14174 -0.01436,0.007 -0.156361,0 -0.188985,0 -0.173237,0 -0.346474,0 -0.519711,0 -0.125991,0 -0.251981,0 -0.377972,0 -0.01575,0 -0.03611,0.0111 -0.04725,0 -0.0019,-0.002 0,-0.17163 0,-0.18898 0,-0.22049 0,-0.44097 0,-0.66145 0,-0.0615 0.0011,-0.18873 0,-0.18899 -0.06111,-0.0153 -0.125991,0 -0.188986,0 z"
       id="path3749"
       inkscape:connector-curvature="0" />
    <path
       style="fill:none;stroke:#000000;stroke-width:0.26458001px;stroke-linecap:butt;stroke-linejoin:miter;stroke-opacity:1"
       d="m 32.505543,292.31996 c 0,0.7087 0,1.41739 0,2.12609 0,0.0945 0,0.18899 0,0.28348 0,0.0787 -0.0098,0.1581 0,0.23623 0.03978,0.31824 0.01852,0.037 0.09449,0.18899 0.01434,0.0287 -0.01435,0.25479 0,0.28348 0.01,0.0199 0.03729,0.0273 0.04725,0.0472 0.01409,0.0282 -0.01,0.0646 0,0.0945 0.01114,0.0334 0.03611,0.0611 0.04725,0.0945 0.0099,0.0297 0,0.15095 0,0.18898 0,0.14174 0,0.28348 0,0.42522"
       id="path3753"
       inkscape:connector-curvature="0" />
    <path
       style="fill:none;stroke:#000000;stroke-width:0.26458001px;stroke-linecap:butt;stroke-linejoin:miter;stroke-opacity:1"
       d="m 26.363507,290.05214 c 0.188986,0 0.377971,0 0.566957,0 0.01575,0 0.03611,-0.0111 0.04725,0 0.05429,0.0543 0.04725,0.0836 0.04725,0.14174 0,0.0157 -0.005,0.0323 0,0.0472 0.114075,0.34223 -0.01362,-0.0745 0.09449,0.14174 0.0094,0.0187 -0.0097,0.13208 0,0.14174 0.01114,0.0111 0.03611,-0.0111 0.04725,0 0.01114,0.0111 -0.007,0.0332 0,0.0472 0.01,0.0199 0.03729,0.0273 0.04725,0.0472 0.007,0.0141 0,0.0315 0,0.0473 0,0.0945 0,0.18899 0,0.28348 0,0.0158 0.01114,0.0361 0,0.0472 -0.01114,0.0111 -0.03316,-0.007 -0.04725,0 -0.01992,0.01 -0.02872,0.0349 -0.04725,0.0473 -0.02379,0.10409 -0.09719,0.025 -0.141739,0.0473 -0.01992,0.01 -0.02612,0.0402 -0.04725,0.0472 -0.02988,0.01 -0.06632,-0.0141 -0.09449,0 -0.01409,0.007 0.01114,0.0361 0,0.0473 -0.0249,0.0249 -0.06519,0.0277 -0.09449,0.0472 -0.01853,0.0124 -0.02733,0.0373 -0.04725,0.0472 -0.01409,0.007 -0.0315,0 -0.04725,0 -0.07874,0 -0.157488,0 -0.236232,0 -0.01575,0 -0.03611,0.0111 -0.04725,0 -0.01114,-0.0111 -0.01575,-0.0472 0,-0.0472 0.01575,0 0,0.063 0,0.0472 0,-0.26773 0,-0.53546 0,-0.80319 0,-0.063 0,-0.12599 0,-0.18898 0,-0.0157 -0.01575,-0.0472 0,-0.0472 0.01575,0 0.01575,0.0472 0,0.0472 -0.01575,0 -0.01114,-0.0361 0,-0.0472 0.01114,-0.0111 0.04725,0.0157 0.04725,0 0,-0.0649 -0.0315,-0.12599 -0.04725,-0.18898 z"
       id="path3755"
       inkscape:connector-curvature="0" />
    <path
       style="fill:none;stroke:#000000;stroke-width:0.26458001px;stroke-linecap:butt;stroke-linejoin:miter;stroke-opacity:1"
       d="m 26.883218,292.22547 c 0,0.17324 -0.01234,0.34692 0,0.51971 0.0035,0.0497 0.03748,0.0929 0.04725,0.14174 0.0062,0.0309 0,0.063 0,0.0945 0,0.0788 0,0.15749 0,0.23624 0,0.0157 -0.005,0.0323 0,0.0472 0.02227,0.0668 0.07741,0.12066 0.09449,0.18899 0.0076,0.0306 0,0.063 0,0.0945 0,0.0315 0,0.063 0,0.0945 0,0.17324 0,0.34648 0,0.51972 0,0.0472 0,0.0945 0,0.14173 0,0.0473 -0.0078,0.0951 0,0.14174 0.0082,0.0491 0.03748,0.0929 0.04725,0.14174 0.0062,0.0309 0,0.063 0,0.0945 0.01575,0.0472 0.03517,0.0934 0.04725,0.14174 0.01088,0.0435 -0.01415,0.0993 0,0.14173 0.01114,0.0334 0.04034,0.06 0.04725,0.0945 0.0093,0.0463 0,0.0945 0,0.14174 0,0.0472 0,0.0945 0,0.14174 0,0.15748 0,0.31497 0,0.47246 0,0.0335 -0.0061,0.27126 0,0.28348 0.01,0.0199 0.0315,0.0315 0.04725,0.0473"
       id="path3757"
       inkscape:connector-curvature="0" />
    <path
       style="fill:none;stroke:#000000;stroke-width:0.26458001px;stroke-linecap:butt;stroke-linejoin:miter;stroke-opacity:1"
       d="m 11.150157,290.24112 c 0.278134,0.1317 0.316966,0.14174 0.519711,0.14174 0.01575,0 0.03611,-0.0111 0.04725,0 0.01114,0.0111 0,0.0315 0,0.0472 0,0.0157 0,0.0315 0,0.0472 0,0.0945 0,0.18899 0,0.28348 0,0.0173 0.0019,0.18709 0,0.18899 -0.01114,0.0111 -0.03611,-0.0111 -0.04725,0 -0.01114,0.0111 0.01114,0.0361 0,0.0472 -0.02227,0.0223 -0.06632,-0.0141 -0.09449,0 -0.03984,0.0199 -0.05465,0.0746 -0.09449,0.0945 -0.01409,0.007 -0.03316,-0.007 -0.04725,0 -0.01992,0.01 -0.02733,0.0373 -0.04725,0.0472 -0.01242,0.006 -0.16428,0 -0.188986,0 -0.01735,0 -0.187085,0.002 -0.188986,0 -0.01114,-0.0111 0,-0.0315 0,-0.0472 0,-0.0157 0,-0.0315 0,-0.0472 0,-0.14174 0,-0.28348 0,-0.42522 0,-0.0126 -0.0078,-0.13784 0,-0.14174 0.01725,-0.009 0.227036,0.009 0.236232,0 0.01114,-0.0111 0.0059,-0.0326 0,-0.0472 -0.02616,-0.0654 -0.063,-0.12599 -0.09449,-0.18899 z"
       id="path3765"
       inkscape:connector-curvature="0" />
    <path
       style="fill:none;stroke:#000000;stroke-width:0.26458001px;stroke-linecap:butt;stroke-linejoin:miter;stroke-opacity:1"
       d="m 11.386389,291.89474 c 0,1.4489 0,2.89779 0,4.34668"
       id="path3767"
       inkscape:connector-curvature="0" />
    <path
       style="fill:none;stroke:#000000;stroke-width:0.26458001px;stroke-linecap:butt;stroke-linejoin:miter;stroke-opacity:1"
       d="m 7.4649358,291.80026 c 0,0.85043 0,1.70087 0,2.5513 0,0.15749 0,0.31498 0,0.47247 0,0.0247 0.00621,0.17656 0,0.18898 -0.00996,0.0199 -0.037286,0.0273 -0.047247,0.0472 -0.00704,0.0141 0.011136,0.0361 0,0.0473 -0.011136,0.0111 -0.03611,-0.0111 -0.047246,0 -0.011136,0.0111 0,0.0315 0,0.0472 0,0.0788 0,0.15749 0,0.23623 0,0.0157 0.011136,0.0361 0,0.0472 -0.011136,0.0111 -0.040204,-0.0141 -0.047246,0 -0.00556,0.0111 0,0.15795 0,0.18899 0,0.14174 0,0.28347 0,0.42521"
       id="path3773"
       inkscape:connector-curvature="0" />
    <path
       style="fill:none;stroke:#000000;stroke-width:0.26458001px;stroke-linecap:butt;stroke-linejoin:miter;stroke-opacity:1"
       d="m 6.7089929,289.95764 c 0.1574881,0 0.3149761,0 0.4724642,0 0.080667,0 0.1653559,-0.009 0.2362321,0.0473 0.04434,0.0355 0.054341,0.10159 0.094493,0.14174 0.024902,0.0249 0.066321,0.0261 0.094493,0.0472 0.035636,0.0267 0.058857,0.0678 0.094493,0.0945 0.028172,0.0211 0.065192,0.0277 0.094493,0.0473 0.018531,0.0123 0.027326,0.0373 0.047246,0.0472 0.028173,0.0141 0.072221,-0.0223 0.094493,0 0.011136,0.0111 0,0.0315 0,0.0473 0,0.0945 0,0.18898 0,0.28348 0,0.0157 0.00704,0.0332 0,0.0472 -0.044817,0.0896 -0.1078092,0.0133 -0.1889858,0.0945 -0.1259903,0.12599 0.047247,0.0787 -0.1417392,0.14174 -0.014941,0.005 -0.031497,0 -0.047246,0 -0.031498,0 -0.062995,0 -0.094493,0 -0.094493,0 -0.1889858,0 -0.2834787,0 -0.078744,0 -0.1574881,0 -0.2362321,0 -0.015748,0 -0.031498,0 -0.047246,0 -0.015748,0 -0.03316,0.007 -0.047247,0 -0.077478,-0.0387 -0.047246,-0.12046 -0.047246,-0.18899 0,-0.15749 0,-0.31498 0,-0.47246 0,-0.007 0.00721,-0.17096 0,-0.18899 -0.026157,-0.0654 -0.062995,-0.12599 -0.094493,-0.18899 z"
       id="path3775"
       inkscape:connector-curvature="0" />
    <path
       style="fill:none;stroke:#000000;stroke-width:0.26458001px;stroke-linecap:butt;stroke-linejoin:miter;stroke-opacity:1"
       d="m 2.5513072,290.24112 c 0.1732369,0 0.3464738,0 0.5197107,0 0.055145,0 0.2466183,-0.009 0.2834785,0 0.2281505,0.057 -0.00235,0.0225 0.1417395,0.0945 0.028172,0.0141 0.06632,-0.0141 0.094493,0 0.06558,0.0328 0.047247,0.0841 0.047247,0.14174 0,0.0329 0.00854,0.21914 0,0.23623 -0.00996,0.0199 -0.027326,0.0373 -0.047247,0.0472 -0.030191,0.0151 -0.1509569,-0.0127 -0.1889855,0 -0.066817,0.0223 -0.1206578,0.0774 -0.1889858,0.0945 -0.030557,0.008 -0.063607,-0.006 -0.094493,0 -0.094878,-0.0108 -0.1539545,0.0739 -0.2362322,0.0945 -0.035929,0.009 -0.1966685,0 -0.2362321,0 -0.1102417,0 -0.2204834,0 -0.330725,0 -0.015749,0 -0.043427,0.0153 -0.047246,0 -0.00997,-0.0399 0,-0.39198 0,-0.47246 0,-0.0473 0,-0.0945 0,-0.14174 0,-0.0157 -0.015749,-0.0472 0,-0.0472 0.015749,0 -0.015749,0.0472 0,0.0472 0.022272,0 0.027326,-0.0373 0.047246,-0.0472 0.014086,-0.007 0.031803,0.003 0.047246,0 0.063673,-0.0127 0.1259905,-0.0315 0.1889857,-0.0473 z"
       id="path3783"
       inkscape:connector-curvature="0" />
    <path
       style="fill:none;stroke:#000000;stroke-width:0.26458001px;stroke-linecap:butt;stroke-linejoin:miter;stroke-opacity:1"
       d="m 2.9292786,291.942 c 0,1.2914 0,2.5828 0,3.8742"
       id="path3785"
       inkscape:connector-curvature="0" />
  </g>
</svg>
