<?xml version="1.0" standalone="no"?>
<!DOCTYPE svg PUBLIC "-//W3C//DTD SVG 20010904//EN"
 "http://www.w3.org/TR/2001/REC-SVG-20010904/DTD/svg10.dtd">
<svg version="1.0" xmlns="http://www.w3.org/2000/svg"
 width="500.000000pt" height="500.000000pt" viewBox="0 0 500.000000 500.000000"
 preserveAspectRatio="xMidYMid meet">
<metadata>
Created by potrace 1.11, written by Peter Selinger 2001-2013
</metadata>
<g transform="translate(0.000000,500.000000) scale(0.100000,-0.100000)"
fill="#000000" stroke="none">
<path d="M2176 4440 c-4 -28 -10 -39 -19 -34 -9 5 -9 4 0 -6 13 -14 6 -43 -9
-34 -6 4 -5 -3 1 -15 7 -12 8 -21 2 -21 -5 0 -12 6 -14 13 -4 9 -6 9 -6 0 -1
-6 3 -14 9 -18 5 -3 7 -11 4 -18 -3 -8 12 -13 47 -14 61 -2 69 -8 44 -31 -16
-16 -17 -16 -12 0 4 12 1 16 -14 13 -10 -2 -19 0 -19 5 0 15 -32 4 -42 -14 -9
-16 -7 -16 10 -7 30 16 36 14 21 -6 -10 -13 -8 -13 10 2 22 19 23 19 20 1 -4
-20 26 -32 37 -15 3 5 10 9 16 9 6 0 5 -7 -3 -17 -13 -17 -13 -17 5 -3 18 14
19 13 13 -2 -4 -11 -2 -17 6 -15 7 1 11 -4 9 -11 -1 -8 2 -11 10 -6 6 4 1 -8
-12 -26 -13 -19 -18 -30 -9 -26 7 4 3 -3 -11 -15 -17 -15 -19 -20 -7 -16 14 5
16 2 13 -17 -2 -14 -1 -27 2 -31 4 -4 7 -10 7 -13 1 -4 6 -17 13 -28 11 -21 6
-38 -9 -28 -4 2 -6 11 -3 18 3 8 0 17 -5 21 -6 3 -9 11 -6 16 3 5 -1 6 -9 3
-13 -5 -14 -8 -1 -20 8 -8 12 -21 9 -28 -5 -14 22 -30 36 -21 4 3 20 -9 34
-25 14 -17 29 -31 33 -30 16 0 43 -12 43 -19 0 -6 19 -10 63 -11 15 -1 16 -4
6 -16 -8 -10 -15 -11 -24 -4 -6 5 -16 6 -20 2 -5 -4 -5 -1 0 6 6 11 3 12 -13
3 -28 -15 -32 -14 -26 4 6 14 -6 20 -29 16 -5 -1 -5 4 -1 10 4 8 3 9 -5 5 -6
-4 -9 -11 -6 -16 3 -4 -1 -11 -7 -13 -8 -3 -6 -6 5 -6 9 -1 17 4 17 10 0 5 4
8 10 4 5 -3 6 -13 3 -21 -4 -11 0 -15 13 -14 34 4 45 0 38 -12 -5 -10 -4 -10
7 0 11 10 16 8 27 -10 l13 -23 -7 25 c-6 23 -6 24 11 10 10 -8 27 -14 38 -12
14 3 17 0 11 -10 -6 -11 -5 -11 8 0 13 10 17 10 21 0 4 -10 6 -10 6 1 1 11 4
11 18 0 9 -8 14 -9 11 -4 -3 6 0 16 8 23 13 12 18 8 15 -11 -1 -5 3 -6 9 -2 6
3 8 9 6 13 -2 4 2 13 10 20 14 13 19 5 15 -21 -1 -5 3 -6 8 -2 6 3 7 13 4 22
-4 11 -2 14 5 9 6 -3 16 2 22 14 6 11 16 19 22 17 12 -2 14 3 17 41 1 12 4 13
9 5 6 -9 11 -7 20 7 7 12 8 20 2 20 -5 0 -10 -5 -10 -11 0 -5 -4 -8 -10 -4 -5
3 -16 -8 -25 -25 -9 -18 -21 -28 -27 -24 -7 5 -8 2 -3 -7 5 -8 5 -11 0 -7 -4
4 -14 0 -22 -10 -9 -10 -11 -11 -7 -2 7 13 6 13 -12 0 -10 -8 -22 -19 -26 -25
-5 -6 -8 -4 -8 5 0 13 -1 13 -10 0 -8 -13 -10 -13 -10 1 0 10 15 20 38 27 54
16 112 74 112 112 0 6 5 10 11 10 8 0 8 -4 0 -13 -8 -10 -7 -14 2 -14 9 0 13
12 11 36 -1 20 -3 37 -4 39 -1 1 -3 5 -4 10 -1 4 -4 12 -8 18 -12 19 3 56 21
50 11 -4 10 -2 -3 9 -23 18 -36 19 -36 4 0 -5 5 -7 12 -3 7 4 8 3 4 -4 -10
-16 -11 -15 -30 12 -15 24 -15 25 7 20 12 -3 27 -6 32 -7 6 -2 17 -6 25 -11
12 -7 13 -6 3 5 -17 17 -16 29 1 29 17 0 26 22 21 51 -7 35 -14 34 -12 -1 1
-18 -3 -35 -10 -37 -10 -3 -11 15 -3 37 1 3 3 12 4 20 0 9 10 14 21 13 20 -1
20 -1 1 13 -11 8 -17 14 -13 14 4 0 3 8 -2 19 -8 15 -41 27 -86 32 -2 1 -42
10 -87 20 -46 11 -90 20 -98 21 -8 0 -88 16 -178 34 -89 19 -166 34 -171 34
-5 0 -11 -18 -15 -40z m130 -180 c1 -8 2 -22 3 -30 1 -13 2 -13 12 0 9 12 10
12 7 1 -7 -23 -29 -25 -35 -3 -7 27 -31 36 -52 20 -10 -8 -9 -4 3 10 22 25 60
26 62 2z m42 -5 c-2 -5 -10 -10 -20 -10 -10 -1 -14 4 -11 12 6 15 36 14 31 -2z
m202 -34 c0 -5 -8 -15 -17 -22 -15 -12 -16 -12 -10 4 3 9 2 17 -3 17 -6 0 -10
-7 -10 -16 0 -8 -5 -12 -10 -9 -6 4 -7 12 -3 18 3 7 -3 4 -14 -6 -11 -9 -22
-15 -25 -12 -3 3 -8 -1 -11 -9 -4 -9 -1 -18 5 -22 7 -4 8 -3 4 4 -4 7 5 10 28
8 22 -2 40 2 47 10 15 18 40 0 32 -24 -4 -13 -3 -14 5 -3 11 15 36 6 27 -10
-11 -17 2 -9 21 14 10 12 15 19 10 14 -5 -4 -21 3 -35 15 -14 13 -19 15 -12 6
16 -21 -1 -24 -18 -4 -15 18 0 29 25 19 31 -12 52 -35 46 -51 -3 -10 -1 -13 6
-8 7 4 12 2 12 -4 0 -6 -6 -10 -14 -8 -8 2 -15 -1 -15 -7 0 -5 8 -9 17 -8 10
1 11 0 5 -3 -7 -3 -13 -10 -13 -16 0 -23 -31 -39 -73 -37 -55 3 -81 13 -108
40 -13 13 -16 20 -7 17 8 -4 15 -1 15 7 0 7 -5 11 -12 9 -21 -9 -10 48 14 67
23 19 91 27 91 10z m-56 -29 c3 -5 -1 -9 -9 -9 -8 0 -12 4 -9 9 3 4 7 8 9 8 2
0 6 -4 9 -8z m283 -137 c0 -8 -4 -12 -9 -9 -5 3 -6 10 -3 15 9 13 12 11 12 -6z
m-247 -177 c0 -9 3 -9 8 -3 11 17 59 16 66 0 3 -8 1 -17 -3 -20 -5 -3 -11 2
-15 10 -3 8 -12 12 -21 9 -8 -3 -12 -11 -8 -18 4 -6 -6 -3 -21 8 -27 17 -29
17 -22 1 5 -15 4 -16 -9 -5 -13 11 -13 15 -3 21 19 12 28 11 28 -3z"/>
<path d="M2535 4169 c-4 -6 -5 -12 -2 -15 2 -3 7 2 10 11 7 17 1 20 -8 4z"/>
<path d="M2155 4440 c-3 -5 -1 -10 4 -10 6 0 11 5 11 10 0 6 -2 10 -4 10 -3 0
-8 -4 -11 -10z"/>
<path d="M2776 4118 c3 -5 10 -6 15 -3 13 9 11 12 -6 12 -8 0 -12 -4 -9 -9z"/>
<path d="M2250 4079 c0 -5 5 -7 10 -4 6 3 10 8 10 11 0 2 -4 4 -10 4 -5 0 -10
-5 -10 -11z"/>
<path d="M3515 3976 c-33 -19 -64 -32 -69 -29 -5 4 -6 1 -2 -5 3 -5 2 -12 -3
-14 -21 -7 -20 -58 2 -81 12 -13 17 -16 11 -7 -6 8 -9 21 -6 29 2 8 0 11 -5 8
-5 -3 -10 1 -10 10 0 12 4 11 19 -7 10 -12 16 -26 13 -30 -3 -5 -1 -11 5 -15
6 -4 7 -12 1 -24 -7 -13 -6 -18 4 -18 8 0 12 4 9 9 -3 4 -1 8 4 8 6 0 13 -7
16 -16 3 -8 2 -12 -4 -9 -6 3 -10 2 -10 -4 0 -6 -8 -8 -17 -5 -15 5 -15 4 -3
-4 8 -6 18 -8 24 -5 5 4 7 -1 3 -11 -4 -10 -3 -15 4 -11 6 4 8 -4 4 -22 -5
-25 -4 -26 4 -5 6 12 8 30 4 40 -8 21 -2 16 20 -20 12 -19 14 -29 5 -34 -7 -5
-8 -3 -3 6 5 9 4 11 -4 6 -8 -6 -6 -17 9 -42 12 -18 19 -38 15 -44 -4 -6 -1
-9 7 -8 7 2 12 -3 10 -10 -1 -8 2 -11 8 -7 10 6 -1 33 -28 67 -10 12 -11 18
-1 24 7 4 10 3 6 -3 -3 -5 3 -17 14 -26 11 -10 18 -21 15 -26 -3 -5 3 -16 14
-26 11 -10 16 -24 13 -33 -4 -10 -2 -13 5 -8 8 5 10 1 5 -10 -5 -13 -3 -15 7
-9 8 5 11 4 7 -2 -4 -6 0 -14 9 -17 9 -4 14 -9 11 -12 -3 -4 1 -13 9 -21 8 -8
12 -18 9 -23 -3 -4 2 -10 10 -14 9 -3 12 -12 8 -22 -5 -13 -3 -15 7 -9 8 5 11
4 6 -3 -3 -6 -2 -13 4 -17 5 -3 10 -11 10 -18 0 -6 -7 -1 -16 11 -16 23 -34
29 -34 12 0 -6 6 -9 13 -8 6 2 11 -5 11 -15 -1 -10 0 -16 4 -13 3 3 11 -2 18
-12 9 -13 9 -19 1 -25 -7 -5 -1 -5 12 -2 13 4 21 3 18 -2 -3 -5 3 -9 13 -9 10
0 17 3 14 7 -2 4 3 10 12 13 12 5 15 2 10 -9 -3 -9 -2 -13 4 -10 6 3 10 13 10
22 0 10 6 13 16 9 8 -3 13 -2 11 2 -7 11 17 29 36 26 9 -1 17 1 17 6 0 12 -29
20 -35 9 -4 -5 -11 -6 -17 -3 -7 5 -8 2 -3 -6 6 -9 4 -11 -5 -5 -9 6 -11 4 -5
-5 6 -10 4 -12 -9 -7 -9 4 -15 3 -12 -2 7 -11 -14 -20 -32 -13 -9 2 1 13 24
27 21 13 42 21 46 19 5 -3 8 0 8 5 0 15 33 14 48 -1 9 -9 12 -9 12 0 0 7 -4
12 -10 12 -5 0 -10 5 -10 11 0 5 4 8 8 5 4 -2 8 4 8 14 0 10 -3 17 -6 15 -4
-2 -21 21 -38 51 -17 30 -26 52 -19 49 6 -4 5 -1 -4 7 -23 19 -41 57 -33 70 4
6 3 8 -3 5 -9 -6 -23 11 -27 33 -1 3 -5 11 -9 18 -9 14 -1 32 15 32 7 0 7 -4
0 -13 -8 -10 -6 -13 8 -13 10 0 18 5 17 10 -1 6 3 10 8 11 6 0 15 4 22 8 7 4
20 -5 33 -23 12 -17 28 -29 35 -28 8 2 13 0 12 -3 -1 -4 6 -16 16 -27 14 -15
15 -22 6 -28 -8 -5 -10 -3 -4 6 6 9 4 11 -5 5 -9 -6 -11 -4 -5 6 7 12 6 12 -6
0 -11 -10 -11 -15 -1 -18 6 -3 9 -10 5 -16 -4 -7 1 -6 11 2 13 11 20 11 28 3
9 -9 8 -12 -4 -12 -10 0 -16 -7 -15 -19 1 -12 6 -17 15 -14 11 5 11 7 0 15
-11 8 -11 9 0 6 8 -2 13 -7 12 -12 -1 -4 9 -16 21 -27 12 -10 18 -19 14 -19
-5 0 -17 7 -27 17 -10 9 -18 12 -18 6 0 -5 11 -16 25 -23 27 -14 33 -35 13
-43 -7 -3 -3 -4 10 -4 12 1 22 4 22 7 0 12 30 7 30 -4 0 -6 5 -3 10 6 6 9 19
15 30 13 14 -3 17 0 13 13 -6 15 -5 15 10 3 15 -12 17 -12 11 4 -6 14 -4 16 7
10 11 -7 11 -5 -1 10 -14 17 -13 18 5 11 11 -4 16 -4 12 0 -4 5 2 13 14 20 14
7 18 14 10 18 -6 4 -11 2 -11 -3 0 -6 -5 -11 -11 -11 -8 0 -7 5 2 16 10 13 10
20 -5 45 -9 16 -14 34 -11 39 4 6 3 9 -2 8 -4 -2 -9 0 -10 5 -2 4 -12 16 -23
27 -11 11 -20 27 -20 35 0 8 -9 24 -21 36 -11 11 -18 26 -16 32 2 6 -6 20 -17
30 -12 10 -14 15 -6 11 26 -13 -43 56 -76 76 -17 11 -48 20 -68 20 -39 0 -104
-28 -125 -54 -7 -9 -18 -13 -25 -9 -6 3 -8 3 -4 -2 7 -7 -27 -85 -38 -85 -2 0
1 10 7 23 11 20 11 21 -4 9 -13 -12 -21 -3 -63 72 -26 47 -50 86 -53 86 -3 0
-33 -16 -66 -34z m364 -212 c11 -14 17 -32 14 -41 -5 -12 -3 -14 7 -8 9 6 11
4 5 -4 -9 -15 -66 49 -57 64 3 6 -2 4 -11 -4 -19 -15 -23 -26 -5 -15 6 4 8 3
5 -3 -6 -9 -21 -10 -61 -4 -5 0 -1 10 9 21 26 28 69 26 94 -6z m252 -187 c-6
-8 -8 -16 -5 -20 3 -3 -4 -8 -15 -12 -12 -3 -19 -11 -16 -16 3 -5 -1 -6 -9 -3
-9 3 -16 2 -16 -3 0 -5 -11 -9 -25 -9 -14 0 -25 3 -25 7 0 10 41 24 60 20 8
-2 12 1 7 5 -4 4 5 16 20 26 33 21 39 23 24 5z m-396 -196 c-3 -5 4 -13 16
-16 11 -4 18 -9 16 -12 -9 -8 -48 18 -42 28 4 5 8 9 11 9 3 0 3 -4 -1 -9z"/>
<path d="M3800 3765 c-7 -9 -8 -15 -2 -15 5 0 12 7 16 15 3 8 4 15 2 15 -2 0
-9 -7 -16 -15z"/>
<path d="M3860 3763 c0 -6 8 -17 18 -24 16 -13 16 -13 2 6 -8 11 -16 22 -17
24 -2 2 -3 0 -3 -6z"/>
<path d="M2288 3963 c6 -3 9 -10 5 -16 -3 -7 -3 -9 2 -5 4 4 13 1 19 -7 9 -13
11 -11 12 9 1 19 -3 23 -25 23 -14 0 -20 -2 -13 -4z"/>
<path d="M2330 3943 c0 -5 5 -15 10 -23 8 -12 10 -11 10 8 0 12 -4 22 -10 22
-5 0 -10 -3 -10 -7z"/>
<path d="M940 3920 c-8 -5 -11 -10 -7 -10 4 0 3 -10 -4 -21 -9 -18 -13 -19
-21 -8 -8 11 -9 10 -4 -3 4 -15 -37 -105 -54 -118 -4 -3 -15 -22 -25 -42 -9
-21 -21 -35 -26 -32 -5 3 -6 -1 -3 -9 3 -8 0 -18 -7 -23 -8 -5 -10 -3 -4 6 5
9 4 11 -4 6 -6 -4 -8 -12 -5 -18 4 -6 -1 -17 -11 -25 -11 -7 -16 -13 -12 -13
4 0 -2 -18 -13 -40 -11 -22 -25 -40 -31 -40 -6 0 -8 -4 -5 -8 7 -12 -29 -64
-38 -55 -4 5 -7 1 -5 -7 4 -20 -20 -62 -31 -55 -6 4 -7 -2 -3 -12 9 -27 24
-43 34 -38 4 3 12 -2 17 -11 5 -9 11 -14 14 -12 9 6 78 -37 78 -49 0 -7 -5
-13 -10 -13 -6 0 -9 6 -8 13 2 7 -6 11 -22 9 -20 -2 -22 -1 -10 7 10 7 11 11
3 11 -7 0 -15 -1 -16 -2 -2 -2 -11 3 -20 11 -11 9 -17 10 -17 2 0 -6 5 -11 11
-11 5 0 7 -5 4 -10 -4 -6 -1 -9 7 -8 7 2 12 -3 10 -10 -1 -8 2 -11 8 -7 5 3
19 1 30 -5 31 -17 60 -20 57 -7 -1 6 5 11 13 12 9 0 14 8 12 19 -2 10 1 15 7
12 5 -4 13 -1 17 5 4 8 3 9 -4 5 -7 -4 -12 -2 -12 4 0 7 -5 6 -14 -2 -8 -7
-12 -16 -10 -19 2 -4 -3 -12 -11 -19 -10 -9 -15 -9 -15 -1 0 6 5 11 11 11 5 0
8 4 5 9 -3 4 3 16 14 26 11 10 18 21 15 25 -2 4 4 16 13 26 10 10 19 22 20 27
1 4 9 22 18 39 l17 33 20 -41 c13 -28 33 -48 63 -65 24 -13 44 -28 44 -33 0
-6 -5 -5 -11 1 -6 6 -18 9 -27 6 -10 -4 -13 -2 -8 5 3 6 1 14 -5 18 -8 5 -10
2 -5 -7 4 -8 1 -6 -8 5 -8 10 -20 15 -27 10 -8 -5 -10 -3 -4 6 5 9 4 11 -3 6
-8 -5 -10 -1 -6 11 4 13 3 15 -4 5 -7 -11 -10 -11 -15 2 -4 9 -10 16 -16 16
-9 0 -24 -38 -21 -55 1 -5 -7 -15 -16 -22 -16 -11 -16 -13 -2 -13 9 0 20 9 23
20 3 11 12 20 18 20 9 0 9 2 0 8 -7 5 -9 13 -4 21 7 11 10 9 16 -8 3 -11 11
-21 16 -21 6 0 7 -5 4 -10 -4 -6 -3 -10 2 -9 4 1 11 0 16 -1 4 -1 13 -3 20 -4
6 -1 11 -7 10 -14 -2 -7 4 -9 15 -5 15 6 15 5 3 -10 -17 -21 -8 -22 13 -1 9 8
16 11 16 5 0 -5 7 -17 16 -25 14 -14 17 -13 37 9 23 25 86 48 73 26 -4 -6 -12
-9 -17 -6 -5 4 -9 1 -9 -5 0 -6 -5 -8 -12 -4 -8 5 -7 0 2 -11 14 -16 13 -17
-7 -11 -23 7 -41 -8 -22 -20 8 -4 9 -3 5 4 -9 16 7 15 22 0 9 -9 12 -9 13 3 1
7 1 17 0 22 0 4 3 7 9 7 5 0 10 -5 10 -12 0 -18 10 -3 15 23 3 13 10 26 17 28
19 6 127 114 122 122 -2 4 3 12 11 19 8 7 12 17 8 23 -3 6 -1 7 6 3 6 -4 9
-12 6 -17 -4 -5 -1 -9 4 -9 14 0 14 6 1 31 -6 10 -7 19 -2 19 5 0 9 8 9 18 0
33 3 43 11 38 5 -3 9 1 9 9 0 8 -4 12 -8 10 -3 -3 -9 8 -12 23 -3 15 0 30 6
34 9 6 8 8 -2 8 -11 0 -11 3 -1 15 11 13 10 15 -1 10 -8 -2 -25 10 -39 30 -32
44 -108 78 -164 73 -22 -2 -44 -7 -48 -13 -5 -6 -8 -6 -8 2 0 6 9 18 20 26 19
13 19 15 3 29 -21 19 -121 78 -131 78 -4 0 -14 -5 -22 -10z m183 -223 c18 -13
33 -67 19 -67 -5 0 -9 7 -10 15 -1 8 -3 22 -4 30 -1 8 -4 13 -6 10 -3 -3 -11
0 -19 6 -12 11 -14 9 -12 -7 0 -4 -5 -10 -12 -15 -8 -4 -10 -11 -6 -16 5 -4
11 -3 15 2 10 14 32 17 32 5 0 -5 -4 -10 -10 -10 -5 0 -10 -5 -10 -11 0 -5 4
-8 9 -5 4 3 17 -4 27 -16 11 -12 13 -18 5 -13 -11 6 -13 4 -8 -8 3 -10 2 -17
-4 -17 -6 0 -8 -4 -4 -9 11 -18 -39 -62 -79 -68 -35 -5 -39 -4 -32 12 5 15 4
16 -9 5 -12 -10 -15 -10 -15 3 0 8 6 18 13 21 6 3 3 4 -8 1 -17 -4 -20 0 -21
30 0 19 4 35 9 35 6 0 7 3 4 6 -3 4 -2 15 4 25 12 23 41 26 32 3 -5 -13 -8
-13 -15 -2 -7 10 -8 10 -6 -2 1 -8 -4 -26 -11 -39 -10 -17 -10 -26 -1 -35 8
-8 9 -6 4 9 -7 18 -6 19 12 5 15 -11 16 -11 7 0 -16 18 -17 34 -1 24 7 -4 8
-3 4 4 -4 7 -2 12 3 12 6 0 11 8 11 18 0 12 2 14 8 4 6 -9 12 -5 21 14 12 28
9 40 -8 30 -6 -4 -7 -14 -4 -24 6 -15 5 -15 -11 -2 -17 13 -17 15 4 32 26 21
59 23 83 5z m-59 -366 c9 -15 -23 -36 -36 -23 -5 5 -7 15 -4 21 9 13 33 14 40
2z"/>
<path d="M1096 3555 c4 -8 8 -15 10 -15 2 0 4 7 4 15 0 8 -4 15 -10 15 -5 0
-7 -7 -4 -15z"/>
<path d="M1035 3320 c-3 -5 -1 -10 4 -10 6 0 11 5 11 10 0 6 -2 10 -4 10 -3 0
-8 -4 -11 -10z"/>
<path d="M856 3803 c-6 -14 -5 -15 5 -6 7 7 10 15 7 18 -3 3 -9 -2 -12 -12z"/>
<path d="M2224 3791 c-4 -9 -6 -24 -5 -33 1 -11 -5 -18 -16 -19 -10 0 -13 -3
-5 -6 6 -2 12 -9 12 -14 0 -6 -6 -7 -12 -3 -10 5 -10 4 -2 -5 13 -14 7 -54 -7
-45 -5 3 -9 0 -9 -5 0 -6 5 -11 12 -11 9 0 9 -3 1 -11 -15 -15 -4 -51 14 -45
7 3 16 0 19 -8 3 -7 11 -13 19 -13 8 0 12 4 9 9 -7 11 7 10 26 -2 10 -6 11
-10 3 -10 -7 0 -13 -5 -13 -11 0 -8 4 -8 14 0 8 7 12 21 9 31 -4 15 0 20 16
20 11 0 21 -5 21 -11 0 -6 -8 -8 -17 -5 -17 6 -17 5 0 -8 10 -8 13 -16 8 -17
-6 -2 4 -12 22 -22 17 -10 26 -13 20 -6 -20 20 -15 31 6 17 11 -7 18 -15 16
-18 -2 -4 2 -7 10 -7 8 0 15 3 15 7 0 3 9 6 21 7 18 2 19 0 8 -15 -11 -14 -11
-15 1 -4 21 18 35 15 19 -5 -10 -11 -10 -14 -1 -9 6 4 12 2 12 -3 0 -20 16
-11 17 9 1 11 -3 20 -8 20 -6 0 -7 4 -4 10 4 6 -1 7 -11 3 -12 -4 -15 -3 -10
6 9 14 -16 11 -26 -4 -5 -6 -8 -5 -8 3 0 6 -7 12 -15 12 -8 0 -15 5 -15 10 0
12 6 12 53 -1 45 -12 76 -52 57 -74 -10 -12 -10 -15 1 -15 9 -1 5 -8 -9 -20
-27 -22 -88 -21 -202 6 -14 3 -36 8 -50 10 -14 2 -35 6 -47 9 -15 4 -26 -1
-33 -15 -6 -11 -16 -17 -22 -14 -7 4 -8 3 -4 -5 4 -6 11 -9 16 -6 5 3 4 -8 -1
-25 -7 -18 -15 -27 -22 -23 -9 5 -8 2 0 -8 13 -16 12 -44 -2 -56 -4 -5 -5 -1
0 7 5 8 4 12 0 7 -5 -4 -10 -18 -12 -30 -2 -16 0 -18 6 -8 6 9 11 10 15 3 4
-6 13 -9 20 -6 7 3 16 -1 19 -9 3 -7 -1 -14 -9 -14 -7 0 -11 3 -9 7 2 4 -2 7
-10 7 -8 0 -15 -4 -15 -9 0 -8 13 -11 26 -5 4 1 11 -9 16 -23 7 -20 11 -22 18
-10 8 13 12 12 25 -5 11 -15 13 -16 9 -3 -4 12 -1 16 13 14 11 -2 17 -11 16
-22 -1 -11 0 -13 3 -6 3 6 12 12 20 12 9 0 13 -4 10 -8 -7 -11 35 -9 53 2 11
7 13 5 8 -7 -4 -11 -2 -14 9 -10 7 3 14 10 14 16 0 6 3 7 8 3 4 -4 7 -13 7
-18 0 -6 7 -13 15 -15 13 -4 13 -3 0 6 -11 7 -7 10 18 9 28 -1 30 -3 19 -17
-10 -14 -10 -14 3 -5 16 11 52 11 85 -1 11 -4 15 -3 10 2 -15 12 -11 68 4 58
5 -3 12 -1 16 5 4 6 11 8 16 5 5 -4 9 -2 9 4 0 6 10 19 22 31 12 11 18 20 14
20 -5 0 -3 7 4 15 7 8 9 15 5 15 -4 0 -3 6 2 13 6 6 9 20 8 30 -3 14 2 17 18
12 l22 -5 -22 11 c-22 12 -28 53 -6 45 7 -3 10 1 6 9 -3 8 -9 12 -14 9 -5 -3
-9 1 -9 8 0 8 9 14 20 15 11 1 18 -2 15 -7 -3 -5 -1 -11 5 -15 6 -4 7 -12 3
-18 -3 -7 3 -3 15 7 14 12 22 15 22 6 0 -6 6 -10 14 -7 7 3 18 1 24 -5 8 -8
16 -8 27 2 14 11 19 7 16 -12 -3 -18 18 -6 24 13 5 15 10 17 20 9 9 -8 15 -8
20 0 4 6 3 10 -2 9 -4 -1 -10 0 -13 1 -25 9 -38 6 -33 -8 4 -13 3 -14 -5 -4
-5 7 -15 14 -23 15 -8 2 -21 7 -29 12 -9 5 -8 0 4 -13 11 -12 14 -22 8 -22 -6
0 -14 5 -17 10 -4 6 -11 7 -17 4 -7 -4 -8 -2 -4 4 14 23 -6 34 -21 13 -8 -12
-19 -19 -24 -15 -6 3 -3 12 8 20 16 13 16 14 1 8 -10 -3 -18 -2 -18 4 0 12
-18 11 -39 -2 -8 -5 -16 -3 -22 5 -12 19 -11 29 1 29 6 0 10 -4 10 -9 0 -5 9
-7 20 -4 11 3 26 0 33 -6 8 -6 16 -8 20 -5 3 3 22 1 42 -6 41 -14 126 -20 119
-9 -2 4 -1 9 3 12 5 2 3 2 -4 1 -22 -6 -24 14 -2 21 16 5 18 9 9 15 -8 5 -15
18 -17 30 -3 20 -2 20 13 6 8 -9 20 -14 25 -11 13 9 11 15 -3 13 -7 -2 -12 3
-10 10 1 6 -2 12 -8 12 -5 0 -10 5 -10 11 0 5 5 7 10 4 6 -3 10 -1 10 4 0 6
-6 11 -12 11 -10 0 -9 3 1 9 7 5 9 11 5 14 -11 6 -226 53 -334 73 -14 2 -56
12 -95 20 -38 9 -83 18 -100 21 -16 2 -47 8 -67 13 -30 6 -38 4 -44 -9z m6
-178 c0 -7 5 -13 11 -13 5 0 8 4 5 8 -2 4 3 8 13 9 10 1 18 -4 18 -11 0 -10
-40 -14 -57 -6 -3 1 -9 2 -13 1 -5 -1 -6 3 -3 8 4 5 0 11 -6 14 -7 3 -3 4 10
4 12 -1 22 -7 22 -14z m158 -41 c24 -24 21 -28 -9 -11 -11 6 -17 15 -13 22 4
7 -2 4 -14 -6 -20 -18 -20 -18 -17 0 2 10 4 19 4 20 4 7 31 -7 49 -25z m-158
-273 c0 -5 5 -7 10 -4 6 4 19 3 28 -1 18 -7 31 -10 75 -12 17 -1 27 -8 27 -17
0 -8 -4 -15 -10 -15 -5 0 -10 5 -10 10 0 6 -4 10 -10 10 -5 0 -9 -5 -7 -12 1
-7 -5 -12 -13 -12 -23 1 -70 26 -70 38 0 6 -5 4 -10 -4 -5 -8 -10 -10 -10 -4
0 7 -7 15 -16 18 -13 5 -14 3 -6 -7 8 -10 6 -13 -8 -13 -12 0 -18 7 -17 18 1
19 47 26 47 7z m222 -52 c4 -6 8 -7 8 -2 0 19 47 16 52 -3 4 -14 -1 -18 -22
-17 -15 0 -35 7 -44 14 -13 11 -16 11 -16 0 0 -11 -2 -11 -9 -1 -4 7 -14 12
-21 10 -7 -2 -15 3 -18 11 -4 11 2 13 29 7 18 -3 37 -12 41 -19z"/>
<path d="M2301 3271 c-8 -5 -9 -11 -3 -15 5 -3 12 1 16 9 6 17 6 18 -13 6z"/>
<path d="M1590 3735 c-7 -13 -17 -22 -21 -19 -5 3 -6 -2 -3 -10 3 -9 1 -16 -6
-16 -6 0 -9 -4 -6 -9 3 -5 -1 -12 -10 -15 -8 -3 -12 -10 -9 -16 3 -5 1 -10 -5
-10 -6 0 -8 -4 -5 -10 3 -5 2 -10 -3 -10 -5 0 -12 -8 -16 -17 -12 -36 -43 -82
-51 -75 -5 4 -5 -1 -2 -10 4 -10 3 -18 -1 -18 -5 0 -16 -16 -25 -35 -9 -19
-21 -35 -27 -35 -5 0 -7 -7 -4 -15 4 -8 -1 -17 -10 -21 -9 -3 -16 -13 -16 -21
0 -9 -8 -22 -17 -30 -12 -10 -13 -12 -3 -8 13 6 13 5 0 -7 -8 -7 -16 -20 -18
-28 -5 -22 -23 -41 -33 -34 -5 3 -6 -2 -3 -11 4 -9 -2 -25 -11 -35 -10 -11
-13 -20 -7 -20 5 0 9 -8 7 -17 -1 -10 -8 -17 -15 -15 -6 1 -9 -2 -5 -8 3 -6
10 -8 15 -5 4 3 13 -2 20 -10 7 -8 19 -15 27 -15 8 0 11 -5 7 -12 -5 -7 -3 -8
6 -3 9 6 12 4 8 -7 -4 -8 -1 -15 7 -15 8 0 11 7 7 15 -3 10 -1 13 6 8 6 -3 14
-2 17 4 4 6 3 10 -2 9 -4 -1 -11 0 -15 1 -16 5 -28 8 -45 9 -14 1 -15 3 -4 10
8 5 9 11 3 15 -6 3 -12 1 -14 -6 -3 -9 -6 -9 -12 0 -4 7 -2 12 4 12 6 0 8 5 5
11 -4 6 2 5 14 -3 12 -7 21 -16 21 -20 0 -5 7 -8 15 -8 8 0 15 -5 15 -11 0 -5
4 -8 9 -4 5 3 16 -1 24 -9 8 -8 17 -12 21 -9 3 4 6 2 6 -3 0 -6 -5 -15 -11
-21 -8 -8 -7 -13 2 -18 8 -5 10 -4 5 3 -6 11 12 17 37 13 4 0 7 4 7 10 0 6 -6
9 -13 6 -8 -3 -14 1 -14 9 0 8 5 13 11 11 12 -4 35 21 35 38 0 6 -4 2 -10 -7
-5 -10 -15 -18 -22 -18 -7 0 -6 4 3 10 8 5 11 10 5 10 -5 0 -3 5 5 10 10 6 21
4 35 -8 18 -15 18 -15 7 0 -11 14 -10 18 5 26 10 6 18 19 18 29 0 10 6 17 13
15 8 -1 11 2 8 7 -3 5 1 23 10 40 14 28 18 30 32 19 15 -11 15 -11 4 3 -11 15
-8 16 25 15 21 -1 43 -5 48 -8 6 -4 12 2 12 13 1 13 -4 19 -15 17 -11 -2 -16
3 -14 12 3 11 -1 10 -16 -3 -13 -12 -22 -15 -27 -8 -3 6 -1 11 4 11 6 0 11 5
11 11 0 8 -5 8 -15 -1 -8 -7 -12 -16 -9 -21 3 -5 1 -9 -5 -9 -5 0 -12 6 -15
13 -3 6 -4 3 -3 -8 1 -12 -3 -19 -11 -17 -8 1 -11 -2 -7 -8 3 -5 2 -10 -4 -10
-6 0 -8 -8 -5 -17 5 -16 4 -16 -6 -3 -10 13 -11 12 -6 -3 4 -12 2 -16 -6 -11
-8 5 -9 2 -5 -10 5 -11 3 -15 -5 -10 -6 4 -8 3 -4 -4 3 -6 1 -14 -5 -18 -8 -4
-7 -9 2 -16 11 -7 10 -8 -4 -4 -11 3 -16 2 -12 -4 3 -6 -1 -10 -9 -10 -10 0
-13 6 -10 15 4 8 10 15 15 15 5 0 8 4 7 8 -2 4 14 35 34 68 51 83 92 99 140
54 18 -17 18 -57 -1 -52 -6 1 -11 -2 -11 -8 0 -5 6 -10 13 -10 7 0 8 -3 2 -8
-21 -15 -50 -56 -35 -48 8 4 4 -2 -10 -14 -14 -12 -19 -18 -11 -14 9 4 5 -8
-9 -34 -13 -23 -27 -39 -31 -36 -4 2 -10 0 -14 -6 -3 -5 0 -10 7 -10 8 -1 5
-7 -7 -16 -11 -8 -19 -18 -19 -22 1 -4 -2 -6 -7 -5 -4 2 -5 -7 0 -20 5 -12 12
-22 17 -22 22 -2 94 -47 94 -60 0 -9 -6 -12 -16 -8 -13 5 -13 8 -2 15 10 7 8
8 -5 4 -11 -3 -20 0 -24 10 -3 8 -12 13 -20 10 -9 -4 -11 -2 -7 6 5 7 3 8 -6
3 -9 -6 -11 -4 -5 6 6 11 5 12 -5 2 -11 -10 -16 -9 -26 5 -12 15 -12 15 -7 -6
3 -13 12 -21 22 -20 12 2 15 -4 13 -22 -1 -18 1 -21 7 -11 6 9 14 10 22 5 14
-9 19 -10 42 -13 9 -1 9 -3 0 -9 -9 -5 -6 -12 10 -21 20 -13 21 -13 8 2 -21
26 5 21 29 -5 18 -20 20 -20 14 -4 -6 15 -4 17 6 11 9 -5 11 -4 6 3 -7 12 3
15 34 13 10 0 11 1 3 5 -19 8 -16 24 5 24 13 0 14 2 4 9 -11 6 -10 10 4 15 9
3 14 9 11 12 -9 10 35 54 47 47 6 -4 5 1 -3 10 -13 17 -9 31 10 33 5 1 12 2
15 3 4 0 0 9 -7 18 -12 15 -12 16 3 10 13 -5 16 -1 12 20 -5 24 -3 25 13 12
10 -7 15 -9 10 -4 -4 4 0 16 8 25 14 15 14 19 -2 31 -14 12 -16 12 -8 0 5 -10
4 -12 -3 -7 -7 4 -12 2 -12 -3 0 -6 5 -11 12 -11 15 0 0 -15 -15 -15 -7 0 -11
-8 -11 -18 1 -9 -2 -14 -7 -11 -8 5 -13 -10 -10 -29 1 -5 -4 -5 -10 -1 -8 4
-9 3 -5 -5 4 -6 0 -14 -8 -17 -9 -3 -14 -10 -11 -14 3 -5 1 -11 -5 -15 -6 -4
-7 -11 -4 -17 5 -7 2 -8 -6 -3 -9 5 -11 4 -6 -4 4 -6 0 -14 -9 -17 -12 -5 -13
-9 -5 -14 9 -5 6 -10 -9 -15 -12 -3 -19 -10 -16 -15 3 -5 -5 -18 -17 -30 -13
-11 -24 -16 -26 -10 -2 5 -8 8 -13 4 -5 -3 -9 2 -9 12 0 13 3 14 15 4 12 -10
18 -10 30 0 8 7 13 16 10 20 -3 4 5 19 18 32 12 14 23 31 25 39 2 8 9 17 15
21 7 4 8 8 2 8 -5 0 -3 6 5 13 8 7 16 18 18 26 2 8 12 27 23 42 10 15 19 31
19 36 0 6 10 18 22 29 13 12 18 13 13 4 -7 -12 -6 -13 7 -3 8 7 18 10 21 6 4
-3 7 -4 7 -1 0 3 -8 12 -17 19 -14 12 -16 12 -8 0 5 -9 4 -12 -3 -7 -6 4 -9
13 -6 21 4 8 10 13 14 10 17 -11 21 17 6 34 -18 20 -21 36 -6 26 6 -3 10 -2
10 3 0 6 -7 13 -16 16 -9 4 -14 13 -10 22 3 8 2 12 -4 9 -6 -3 -10 -2 -10 4 0
6 -11 21 -25 35 -14 14 -25 23 -25 20 0 -2 -13 2 -29 11 -16 8 -55 16 -85 17
-43 2 -55 6 -51 16 3 7 5 16 5 18 0 2 7 4 15 4 8 0 14 3 13 8 -3 12 13 52 21
52 4 0 8 -7 8 -15 0 -8 -5 -11 -10 -8 -6 3 -7 1 -3 -5 11 -18 29 -14 22 3 -3
9 1 18 9 22 10 3 13 12 9 25 -4 14 -2 18 5 14 7 -5 8 -1 4 11 -6 16 -5 17 13
3 18 -14 18 -14 5 3 -14 18 -15 18 -28 1 -7 -10 -11 -24 -8 -32 3 -8 0 -10 -7
-6 -7 5 -8 3 -3 -6 5 -9 4 -11 -3 -6 -13 8 -2 36 27 69 14 17 14 20 -9 38 -14
11 -40 26 -57 35 -18 9 -33 21 -33 26 0 5 -4 7 -9 3 -5 -3 -12 -1 -16 5 -10
16 -21 12 -35 -15z m64 -403 c3 -5 -1 -9 -9 -9 -8 0 -12 4 -9 9 3 4 7 8 9 8 2
0 6 -4 9 -8z m256 -43 c0 -6 -4 -7 -10 -4 -5 3 -10 11 -10 16 0 6 5 7 10 4 6
-3 10 -11 10 -16z m-299 -316 c13 -16 12 -17 -3 -4 -10 7 -18 15 -18 17 0 8 8
3 21 -13z"/>
<path d="M3783 3695 c0 -8 4 -12 9 -9 5 3 6 10 3 15 -9 13 -12 11 -12 -6z"/>
<path d="M3901 3677 c-8 -10 -7 -14 2 -14 8 0 14 6 14 14 0 7 -1 13 -2 13 -2
0 -8 -6 -14 -13z"/>
<path d="M3273 3639 c-18 -3 -44 -14 -58 -23 -14 -9 -31 -14 -38 -10 -7 4 -9
4 -5 -1 4 -4 -2 -19 -12 -33 -11 -13 -20 -31 -20 -38 0 -8 -6 -11 -15 -8 -8 4
-15 1 -15 -5 0 -6 5 -11 12 -11 6 0 8 -3 4 -7 -4 -5 -14 1 -22 11 -14 19 -15
19 -54 -3 -22 -12 -40 -20 -40 -17 0 3 -9 -3 -20 -14 -12 -12 -25 -18 -29 -15
-5 2 -11 -4 -14 -15 -3 -11 -2 -18 3 -15 4 3 11 -2 14 -11 3 -8 2 -13 -2 -10
-4 2 -14 0 -22 -6 -13 -8 -13 -9 1 -5 9 3 22 1 30 -4 10 -6 8 -9 -11 -10 -17
-1 -20 -3 -7 -6 10 -3 14 -9 10 -16 -4 -8 -1 -7 9 1 14 11 20 6 46 -43 17 -30
26 -55 22 -55 -5 0 -12 9 -15 20 -4 11 -11 18 -16 15 -5 -3 -6 1 -3 9 3 9 1
16 -6 16 -6 0 -8 5 -4 12 4 7 3 8 -4 4 -8 -5 -10 -1 -6 11 5 16 4 16 -7 -1 -9
-15 -9 -20 5 -28 14 -8 15 -12 4 -26 -7 -9 -8 -13 -3 -10 15 9 39 -8 31 -21
-4 -6 -12 -8 -18 -5 -6 4 -8 2 -4 -4 3 -6 16 -9 28 -7 13 3 29 -3 40 -15 10
-11 16 -20 13 -20 -4 0 1 -7 9 -16 9 -8 16 -21 16 -29 0 -7 4 -15 8 -17 12 -5
73 -118 65 -118 -5 0 0 -5 10 -11 9 -6 15 -14 12 -20 -4 -5 -2 -9 3 -9 12 0
30 -42 25 -57 -2 -7 -12 -10 -21 -7 -15 5 -15 4 1 -6 9 -6 15 -15 12 -20 -3
-4 2 -10 10 -14 8 -3 17 0 21 6 5 7 2 8 -6 3 -10 -6 -12 -4 -7 9 5 11 3 15 -5
10 -7 -5 -8 -3 -3 6 6 10 11 9 21 -4 7 -10 10 -24 7 -32 -8 -22 17 -47 33 -33
11 9 18 8 28 0 10 -8 16 -9 21 -1 4 6 1 9 -6 8 -6 -2 -14 3 -17 11 -3 10 0 12
12 8 10 -4 15 -3 11 3 -9 14 8 12 25 -2 11 -10 11 -9 0 6 -14 18 -13 18 10 12
18 -5 21 -4 11 3 -8 5 -16 17 -17 25 -3 19 31 40 51 32 18 -7 11 29 -9 50 -9
8 -16 22 -16 30 0 8 -9 24 -20 36 -10 12 -17 24 -15 28 3 4 -2 13 -11 21 -8 7
-19 20 -24 29 -8 15 -4 16 36 10 25 -4 47 -3 50 2 3 5 12 7 19 4 8 -3 15 -2
17 2 2 4 20 20 41 35 37 28 74 88 72 117 -1 8 3 21 8 28 6 7 6 12 -1 12 -6 0
-9 8 -7 18 1 9 -4 30 -12 46 -8 15 -10 25 -5 22 6 -4 14 -2 17 4 4 6 3 10 -2
9 -19 -3 -31 2 -37 17 -4 10 -2 13 7 8 6 -4 2 3 -11 15 -12 12 -20 27 -16 32
3 5 1 8 -4 7 -9 -3 -93 68 -87 74 2 2 -4 4 -13 5 -9 1 -33 5 -52 10 -19 5 -50
6 -67 2z m56 -194 c17 -20 32 -40 32 -45 2 -13 6 -29 9 -32 1 -2 3 -11 5 -20
4 -23 -15 -35 -26 -17 -6 9 -9 10 -9 2 0 -7 7 -16 16 -21 14 -8 14 -11 3 -18
-8 -5 -16 -9 -19 -10 -3 0 -12 -4 -21 -8 -26 -12 -68 12 -92 51 -12 21 -21 42
-19 47 1 4 -2 14 -8 20 -12 16 -3 27 16 19 8 -3 11 -10 7 -16 -3 -6 -1 -7 6
-3 6 4 10 10 8 14 -2 4 7 18 20 32 16 16 22 18 17 7 -3 -10 -1 -17 6 -17 6 0
8 -6 4 -12 -6 -10 -4 -10 7 0 19 18 28 15 24 -9 -4 -17 -2 -19 10 -9 8 7 15
16 15 21 0 8 -40 24 -52 21 -4 -1 -5 5 -2 13 4 8 2 15 -2 15 -14 -1 -44 -26
-38 -32 9 -10 -23 -16 -37 -8 -22 14 18 50 57 50 24 0 39 -9 63 -35z m21 -519
c0 -7 -13 -19 -29 -26 -16 -6 -32 -18 -35 -27 -3 -8 -10 -11 -16 -8 -15 9 -12
25 5 25 8 0 15 4 15 10 0 5 12 16 28 24 34 19 32 19 32 2z"/>
<path d="M3215 3440 c3 -5 8 -10 11 -10 2 0 4 5 4 10 0 6 -5 10 -11 10 -5 0
-7 -4 -4 -10z"/>
<path d="M3336 3395 c-3 -9 0 -23 8 -31 18 -17 30 -18 19 -1 -4 6 -8 18 -9 25
-4 22 -11 24 -18 7z"/>
<path d="M3590 3600 c0 -5 5 -10 11 -10 5 0 7 5 4 10 -3 6 -8 10 -11 10 -2 0
-4 -4 -4 -10z"/>
<path d="M3593 3559 c1 -10 3 -16 5 -14 6 6 32 -22 32 -33 0 -6 6 -13 13 -15
10 -4 10 -6 0 -6 -7 -1 -13 -5 -13 -11 0 -5 6 -9 13 -7 6 1 11 -4 9 -11 -1 -8
2 -11 8 -7 5 3 10 1 10 -5 0 -6 5 -8 11 -4 8 5 6 10 -5 16 -9 5 -14 13 -11 17
2 5 -2 14 -10 21 -8 7 -13 15 -12 19 2 3 -9 18 -24 32 -23 22 -27 23 -26 8z"/>
<path d="M1335 3540 c2 -27 10 -33 12 -10 1 11 -2 22 -6 24 -4 3 -7 -4 -6 -14z"/>
<path d="M1692 3521 c2 -5 -6 -16 -17 -25 -20 -15 -20 -15 2 -10 24 7 38 30
22 39 -5 4 -8 2 -7 -4z"/>
<path d="M1295 3480 c-3 -5 -1 -10 5 -10 6 0 8 -5 4 -12 -4 -7 -3 -8 4 -4 6 4
9 13 5 21 -6 18 -10 19 -18 5z"/>
<path d="M1247 3412 c-20 -21 -37 -43 -37 -50 0 -7 -3 -11 -7 -11 -20 3 -31
-2 -37 -17 -3 -8 -2 -13 3 -9 5 3 11 2 14 -2 2 -5 2 -3 1 4 -2 7 3 10 11 6 8
-3 12 -10 8 -16 -3 -6 -1 -7 5 -3 6 4 8 14 5 23 -4 11 -3 14 5 9 8 -5 10 -1 5
10 -4 12 -3 15 5 10 8 -5 10 -1 5 11 -6 16 -5 17 12 3 11 -9 16 -10 11 -2 -4
6 -3 12 1 12 5 0 15 -6 23 -12 12 -11 12 -10 3 2 -14 21 -13 52 3 46 8 -3 11
0 7 10 -3 7 -6 14 -7 14 -1 0 -19 -17 -39 -38z m23 4 c0 -2 -8 -10 -17 -17
-16 -13 -17 -12 -4 4 13 16 21 21 21 13z"/>
<path d="M880 3436 c0 -2 7 -7 16 -10 8 -3 12 -2 9 4 -6 10 -25 14 -25 6z"/>
<path d="M610 3360 c0 -5 6 -9 13 -7 6 1 11 -5 9 -14 -1 -9 5 -19 13 -23 9 -3
13 -2 10 4 -3 6 -1 10 4 10 6 0 11 5 11 11 0 5 -4 8 -9 5 -5 -3 -14 1 -21 9
-14 17 -30 20 -30 5z"/>
<path d="M2638 3363 c7 -3 16 -2 19 1 4 3 -2 6 -13 5 -11 0 -14 -3 -6 -6z"/>
<path d="M2625 3341 c-3 -5 0 -13 6 -17 8 -5 9 -3 4 6 -6 10 -4 12 9 7 10 -4
15 -3 11 3 -8 13 -22 13 -30 1z"/>
<path d="M1150 3300 c0 -5 5 -10 10 -10 6 0 10 5 10 10 0 6 -4 10 -10 10 -5 0
-10 -4 -10 -10z"/>
<path d="M2603 3295 c-10 -10 -9 -16 4 -27 12 -9 15 -9 9 0 -12 20 4 35 22 20
15 -12 16 -11 3 5 -16 20 -22 21 -38 2z"/>
<path d="M3546 3274 c-5 -14 -4 -15 9 -4 17 14 19 20 6 20 -5 0 -12 -7 -15
-16z"/>
<path d="M2549 3254 c-6 -7 -9 -19 -6 -26 4 -9 6 -8 6 2 1 9 10 16 21 17 13 1
18 -2 14 -9 -4 -7 -2 -8 4 -4 15 9 5 33 -14 33 -8 0 -19 -6 -25 -13z"/>
<path d="M3036 3241 c-4 -6 -1 -11 6 -11 9 0 9 -3 -2 -10 -9 -6 -10 -10 -3
-10 17 0 23 14 14 29 -6 9 -11 10 -15 2z"/>
<path d="M3507 3221 c-14 -17 -27 -28 -29 -25 -9 8 -30 -25 -23 -36 9 -14 25
-3 19 14 -3 7 2 13 11 13 11 0 14 -7 10 -21 -3 -12 4 -4 15 17 11 21 25 35 30
32 6 -4 10 -1 10 4 0 6 -5 11 -11 11 -5 0 -7 5 -4 10 13 21 -4 9 -28 -19z m11
-11 c-7 -10 -14 -17 -17 -15 -4 4 18 35 25 35 2 0 -1 -9 -8 -20z"/>
<path d="M3055 3200 c-3 -5 1 -10 9 -10 17 0 17 -20 1 -33 -6 -5 -3 -7 7 -3
10 3 20 1 23 -4 4 -6 0 -10 -7 -10 -10 0 -9 -3 2 -9 22 -15 33 -1 16 18 -9 10
-16 22 -16 28 0 17 -27 36 -35 23z"/>
<path d="M3406 3154 c-4 -11 -10 -14 -14 -8 -6 9 -19 10 -46 6 -5 -1 -3 -9 4
-17 7 -8 17 -12 23 -8 7 4 8 -1 4 -13 -5 -15 -3 -14 10 4 15 21 16 21 29 5 13
-17 14 -17 8 0 -5 13 -2 16 11 11 12 -5 16 -3 14 5 -3 7 -8 12 -13 11 -5 -1
-12 4 -16 10 -5 8 -9 6 -14 -6z m-36 -14 c0 -5 -2 -10 -4 -10 -3 0 -8 5 -11
10 -3 6 -1 10 4 10 6 0 11 -4 11 -10z"/>
<path d="M1491 3124 c0 -11 3 -14 6 -6 3 7 2 16 -1 19 -3 4 -6 -2 -5 -13z"/>
<path d="M1386 3105 c-3 -8 -1 -15 4 -15 13 0 22 18 11 24 -5 3 -11 -1 -15 -9z"/>
<path d="M3104 3105 c-10 -8 -14 -14 -9 -15 15 0 40 18 34 24 -3 3 -14 -1 -25
-9z"/>
<path d="M3115 3080 c-3 -5 3 -15 15 -22 11 -7 20 -16 20 -21 0 -4 -5 -5 -12
-1 -7 4 -8 3 -4 -5 6 -9 11 -9 23 1 10 8 11 14 4 16 -6 2 -9 8 -6 13 4 5 -1 6
-10 3 -11 -5 -14 -2 -9 10 7 17 -11 23 -21 6z"/>
<path d="M2519 3063 c-1 -5 0 -16 1 -27 1 -12 -2 -16 -11 -11 -9 6 -10 4 -3
-6 5 -8 9 -190 9 -405 0 -313 -2 -391 -12 -387 -7 3 -13 0 -13 -6 0 -6 3 -10
8 -10 18 3 32 -2 32 -11 0 -5 -8 -7 -17 -3 -12 3 -10 0 5 -11 13 -10 19 -22
15 -29 -4 -7 1 -5 12 3 10 8 20 14 22 13 5 -4 5 6 0 20 -4 9 -6 9 -6 -1 -1 -7
-5 -10 -11 -7 -22 13 -8 20 45 22 59 2 68 -4 34 -26 -19 -11 -21 -11 -17 1 4
9 -1 14 -13 14 -12 0 -15 -4 -9 -11 6 -7 5 -17 -3 -25 -10 -12 -9 -12 6 -1 14
11 17 11 17 0 0 -9 3 -10 8 -4 11 16 38 11 34 -5 -3 -11 1 -10 16 3 22 20 36
23 26 5 -4 -7 2 -5 13 5 11 9 22 14 26 11 3 -3 16 4 29 16 13 13 17 20 11 16
-15 -8 -18 10 -3 19 6 3 10 12 10 18 0 9 -2 9 -8 0 -4 -6 -7 51 -7 128 0 107
3 138 13 134 16 -6 15 0 -4 19 -20 20 -10 36 19 29 16 -3 18 -2 9 5 -11 7 -11
10 2 15 10 4 13 13 9 24 -6 16 -5 17 12 3 11 -9 16 -10 11 -2 -4 6 -2 12 3 12
6 0 11 -6 11 -12 0 -10 3 -9 9 1 7 11 10 9 16 -9 6 -20 9 -21 16 -8 5 9 17 15
26 14 16 -3 18 -20 18 -194 0 -105 -2 -189 -5 -187 -3 2 -7 -5 -7 -16 -2 -16
0 -17 12 -6 15 16 115 22 115 8 0 -5 -22 -11 -49 -13 -28 -1 -47 1 -44 6 4 5
1 6 -5 2 -17 -10 -15 -29 3 -22 8 3 22 -3 32 -12 16 -16 16 -16 10 1 -6 15 -3
17 13 12 12 -4 26 1 37 12 23 23 88 29 96 10 4 -10 -4 -14 -24 -14 -15 0 -26
3 -24 7 2 4 -2 7 -10 7 -23 0 -26 -26 -3 -38 11 -6 18 -7 15 -2 -4 5 7 10 23
10 25 0 28 -3 17 -15 -11 -13 -9 -14 11 -1 12 8 18 15 12 17 -6 2 -8 8 -5 12
3 5 13 7 23 4 14 -5 15 -4 2 5 -8 5 -11 13 -7 17 3 4 15 1 24 -7 17 -13 17
-13 3 5 -11 14 -15 51 -15 153 -1 75 3 137 9 140 5 4 6 1 1 -7 -6 -9 -4 -11 5
-5 11 7 10 10 -1 19 -10 7 -15 34 -16 81 -1 39 -3 79 -6 90 -2 11 1 23 7 27 7
5 5 8 -6 8 -12 0 -16 6 -13 20 3 13 0 18 -7 14 -7 -5 -9 -1 -5 9 4 10 2 16 -6
14 -7 -1 -10 5 -9 13 2 8 0 12 -4 8 -3 -4 -18 1 -32 12 -52 42 -166 53 -237
25 -20 -9 -86 -54 -95 -67 -9 -12 -5 267 4 281 6 10 6 12 -2 7 -7 -4 -12 -1
-12 8 0 14 -18 16 -120 16 -66 0 -121 -3 -121 -7z m389 -429 c24 -16 21 -37
-3 -27 -9 3 -15 -1 -15 -8 -1 -10 -3 -9 -10 2 -7 12 -21 16 -45 14 -40 -2 -55
-12 -36 -24 10 -6 9 -10 -5 -15 -9 -3 -19 -4 -22 -1 -9 9 18 56 28 50 6 -3 10
-1 10 5 0 7 7 9 16 6 8 -3 12 -2 9 4 -10 16 48 12 73 -6z m-178 -439 c0 -5 5
-3 11 5 7 10 9 11 7 2 -2 -8 -8 -14 -13 -14 -6 0 -16 -5 -24 -11 -11 -9 -13
-9 -8 -1 4 7 0 15 -9 18 -8 3 -13 2 -10 -3 3 -5 -1 -14 -8 -20 -17 -14 -29 0
-20 23 7 19 74 20 74 1z"/>
<path d="M2870 2631 c0 -6 4 -12 8 -15 5 -3 9 1 9 9 0 8 -4 15 -9 15 -4 0 -8
-4 -8 -9z"/>
<path d="M3845 3050 c-10 -11 -22 -17 -28 -13 -6 3 -7 1 -3 -6 4 -6 1 -14 -8
-17 -8 -3 -24 -21 -36 -40 -13 -23 -25 -33 -33 -28 -6 4 -9 4 -5 -1 8 -9 -51
-71 -65 -67 -4 1 -6 -2 -3 -7 8 -12 -58 -83 -68 -74 -4 5 -6 1 -4 -7 2 -8 -3
-14 -10 -12 -6 1 -11 -4 -10 -10 2 -7 -3 -12 -10 -10 -6 1 -11 -4 -10 -10 2
-7 -3 -12 -10 -10 -8 1 -11 -2 -8 -7 7 -11 -76 -101 -92 -101 -6 0 -9 -11 -6
-26 3 -15 1 -23 -5 -20 -5 4 -12 2 -16 -3 -3 -6 5 -8 20 -5 20 3 23 1 18 -12
-4 -12 -3 -15 5 -10 6 4 25 -6 42 -21 54 -50 59 -53 74 -47 9 3 16 10 16 15 0
5 27 37 59 72 51 53 61 59 67 43 4 -11 2 -21 -7 -27 -11 -7 -10 -9 4 -9 10 0
16 -4 12 -9 -3 -5 -1 -12 4 -16 7 -3 7 -15 1 -29 -10 -28 -2 -40 15 -26 14 12
48 2 40 -11 -3 -4 -12 -6 -19 -3 -8 3 -17 1 -20 -4 -6 -11 40 -9 51 1 3 4 20
-1 37 -10 17 -9 50 -15 73 -14 24 0 43 -3 43 -8 0 -5 -11 -8 -24 -5 -14 2 -28
-1 -32 -7 -4 -8 -9 -7 -15 2 -7 12 -9 11 -9 0 0 -12 -3 -11 -12 2 -12 16 -13
15 -15 -9 0 -17 2 -22 7 -14 6 10 9 9 13 -1 5 -12 6 -12 6 0 1 11 4 11 18 0
10 -8 14 -9 10 -2 -5 8 0 11 13 10 11 -1 20 -6 20 -11 0 -5 7 -1 15 10 15 19
15 19 8 0 -5 -16 -3 -18 11 -13 10 4 21 7 24 7 4 0 1 4 -7 9 -8 5 -16 17 -17
25 -2 14 3 18 22 15 4 0 11 5 15 13 7 10 9 8 9 -6 0 -11 -5 -16 -13 -13 -8 3
-14 -1 -14 -8 0 -8 7 -11 15 -7 9 3 13 1 9 -5 -3 -5 0 -10 8 -10 12 0 12 3 2
16 -10 12 -9 14 6 8 10 -4 16 -3 13 2 -3 4 6 14 19 21 13 7 22 17 19 22 -3 4
-1 8 5 8 5 0 11 -3 14 -7 2 -5 2 -2 1 4 -2 7 5 17 16 23 12 7 17 16 13 27 -5
12 -3 14 7 8 8 -5 11 -4 6 3 -3 6 1 15 10 20 9 5 16 13 16 18 0 5 5 8 10 6 6
-2 4 8 -6 22 -19 30 -20 36 -5 36 5 0 7 -4 4 -10 -3 -6 1 -7 10 -3 13 4 14 8
4 14 -7 4 -14 15 -15 24 -2 12 3 14 19 10 19 -5 20 -5 4 5 -14 9 -15 15 -6 32
6 12 7 18 1 14 -15 -9 -24 25 -11 40 10 12 8 13 -6 8 -13 -5 -16 -4 -11 4 4 7
2 12 -4 12 -7 0 -9 7 -6 17 4 10 4 14 0 10 -4 -4 -18 5 -31 19 -12 14 -23 22
-23 19 0 -3 -10 1 -23 9 -12 8 -39 16 -59 18 -38 2 -43 12 -20 37 11 11 9 16
-11 30 -13 9 -41 33 -62 54 -43 43 -46 44 -70 17z m105 -229 c0 -5 9 -11 20
-14 26 -7 26 -22 0 -24 -13 -1 -18 2 -13 10 4 7 -2 5 -12 -3 -17 -14 -18 -13
-12 3 5 13 3 17 -5 14 -7 -2 -12 -9 -11 -15 2 -6 -4 -9 -12 -5 -13 4 -13 8 -3
22 12 14 11 14 -4 3 -9 -8 -14 -20 -11 -28 6 -16 -17 -16 -29 1 -5 6 -8 6 -8
-2 0 -13 17 -26 37 -29 7 -1 11 2 10 8 -4 18 32 17 43 0 5 -10 10 -12 10 -4 0
20 16 14 27 -10 8 -18 6 -29 -9 -51 -11 -15 -24 -24 -30 -21 -7 4 -8 2 -4 -4
7 -12 -27 -34 -62 -40 -17 -2 -21 1 -16 9 4 8 3 9 -5 5 -14 -9 -39 14 -34 31
3 7 12 9 21 6 13 -4 14 -3 3 5 -12 8 -11 13 1 31 8 11 18 18 23 13 4 -4 2 3
-6 15 -14 23 -34 21 -25 -4 3 -8 1 -11 -4 -8 -6 4 -7 -2 -4 -12 5 -15 4 -16
-6 -3 -9 12 -10 11 -5 -7 3 -12 2 -24 -4 -27 -18 -11 -5 51 16 78 12 15 24 27
27 27 3 -1 15 8 26 19 20 20 70 28 70 11z m47 -66 c0 -20 -4 -19 -17 5 -8 15
-8 18 3 14 8 -3 14 -11 14 -19z m148 -142 c-11 -7 -15 -13 -9 -13 5 0 1 -7
-10 -15 -10 -8 -16 -21 -13 -29 4 -11 1 -13 -10 -9 -11 4 -14 2 -9 -5 4 -7 -3
-16 -18 -23 -14 -7 -23 -16 -20 -20 2 -4 -5 -13 -17 -19 -18 -10 -20 -9 -17 6
1 9 18 24 35 34 18 9 30 19 28 22 -3 3 7 18 22 34 15 16 26 31 26 34 -2 15 10
29 20 23 6 -4 3 -11 -8 -20z m-385 -87 c0 -2 -7 -9 -15 -16 -13 -11 -14 -10
-9 4 5 14 24 23 24 12z"/>
<path d="M3154 3008 c-4 -5 -3 -12 0 -15 3 -4 6 -1 6 6 0 7 5 9 10 6 8 -5 7
-11 0 -20 -10 -11 -8 -13 9 -10 23 4 29 -10 9 -18 -7 -3 -3 -4 9 -4 17 1 20 5
12 19 -5 9 -14 20 -19 23 -6 4 -8 10 -6 14 3 4 -2 8 -10 8 -8 0 -17 -4 -20 -9z"/>
<path d="M2493 2988 c-2 -18 0 -20 7 -8 12 18 13 30 2 30 -4 0 -9 -10 -9 -22z"/>
<path d="M2776 2947 c3 -10 9 -15 12 -12 3 3 0 11 -7 18 -10 9 -11 8 -5 -6z"/>
<path d="M3385 2951 c-3 -6 -3 -11 2 -11 4 0 2 -4 -6 -9 -10 -7 -7 -9 11 -8
16 1 25 7 23 16 -2 19 -21 26 -30 12z"/>
<path d="M2493 2920 c0 -23 3 -28 9 -16 5 9 5 23 0 32 -6 12 -9 7 -9 -16z"/>
<path d="M1063 2854 c-18 -14 -33 -23 -33 -20 0 3 -12 -6 -26 -19 -15 -14 -31
-22 -37 -18 -6 3 -7 1 -3 -5 4 -7 1 -12 -6 -12 -9 0 -9 -3 2 -10 8 -5 11 -10
5 -10 -5 0 -3 -4 5 -10 12 -8 12 -10 -3 -16 -9 -3 -17 -11 -17 -16 0 -6 7 -4
16 3 14 11 19 10 33 -8 9 -12 27 -36 41 -54 41 -53 41 -55 4 -57 -54 -3 -64
-5 -64 -13 0 -4 -10 -11 -22 -14 -18 -6 -38 -24 -77 -71 -5 -7 -7 -15 -4 -18
4 -3 1 -6 -5 -6 -7 0 -11 -3 -11 -7 4 -22 -2 -33 -13 -27 -9 6 -9 3 0 -9 8 -9
11 -21 7 -26 -3 -6 -1 -20 6 -32 6 -12 7 -19 2 -16 -4 3 -14 -2 -22 -10 -12
-13 -11 -14 10 -8 22 7 23 6 10 -9 -12 -14 -12 -19 -2 -26 11 -6 11 -9 0 -14
-8 -3 -5 -4 7 -1 13 3 27 -2 39 -15 10 -11 16 -20 13 -20 -9 0 79 -84 104 -99
13 -8 36 -17 52 -20 28 -6 50 -31 26 -31 -6 0 -9 4 -6 8 2 4 -4 9 -15 9 -10 1
-19 -3 -19 -10 0 -6 -7 -2 -16 9 -8 10 -12 13 -8 5 5 -9 3 -12 -5 -7 -6 4 -9
11 -6 15 2 5 -7 13 -20 19 -14 7 -25 16 -25 22 0 5 -6 9 -12 8 -7 -2 -12 3
-10 10 1 8 -2 11 -9 6 -8 -4 -9 -3 -5 5 4 6 4 11 -1 10 -4 -1 -15 -1 -23 0
-13 1 -13 2 0 11 10 6 11 10 3 10 -7 0 -16 0 -20 0 -4 0 -8 -6 -9 -15 -1 -8 2
-13 7 -10 5 4 20 -5 34 -19 14 -15 29 -26 34 -26 13 0 52 -41 47 -49 -3 -4 0
-8 7 -8 23 -1 41 -8 57 -23 8 -9 12 -11 8 -6 -13 16 -9 29 5 18 14 -12 35 -11
56 2 11 7 13 5 8 -10 -7 -18 -6 -18 7 -1 10 14 15 15 19 5 4 -11 6 -11 6 0 1
7 6 10 13 6 7 -4 8 -3 4 4 -4 6 5 18 21 27 15 8 21 15 13 14 -37 -3 -38 3 -6
32 21 18 41 28 48 23 10 -5 10 -4 1 6 -14 15 2 55 18 45 5 -4 9 -2 9 4 0 5 -5
11 -12 13 -8 3 -8 9 0 24 11 18 12 18 18 -3 5 -17 13 -22 31 -21 14 2 27 8 30
15 3 6 11 9 19 6 8 -3 11 -9 8 -14 -3 -5 -10 -6 -16 -3 -7 5 -8 2 -3 -7 5 -8
5 -11 0 -7 -4 4 -15 2 -23 -5 -13 -10 -14 -9 -7 2 5 9 4 12 -3 7 -12 -7 -5
-36 8 -36 4 0 15 9 24 19 10 11 25 17 34 14 15 -4 15 -3 2 6 -8 6 -13 11 -10
12 49 9 52 11 57 37 9 45 9 61 2 56 -5 -3 -9 -1 -9 4 0 5 -11 22 -25 38 -14
16 -25 35 -25 42 0 6 -5 12 -11 12 -6 0 -8 7 -5 16 3 8 2 13 -3 10 -12 -8 -34
21 -27 33 4 5 1 13 -5 17 -8 5 -9 3 -4 -6 5 -9 4 -11 -3 -6 -7 4 -12 13 -12
21 0 7 -7 15 -15 19 -8 3 -15 12 -15 21 0 8 -4 15 -10 15 -5 0 -10 4 -10 9 0
6 -11 22 -25 37 -13 14 -22 30 -20 35 3 4 -3 12 -12 18 -10 6 -15 11 -11 11 3
0 -7 14 -23 31 -16 17 -29 35 -29 40 0 5 -9 19 -20 31 -10 13 -19 27 -19 32 1
8 -20 26 -31 26 -3 0 -20 -12 -37 -26z m111 -389 c18 -19 33 -41 34 -48 1 -6
3 -27 5 -44 9 -65 -59 -97 -104 -50 -12 12 -19 16 -15 10 4 -7 5 -13 2 -13 -3
0 -10 9 -16 21 -9 15 -8 24 2 37 12 15 11 16 -4 3 -16 -12 -19 -10 -26 10 -16
43 -9 83 18 96 42 21 70 15 104 -22z m290 -123 c-6 -4 -10 -15 -9 -24 2 -9 -4
-19 -12 -22 -11 -5 -14 -2 -9 11 5 15 4 15 -9 -1 -9 -12 -15 -14 -15 -7 0 14
39 50 55 51 6 0 5 -4 -1 -8z m-579 -22 c3 -5 2 -10 -4 -10 -5 0 -13 5 -16 10
-3 6 -2 10 4 10 5 0 13 -4 16 -10z m318 -184 c8 5 8 2 0 -6 -16 -18 -43 -22
-43 -7 0 7 -4 6 -9 -2 -12 -19 -41 -23 -35 -6 6 16 32 27 44 20 5 -3 12 0 16
7 6 9 9 9 12 0 2 -7 9 -9 15 -6z"/>
<path d="M1110 2481 c0 -6 -9 -8 -20 -6 -11 2 -18 0 -15 -5 3 -5 -2 -13 -10
-18 -15 -8 -15 -10 0 -22 8 -7 18 -10 22 -6 3 3 1 6 -5 6 -7 0 -12 5 -12 11 0
6 7 9 14 6 11 -4 13 -1 9 11 -6 15 -5 16 13 2 10 -8 22 -19 26 -25 5 -6 8 -5
8 3 0 7 5 10 10 7 6 -4 7 -11 4 -17 -4 -6 -2 -8 3 -5 6 4 17 -1 24 -10 12 -15
12 -16 -6 -9 -15 5 -17 4 -8 -5 13 -13 32 -5 29 14 -3 21 -17 38 -26 32 -5 -3
-16 7 -24 22 -11 20 -15 23 -16 11 0 -10 -4 -18 -10 -18 -5 0 -7 7 -4 15 4 8
3 15 0 15 -3 0 -6 -4 -6 -9z"/>
<path d="M1057 2405 c3 -8 9 -12 14 -9 12 7 11 11 -5 17 -10 4 -13 1 -9 -8z"/>
<path d="M1192 2381 c-11 -7 -11 -9 0 -14 9 -3 15 1 15 9 0 8 -1 14 -1 14 -1
0 -7 -4 -14 -9z"/>
<path d="M2490 2861 c0 -6 4 -13 10 -16 6 -3 7 1 4 9 -7 18 -14 21 -14 7z"/>
<path d="M2779 2868 c-5 -18 -6 -38 -1 -34 7 8 12 36 6 36 -2 0 -4 -1 -5 -2z"/>
<path d="M2020 2838 c0 -5 -7 -8 -15 -8 -9 0 -33 -9 -54 -20 -21 -10 -41 -17
-44 -14 -3 3 -8 0 -13 -7 -5 -8 -3 -10 6 -4 9 5 11 4 6 -3 -8 -13 -37 -17 -35
-4 1 4 1 17 0 30 -1 21 -4 22 -108 22 -105 0 -108 -1 -120 -25 -6 -14 -8 -27
-4 -30 5 -2 8 -18 9 -35 1 -26 -3 -30 -16 -26 -15 5 -15 4 -2 -6 8 -7 16 -28
18 -47 2 -28 0 -32 -15 -27 -16 5 -16 4 -3 -6 8 -7 16 -28 18 -47 2 -28 0 -32
-15 -27 -16 5 -16 4 -3 -6 8 -7 16 -28 18 -47 2 -28 0 -32 -15 -27 -15 5 -15
4 1 -9 18 -14 15 -19 -9 -16 -5 1 -3 -4 5 -11 11 -9 16 -31 15 -75 0 -48 -3
-59 -13 -51 -9 8 -11 7 -6 -6 3 -9 9 -16 13 -16 4 0 7 -9 8 -19 1 -15 -3 -18
-15 -14 -13 4 -12 2 3 -10 16 -13 17 -17 5 -18 -8 -1 -19 -1 -23 0 -5 1 -6 -3
-2 -8 3 -6 13 -7 23 -4 15 6 15 5 3 -10 -11 -14 -11 -17 0 -17 11 0 11 -2 -1
-10 -10 -6 -11 -10 -2 -10 6 0 12 -5 12 -11 0 -5 -4 -7 -10 -4 -5 3 -10 1 -10
-4 0 -6 4 -11 9 -11 5 0 9 -18 8 -39 -2 -30 -5 -37 -15 -29 -9 8 -11 7 -6 -6
3 -9 9 -16 13 -16 4 0 7 -9 8 -19 1 -14 -3 -18 -15 -15 -14 5 -14 3 1 -6 17
-11 17 -13 1 -24 -21 -16 -23 -15 129 -19 105 -2 120 0 128 16 5 9 7 17 3 17
-3 0 -1 7 6 15 9 10 9 15 1 15 -6 0 -11 5 -11 11 0 6 8 8 18 5 15 -5 15 -4 2
6 -26 22 -14 108 12 92 7 -4 8 -2 4 4 -4 6 -12 9 -19 6 -8 -3 -13 12 -14 51
-2 52 -1 55 17 45 22 -12 28 -45 7 -37 -8 3 -14 -1 -14 -8 0 -7 6 -11 13 -8 6
2 15 -1 20 -8 5 -9 2 -10 -9 -6 -9 3 -19 2 -21 -2 -3 -4 9 -7 27 -6 18 1 45
-5 61 -13 19 -9 26 -10 21 -2 -5 8 -3 11 6 8 8 -3 13 -12 11 -19 -3 -9 2 -9
15 3 14 13 22 14 37 6 14 -8 17 -7 12 1 -4 6 -2 11 3 11 6 0 11 -5 11 -11 0
-7 7 -8 18 -4 9 4 22 8 29 8 7 0 11 5 10 10 -1 5 4 12 12 15 8 2 11 0 8 -5 -3
-5 0 -10 8 -10 8 0 12 4 9 8 -2 4 2 9 8 12 10 3 10 8 -1 18 -10 11 -15 11 -18
1 -3 -6 -9 -10 -14 -6 -5 3 -9 0 -9 -5 0 -6 -6 -10 -12 -9 -7 2 -12 -3 -11 -9
3 -13 -31 -13 -43 0 -11 11 -26 8 -19 -3 3 -5 1 -10 -4 -10 -6 0 -11 4 -11 9
0 5 -22 8 -49 6 -39 -2 -49 0 -44 11 5 14 43 20 43 7 0 -5 25 -8 55 -8 30 0
55 2 55 5 0 3 20 12 44 19 42 12 131 90 131 115 0 5 7 11 15 13 10 3 11 2 4
-4 -6 -4 -10 -16 -8 -26 1 -10 -2 -14 -8 -11 -7 5 -8 2 -3 -6 6 -9 4 -11 -5
-5 -9 6 -11 4 -5 -5 6 -9 4 -11 -5 -5 -9 6 -11 4 -5 -5 6 -9 4 -11 -5 -5 -9 6
-11 4 -5 -5 6 -9 4 -11 -5 -5 -9 6 -11 4 -5 -5 6 -9 4 -11 -5 -5 -9 6 -11 4
-5 -5 6 -9 4 -11 -5 -5 -9 6 -11 4 -5 -5 6 -9 4 -11 -5 -5 -9 6 -11 4 -5 -5 6
-9 4 -11 -5 -5 -9 5 -11 4 -6 -4 4 -6 11 -9 16 -6 4 3 11 -1 14 -7 3 -7 4 -4
3 7 -1 12 3 19 11 17 6 -1 11 3 10 10 -2 7 3 12 10 13 6 0 12 5 13 10 1 18 21
35 33 28 7 -5 7 -2 -1 8 -7 9 -8 20 -3 29 5 8 6 19 2 25 -12 19 -10 35 5 35
13 0 14 -2 2 -17 -13 -16 -12 -17 3 -4 10 7 16 17 13 21 -3 5 -2 10 2 13 5 2
3 2 -4 1 -17 -4 -27 14 -16 29 5 7 9 41 8 77 -1 36 4 68 9 72 7 5 4 8 -6 8
-10 0 -18 7 -18 16 0 8 5 12 10 9 16 -10 11 7 -6 19 -8 6 -16 18 -18 26 -1 8
-8 25 -14 38 -7 12 -10 22 -8 22 3 0 -6 11 -20 25 -14 14 -22 30 -18 37 4 6 3
8 -4 4 -6 -3 -17 0 -25 8 -31 31 -207 68 -207 44z m37 -183 c15 -13 23 -25 16
-25 -6 0 -15 5 -18 10 -5 8 -12 7 -22 -2 -14 -11 -15 -10 -9 12 6 19 5 21 -3
10 -6 -9 -11 -10 -11 -3 0 6 -8 10 -17 8 -11 -1 -17 -9 -15 -19 3 -15 0 -16
-18 -6 -17 9 -25 9 -34 0 -8 -8 -7 -10 5 -5 10 4 16 0 16 -10 0 -10 -7 -14
-21 -10 -12 3 -15 2 -8 -1 9 -4 10 -9 2 -19 -8 -9 -8 -15 0 -20 6 -4 9 -1 8 7
-2 7 3 12 10 11 11 -3 16 9 13 30 -2 12 17 8 22 -5 4 -8 8 -4 12 10 9 27 29
30 22 2 -4 -16 -2 -18 13 -10 13 7 21 7 25 0 4 -6 15 -8 25 -5 14 4 19 1 19
-12 1 -10 2 -46 4 -80 2 -42 0 -60 -8 -57 -6 3 -11 -6 -12 -18 -2 -18 0 -20 7
-8 6 9 10 10 10 3 0 -6 -5 -15 -10 -18 -6 -4 -8 -10 -5 -14 2 -5 -4 -16 -15
-26 -24 -22 -86 -28 -104 -10 -7 8 -16 11 -20 8 -3 -4 -6 -1 -6 6 0 7 -7 19
-15 27 -21 22 -19 40 3 23 9 -7 6 -1 -7 14 -20 22 -22 29 -11 42 7 8 8 15 3
15 -5 0 -9 11 -9 24 0 21 3 23 21 15 18 -9 17 -8 -3 10 -14 12 -18 22 -12 26
6 4 9 12 7 18 -7 20 13 48 46 62 47 21 72 18 104 -10z m-87 -450 c0 -22 -17
-26 -31 -8 -12 14 -12 16 0 8 11 -6 13 -4 8 8 -4 11 -2 14 9 10 7 -3 14 -11
14 -18z m90 -31 c0 -8 -19 -13 -24 -6 -3 5 1 9 9 9 8 0 15 -2 15 -3z"/>
<path d="M2060 2595 c-7 -9 -10 -18 -6 -22 3 -3 6 0 6 8 0 12 2 12 9 0 5 -8 8
-23 6 -33 -2 -10 0 -16 5 -13 5 3 6 15 4 28 -3 12 -6 28 -6 35 -2 15 -3 15
-18 -3z"/>
<path d="M2046 2398 c3 -5 10 -6 15 -3 13 9 11 12 -6 12 -8 0 -12 -4 -9 -9z"/>
<path d="M2490 2821 c0 -6 4 -12 8 -15 5 -3 9 1 9 9 0 8 -4 15 -9 15 -4 0 -8
-4 -8 -9z"/>
<path d="M2782 2800 c0 -14 2 -19 5 -12 2 6 2 18 0 25 -3 6 -5 1 -5 -13z"/>
<path d="M2493 2760 c0 -23 3 -28 9 -16 5 9 5 23 0 32 -6 12 -9 7 -9 -16z"/>
<path d="M1623 2752 c-8 -14 -8 -19 1 -19 7 0 13 9 13 19 1 10 1 18 0 18 -1 0
-7 -8 -14 -18z"/>
<path d="M4445 2739 c5 -8 -34 -45 -44 -41 -3 1 -6 -1 -6 -5 0 -15 -17 -33
-25 -28 -5 3 -12 0 -16 -6 -5 -8 -3 -9 6 -4 8 5 11 3 8 -6 -3 -8 -11 -13 -17
-11 -6 1 -10 -2 -8 -6 1 -5 -24 -34 -56 -65 -32 -32 -55 -57 -51 -57 3 0 1 -7
-6 -15 -7 -8 -16 -12 -21 -9 -5 3 -8 0 -7 -8 2 -7 -3 -12 -9 -11 -7 2 -12 -3
-10 -10 1 -6 -4 -11 -10 -10 -7 2 -13 -3 -13 -11 0 -7 -11 -22 -25 -32 -14
-10 -25 -23 -25 -29 0 -5 -18 -28 -40 -49 l-41 -39 46 -47 c25 -25 42 -50 38
-55 -5 -4 0 -5 9 -2 10 4 21 0 26 -9 7 -12 12 -10 32 11 13 14 30 25 37 25 8
0 12 4 9 8 -8 14 127 150 157 157 42 11 77 -16 72 -56 -4 -35 -29 -77 -51 -86
-8 -3 -14 -9 -14 -15 0 -12 -52 -64 -62 -60 -4 1 -7 -1 -6 -5 2 -5 -14 -26
-35 -48 -30 -32 -34 -41 -22 -48 31 -17 114 -100 109 -108 -10 -16 -23 -9 -18
9 5 15 4 15 -6 2 -10 -13 -11 -12 -6 3 4 12 2 16 -6 11 -7 -5 -8 -3 -3 6 6 9
4 11 -5 5 -9 -6 -11 -4 -5 5 5 9 4 11 -3 6 -7 -4 -12 -2 -12 4 0 6 -5 8 -12 4
-6 -4 -8 -3 -5 4 5 6 0 8 -13 5 -11 -3 -20 -10 -20 -15 0 -5 4 -7 9 -4 14 9
42 -5 34 -17 -4 -6 -1 -7 6 -3 8 5 14 0 18 -13 3 -12 9 -21 13 -21 5 0 16 -7
24 -16 9 -8 16 -11 16 -5 0 6 5 11 11 11 5 0 7 -6 3 -12 -4 -7 4 -3 18 10 13
12 27 20 30 17 3 -3 11 2 19 12 12 14 12 15 0 9 -9 -6 -12 -5 -9 5 3 8 10 13
16 12 10 -3 47 37 54 58 3 9 22 16 53 18 6 1 4 5 -4 10 -8 5 -21 7 -29 3 -11
-4 -13 -1 -7 8 5 9 4 11 -4 6 -6 -4 -9 -10 -7 -14 2 -4 -2 -16 -10 -27 -9 -12
-14 -14 -14 -5 0 8 -11 -1 -25 -20 -14 -19 -30 -37 -36 -41 -6 -3 -11 -10 -12
-15 -1 -5 -6 -8 -10 -6 -5 1 -5 -3 -1 -9 5 -8 3 -9 -6 -4 -9 6 -11 4 -5 -5 6
-9 4 -11 -5 -5 -9 6 -4 16 19 39 17 17 41 43 52 59 11 15 25 25 30 22 5 -4 9
0 9 8 0 8 16 29 35 46 19 17 35 35 35 40 0 5 9 9 19 8 11 0 17 -5 15 -9 -3 -5
-10 -6 -15 -3 -5 4 -9 2 -9 -4 0 -5 5 -13 10 -16 6 -3 10 -1 10 5 0 6 5 8 12
4 6 -4 8 -3 4 4 -3 6 0 17 9 25 13 13 13 16 -1 21 -8 3 -12 2 -9 -4 3 -6 -2
-10 -11 -10 -15 0 -13 5 10 29 15 16 27 32 26 36 -1 4 2 10 6 13 4 4 4 2 1 -4
-4 -7 -1 -14 6 -17 7 -3 12 4 12 18 0 13 -3 21 -7 19 -4 -2 -9 0 -13 6 -3 5
-1 10 6 10 8 0 7 5 -2 17 -12 14 -12 15 -1 9 12 -7 12 -4 1 15 -7 13 -12 30
-10 38 1 7 -2 10 -8 6 -6 -3 -11 -1 -11 5 0 20 -103 94 -114 83 -3 -4 -6 -2
-6 4 0 7 -14 9 -36 6 l-36 -5 48 51 c26 28 53 51 59 51 5 0 2 -7 -9 -15 -10
-7 -15 -18 -12 -23 3 -5 -3 -12 -14 -15 -11 -3 -20 -13 -19 -24 0 -10 3 -13 6
-5 2 6 10 9 15 6 7 -5 8 -2 3 6 -6 10 -4 12 11 6 10 -4 15 -4 12 0 -10 9 15
33 27 26 6 -3 4 1 -2 10 -15 17 -7 29 14 21 10 -4 14 0 11 13 -2 13 2 18 12
16 12 -3 13 -1 3 9 -15 15 -17 43 -3 34 19 -12 -1 21 -22 36 -11 7 -39 31 -60
51 -22 20 -48 36 -58 35 -10 -1 -17 -4 -15 -8z m136 -153 c-6 -7 -8 -15 -5
-19 3 -3 -2 -4 -13 -2 -10 2 -20 4 -22 4 -2 1 4 10 14 21 19 21 43 17 26 -4z
m-91 -581 c-7 -9 -15 -13 -18 -10 -3 2 1 11 8 20 7 9 15 13 18 10 3 -2 -1 -11
-8 -20z"/>
<path d="M4559 2583 c-13 -16 -12 -17 4 -4 16 13 21 21 13 21 -2 0 -10 -8 -17
-17z"/>
<path d="M974 2708 c-4 -6 -2 -14 5 -16 9 -3 9 -8 -1 -20 -11 -15 -11 -15 4
-4 11 9 18 10 23 2 3 -5 0 -10 -7 -10 -8 0 -6 -5 5 -11 9 -6 14 -15 11 -21 -4
-7 -2 -8 4 -4 7 4 12 3 12 -2 0 -5 7 -9 16 -9 14 0 14 2 -2 14 -11 8 -18 17
-17 21 1 4 -6 17 -17 29 -10 12 -16 23 -14 26 3 3 1 8 -5 11 -5 4 -13 1 -17
-6z"/>
<path d="M2490 2701 c0 -6 4 -13 10 -16 6 -3 7 1 4 9 -7 18 -14 21 -14 7z"/>
<path d="M1625 2683 c3 -3 0 -11 -5 -18 -7 -8 -5 -12 4 -12 14 0 16 22 3 32
-4 3 -5 2 -2 -2z"/>
<path d="M2490 2661 c0 -6 4 -12 8 -15 5 -3 9 1 9 9 0 8 -4 15 -9 15 -4 0 -8
-4 -8 -9z"/>
<path d="M2493 2600 c0 -23 3 -28 9 -16 5 9 5 23 0 32 -6 12 -9 7 -9 -16z"/>
<path d="M1625 2603 c3 -3 0 -11 -5 -18 -7 -8 -5 -12 4 -12 14 0 16 22 3 32
-4 3 -5 2 -2 -2z"/>
<path d="M3674 2589 c-3 -6 -1 -15 6 -19 9 -5 8 -9 -4 -13 -8 -3 -17 -1 -20 6
-2 7 -5 2 -5 -11 -1 -13 -5 -21 -10 -17 -11 6 -43 -23 -37 -33 5 -9 -15 -26
-34 -29 -9 -2 -35 15 -59 37 -23 22 -44 40 -46 40 -2 0 -1 -10 2 -22 8 -34 42
-67 64 -63 10 2 19 -1 19 -7 0 -7 6 -6 15 2 15 13 21 2 8 -16 -5 -5 0 0 11 11
10 11 24 19 30 17 6 -2 8 -1 4 3 -9 9 23 45 34 39 5 -3 7 0 6 8 -2 7 3 12 10
10 8 -1 11 2 7 9 -5 7 3 9 26 5 l34 -5 -25 21 c-14 11 -24 25 -22 29 3 13 -6
11 -14 -2z m-34 -63 c0 -2 -8 -10 -17 -17 -16 -13 -17 -12 -4 4 13 16 21 21
21 13z m-121 -35 c17 -13 19 -18 7 -18 -9 0 -23 9 -33 19 -21 23 -5 23 26 -1z"/>
<path d="M2900 2576 c0 -2 7 -9 15 -16 9 -7 15 -8 15 -2 0 5 -7 12 -15 16 -8
3 -15 4 -15 2z"/>
<path d="M2490 2541 c0 -6 4 -13 10 -16 6 -3 7 1 4 9 -7 18 -14 21 -14 7z"/>
<path d="M2909 2523 c-13 -16 -12 -17 4 -4 9 7 17 15 17 17 0 8 -8 3 -21 -13z"/>
<path d="M3197 2529 c7 -7 15 -10 18 -7 3 3 -2 9 -12 12 -14 6 -15 5 -6 -5z"/>
<path d="M3436 2532 c-3 -5 1 -9 9 -9 8 0 12 4 9 9 -3 4 -7 8 -9 8 -2 0 -6 -4
-9 -8z"/>
<path d="M1625 2523 c3 -3 0 -11 -5 -18 -7 -8 -5 -12 4 -12 14 0 16 22 3 32
-4 3 -5 2 -2 -2z"/>
<path d="M3695 2520 c-3 -5 -1 -10 4 -10 6 0 11 5 11 10 0 6 -2 10 -4 10 -3 0
-8 -4 -11 -10z"/>
<path d="M2490 2501 c0 -6 4 -12 8 -15 5 -3 9 1 9 9 0 8 -4 15 -9 15 -4 0 -8
-4 -8 -9z"/>
<path d="M3799 2473 c-1 -5 -1 -12 0 -17 1 -5 -6 -6 -15 -2 -14 5 -15 4 -4 -9
11 -13 15 -13 21 -3 8 12 13 4 10 -14 0 -5 3 -8 8 -8 14 0 20 25 10 41 -7 11
-9 11 -9 1 0 -7 -5 -10 -10 -7 -6 4 -8 11 -5 16 4 5 4 9 1 9 -3 0 -7 -3 -7 -7z"/>
<path d="M2359 2465 c-1 -3 -2 -8 -3 -12 -1 -5 -5 -14 -9 -20 -6 -9 -3 -11 7
-7 8 3 14 14 13 25 -1 18 -5 25 -8 14z"/>
<path d="M2493 2451 c0 -11 5 -18 9 -15 4 3 5 11 1 19 -7 21 -12 19 -10 -4z"/>
<path d="M3196 2462 c-2 -4 -1 -14 4 -22 7 -11 9 -9 7 8 -1 24 -3 26 -11 14z"/>
<path d="M4056 2462 c-3 -5 1 -9 9 -9 8 0 12 4 9 9 -3 4 -7 8 -9 8 -2 0 -6 -4
-9 -8z"/>
<path d="M2773 2445 c0 -8 4 -12 9 -9 5 3 6 10 3 15 -9 13 -12 11 -12 -6z"/>
<path d="M2913 2435 c0 -8 4 -12 9 -9 4 3 8 9 8 15 0 5 -4 9 -8 9 -5 0 -9 -7
-9 -15z"/>
<path d="M1626 2407 c3 -10 9 -15 12 -12 3 3 0 11 -7 18 -10 9 -11 8 -5 -6z"/>
<path d="M833 2385 c0 -8 4 -12 9 -9 5 3 6 10 3 15 -9 13 -12 11 -12 -6z"/>
<path d="M2776 2387 c3 -10 9 -15 12 -12 3 3 0 11 -7 18 -10 9 -11 8 -5 -6z"/>
<path d="M1625 2371 c-3 -5 -2 -12 3 -15 5 -3 9 1 9 9 0 17 -3 19 -12 6z"/>
<path d="M656 2355 c-10 -8 -24 -12 -30 -8 -6 3 -8 3 -4 -2 7 -7 -32 -45 -46
-45 -4 0 -17 -9 -29 -20 -17 -16 -19 -23 -9 -29 8 -5 13 -11 13 -15 -3 -20 0
-26 11 -20 7 4 8 3 4 -5 -6 -9 -11 -9 -22 0 -12 10 -13 9 -8 -5 4 -11 14 -16
25 -13 21 6 44 -17 34 -33 -3 -5 1 -10 9 -10 8 0 18 -9 21 -20 3 -11 11 -20
17 -20 6 0 0 -9 -13 -21 -13 -11 -18 -18 -11 -14 11 6 17 -7 13 -28 -1 -5 3
-6 8 -3 12 8 22 -20 14 -41 -6 -15 -5 -16 9 -3 14 13 13 18 -8 51 -18 29 -20
37 -8 35 20 -3 34 -25 26 -44 -3 -9 -1 -13 4 -9 6 3 10 -9 10 -28 0 -18 -3
-32 -7 -29 -4 2 -9 -6 -12 -17 -4 -16 -12 -20 -34 -18 -28 3 -63 25 -63 40 0
4 -11 20 -25 35 -14 15 -23 29 -21 31 2 3 -3 13 -12 23 -29 31 -42 49 -42 55
0 9 -43 55 -53 55 -5 0 -21 -9 -37 -20 -15 -11 -31 -16 -35 -12 -5 4 -5 2 -2
-4 6 -10 -11 -24 -29 -23 -3 0 -13 -10 -24 -23 -15 -19 -16 -24 -4 -31 8 -5
12 -12 9 -18 -4 -5 0 -12 9 -15 8 -3 22 -17 31 -31 10 -14 13 -23 8 -20 -5 3
-15 -4 -23 -16 -11 -19 -11 -20 1 -11 24 18 35 11 82 -51 40 -53 52 -86 26
-69 -5 3 -6 10 -3 16 5 7 2 8 -6 3 -9 -6 -11 -4 -5 5 5 9 4 11 -3 6 -8 -5 -10
-1 -6 11 5 15 4 16 -6 3 -10 -13 -11 -13 -6 3 8 24 -1 21 -15 -5 -6 -13 -8
-20 -4 -16 4 4 16 -2 27 -14 10 -12 26 -22 36 -23 9 0 27 -9 39 -20 17 -14 20
-22 11 -32 -6 -7 -16 -13 -22 -13 -6 0 -2 7 8 15 17 13 14 17 -10 14 -4 0 -10
5 -15 12 -4 8 -11 10 -16 5 -4 -4 0 -12 10 -17 9 -6 15 -14 12 -19 -11 -17 15
-20 40 -4 23 15 25 15 25 0 0 -10 -4 -15 -9 -11 -14 8 -20 -7 -10 -30 l8 -20
1 20 1 20 16 -20 c14 -18 15 -18 9 -2 -4 13 -2 17 6 14 7 -2 12 -10 10 -16 -1
-7 2 -10 8 -6 5 3 10 0 10 -7 0 -8 5 -6 11 5 6 10 15 14 22 10 7 -4 21 -9 32
-10 16 -3 17 -1 5 7 -13 8 -12 10 5 11 11 1 27 1 35 0 10 0 11 1 2 5 -6 3 -10
10 -7 14 3 5 0 12 -6 16 -7 4 -9 3 -6 -3 8 -12 -20 -26 -33 -18 -5 3 -11 1
-15 -5 -7 -12 -25 -4 -25 11 0 6 3 8 8 6 4 -3 24 3 45 13 20 10 35 15 33 12
-2 -4 5 -16 16 -27 18 -19 19 -19 12 -1 -6 15 -4 17 6 11 9 -6 11 -4 5 5 -6
10 -4 12 8 7 12 -4 14 -2 10 10 -4 11 -2 14 5 9 7 -4 12 -3 12 2 0 6 -7 12
-15 16 -8 3 -14 0 -12 -7 1 -7 -4 -11 -11 -9 -8 1 -11 -2 -8 -7 4 -5 2 -12 -4
-16 -19 -12 -9 20 15 48 26 30 46 38 24 10 -7 -10 -9 -15 -5 -11 5 4 15 3 22
-3 8 -7 14 -6 20 2 4 7 3 9 -4 5 -6 -3 -13 -2 -16 3 -10 15 19 20 37 6 14 -10
15 -14 5 -18 -8 -3 -8 -6 -2 -6 6 -1 18 7 25 16 8 9 9 14 3 10 -6 -3 -20 0
-30 8 -16 13 -17 14 -1 9 10 -4 17 -1 17 6 0 6 -4 8 -10 5 -5 -3 -10 2 -10 12
1 14 6 12 25 -12 13 -16 22 -31 20 -33 -2 -2 4 -12 13 -22 35 -38 42 -49 34
-53 -10 -7 -32 19 -24 29 4 4 1 4 -5 0 -9 -5 -11 -2 -7 8 7 18 -21 23 -31 6
-3 -5 0 -7 9 -4 11 4 14 0 11 -16 -2 -13 -2 -20 1 -17 4 3 12 0 19 -6 10 -9
10 -16 2 -27 -9 -12 -9 -13 3 -2 21 18 34 15 19 -5 -12 -16 -12 -17 2 -5 13
10 19 9 29 -3 7 -8 18 -15 24 -15 6 0 5 4 -3 9 -9 6 -10 10 -2 16 9 5 9 10 0
21 -10 12 -8 16 9 21 12 3 22 8 22 12 0 4 21 22 48 41 26 18 41 35 35 37 -7 3
-13 9 -13 15 0 5 -7 16 -16 25 -8 9 -13 22 -10 29 3 9 0 11 -11 7 -13 -5 -15
-2 -10 11 4 9 3 15 -2 12 -4 -3 -14 6 -21 19 -7 14 -17 25 -21 25 -5 0 -6 7
-2 15 3 10 1 15 -7 13 -7 -2 -15 3 -18 11 -3 9 0 11 8 6 9 -5 11 -4 6 4 -4 6
-11 9 -16 6 -12 -7 -48 47 -43 63 3 7 0 11 -7 10 -7 -2 -17 6 -23 16 -7 11
-20 29 -29 40 -18 20 -22 32 -18 51 1 6 -2 7 -6 3 -4 -4 -18 7 -30 25 -37 50
-56 75 -68 91 -10 13 -14 13 -30 1z m128 -469 c-3 -9 -10 -13 -15 -10 -5 3 -6
-2 -3 -10 3 -9 1 -16 -5 -16 -6 0 -11 9 -11 20 0 11 4 20 9 20 4 0 6 12 4 28
-5 27 -5 27 11 5 9 -12 13 -28 10 -37z m-202 -140 c13 -19 -4 -27 -22 -11 -10
9 -23 14 -29 10 -6 -3 -9 0 -5 8 6 16 44 11 56 -7z m337 -5 c8 -5 9 -11 3 -15
-5 -3 -15 1 -22 9 -14 16 -3 20 19 6z"/>
<path d="M2499 2368 c-5 -18 -6 -38 -1 -34 7 8 12 36 6 36 -2 0 -4 -1 -5 -2z"/>
<path d="M2913 2355 c0 -8 4 -12 9 -9 5 3 6 10 3 15 -9 13 -12 11 -12 -6z"/>
<path d="M3195 2361 c-3 -5 -2 -12 3 -15 5 -3 9 1 9 9 0 17 -3 19 -12 6z"/>
<path d="M4380 2359 c0 -5 -4 -7 -10 -4 -5 3 -7 0 -4 -8 3 -8 0 -18 -7 -23 -7
-4 -10 -3 -5 4 3 6 2 14 -4 17 -6 4 -10 3 -9 -2 4 -20 -2 -34 -11 -28 -16 10
-40 -14 -33 -32 4 -10 2 -14 -4 -10 -6 4 -22 -7 -36 -22 -21 -24 -23 -30 -11
-35 24 -9 26 -8 19 15 -5 14 -3 19 3 15 6 -3 16 0 24 7 7 8 19 12 26 11 7 -1
8 0 2 3 -16 8 -11 26 6 19 8 -3 12 -2 9 4 -3 5 5 14 17 21 25 13 25 13 48 -4
13 -10 13 -10 2 5 -7 9 -9 19 -5 21 11 7 35 -7 33 -19 -1 -5 4 -10 12 -12 11
-3 11 -2 0 6 -8 5 -14 13 -14 17 0 4 6 12 14 16 10 7 9 9 -4 9 -10 0 -18 5
-18 11 0 6 -9 1 -21 -12 l-20 -24 6 23 c4 12 4 22 1 22 -3 0 -6 -5 -6 -11z
m-50 -53 c0 -2 -7 -7 -16 -10 -8 -3 -12 -2 -9 4 6 10 25 14 25 6z"/>
<path d="M2776 2327 c3 -10 9 -15 12 -12 3 3 0 11 -7 18 -10 9 -11 8 -5 -6z"/>
<path d="M3197 2289 c7 -7 15 -10 18 -7 3 3 -2 9 -12 12 -14 6 -15 5 -6 -5z"/>
<path d="M880 2281 c0 -7 -5 -9 -12 -5 -10 6 -9 3 0 -8 8 -9 20 -14 29 -11 8
3 11 9 6 12 -4 3 -11 10 -15 15 -5 5 -8 4 -8 -3z"/>
<path d="M2906 2282 c-3 -5 1 -9 9 -9 8 0 12 4 9 9 -3 4 -7 8 -9 8 -2 0 -6 -4
-9 -8z"/>
<path d="M2490 2261 c0 -6 4 -13 10 -16 6 -3 7 1 4 9 -7 18 -14 21 -14 7z"/>
<path d="M4027 2250 c3 -11 10 -20 15 -20 6 0 4 -8 -3 -17 -12 -16 -12 -17 2
-5 14 10 19 8 33 -13 10 -14 12 -25 6 -25 -6 0 -8 -5 -4 -11 5 -8 9 -8 14 1 4
7 13 9 19 6 6 -4 8 -12 5 -18 -4 -6 -2 -8 4 -4 6 3 13 2 17 -3 3 -5 15 -7 28
-5 12 3 27 6 34 6 6 1 9 8 5 16 -4 11 -1 13 8 7 8 -5 11 -4 6 3 -6 10 25 35
35 29 3 -1 1 2 -3 7 -4 5 -14 4 -23 -4 -8 -7 -15 -9 -15 -4 0 4 -11 -3 -25
-16 -30 -28 -59 -36 -51 -14 3 8 2 13 -3 9 -14 -8 -42 6 -35 17 7 10 -30 54
-58 69 -13 7 -15 5 -11 -11z m62 -53 c-2 -3 -15 10 -28 27 l-24 31 28 -27 c16
-15 27 -29 24 -31z m109 -27 c-7 -11 -19 -22 -28 -25 -8 -4 -4 5 9 19 29 31
36 33 19 6z"/>
<path d="M1315 2250 c-4 -6 -11 -7 -17 -4 -6 4 -8 2 -4 -4 3 -5 0 -12 -6 -15
-7 -2 1 -4 18 -3 24 0 30 4 26 18 -5 21 -8 22 -17 8z"/>
<path d="M4642 2207 c-8 -10 -6 -13 11 -14 12 0 16 1 9 4 -6 3 -10 9 -6 14 8
14 -2 11 -14 -4z"/>
<path d="M1300 2199 c0 -5 5 -7 10 -4 6 3 10 8 10 11 0 2 -4 4 -10 4 -5 0 -10
-5 -10 -11z"/>
<path d="M916 2187 c3 -10 9 -15 12 -12 3 3 0 11 -7 18 -10 9 -11 8 -5 -6z"/>
<path d="M1239 2172 c-22 -23 -22 -24 -2 -14 16 9 23 9 26 -1 3 -7 6 -6 6 5 1
9 6 18 13 20 8 3 7 6 -3 10 -9 3 -25 -5 -40 -20z"/>
<path d="M560 2179 c-10 -6 -11 -9 -2 -9 6 0 12 -6 12 -13 0 -7 9 -18 20 -25
11 -7 20 -17 20 -23 0 -5 -5 -7 -12 -3 -7 4 -8 3 -4 -4 4 -6 13 -9 22 -5 12 4
12 8 2 22 -7 9 -19 21 -27 27 -8 6 -11 16 -7 22 9 15 -7 23 -24 11z"/>
<path d="M957 2149 c7 -7 15 -10 18 -7 3 3 -2 9 -12 12 -14 6 -15 5 -6 -5z"/>
<path d="M2060 2146 c0 -2 7 -7 16 -10 8 -3 12 -2 9 4 -6 10 -25 14 -25 6z"/>
<path d="M985 2131 c-3 -5 -2 -12 3 -15 5 -3 9 1 9 9 0 17 -3 19 -12 6z"/>
<path d="M3420 2115 c0 -14 -4 -25 -9 -25 -5 0 -12 -7 -15 -16 -3 -8 -2 -12 4
-9 5 3 7 -4 5 -16 -3 -13 -10 -26 -16 -30 -8 -5 -7 -8 2 -13 11 -5 11 -7 2
-12 -7 -3 -13 -10 -13 -15 0 -6 6 -7 13 -3 9 6 9 5 0 -8 -7 -8 -10 -18 -6 -21
3 -4 0 -13 -7 -22 -7 -8 -9 -15 -5 -15 4 0 1 -8 -6 -17 -8 -9 -9 -14 -3 -10 6
3 11 0 11 -8 0 -8 -5 -11 -10 -8 -6 4 -8 0 -4 -10 4 -10 1 -17 -6 -17 -8 0 -6
-4 3 -10 13 -9 13 -10 0 -10 -13 0 -13 -1 0 -10 14 -9 7 -14 -13 -11 -4 1 -2
-9 4 -21 15 -27 16 -24 -13 -48 -13 -11 -18 -19 -11 -20 6 0 13 6 16 13 2 6 4
0 4 -16 0 -15 -4 -30 -9 -33 -5 -3 -6 -15 -2 -27 6 -20 5 -20 -10 -8 -16 13
-16 12 -4 -14 10 -22 10 -29 0 -33 -6 -2 -12 -8 -12 -13 0 -6 4 -7 10 -4 6 3
7 -1 4 -9 -3 -9 -11 -13 -16 -10 -7 4 -7 0 0 -12 6 -11 9 -33 7 -51 -1 -20 2
-31 9 -30 6 1 10 -5 8 -13 -3 -12 -1 -13 9 -2 19 18 34 15 18 -5 -13 -15 -12
-15 9 -2 21 12 25 12 36 -4 12 -16 14 -15 14 8 0 21 -4 24 -21 19 -12 -4 -17
-2 -13 4 4 6 -2 8 -14 5 -13 -3 -20 0 -20 8 0 12 -2 12 -9 0 -6 -9 -11 -10
-15 -2 -4 6 -1 11 6 12 26 2 73 -3 83 -9 5 -3 19 -8 30 -9 59 -10 76 -10 82 0
3 6 1 7 -5 3 -7 -4 -12 -3 -12 3 0 5 8 15 18 21 16 10 15 10 -3 8 -15 -2 -20
3 -20 25 -1 16 3 31 7 33 5 3 6 10 3 15 -4 5 1 9 9 9 8 0 18 5 22 11 4 8 -1 9
-17 4 -13 -3 -19 -3 -14 2 6 4 11 19 10 32 0 13 7 27 15 29 13 5 13 3 0 -14
-14 -18 -14 -18 3 -5 16 13 16 15 1 32 -9 11 -13 23 -8 31 4 7 9 21 9 32 2 27
35 47 69 44 33 -3 45 -22 20 -32 -12 -4 -15 -2 -10 9 3 8 1 15 -4 15 -6 0 -10
-8 -10 -17 -1 -16 -2 -16 -15 1 -8 11 -15 14 -15 7 0 -7 -5 -9 -10 -6 -6 4
-10 3 -9 -2 1 -4 0 -10 -1 -13 -8 -21 -6 -39 5 -44 9 -3 12 0 9 8 -3 7 3 19
12 27 16 13 17 12 11 -6 -6 -17 -5 -18 6 -5 6 8 17 16 22 17 6 1 17 4 26 8 10
4 16 0 16 -10 0 -9 -6 -14 -13 -11 -6 2 -20 -1 -29 -8 -15 -11 -14 -12 11 -12
15 1 29 -5 32 -13 3 -8 0 -11 -6 -7 -5 3 -13 -1 -16 -10 -3 -8 -2 -13 2 -10
10 6 10 -40 0 -49 -4 -4 -4 -14 -1 -23 5 -12 2 -14 -13 -9 -18 7 -18 6 -1 -7
16 -12 16 -14 2 -20 -12 -4 -14 -10 -7 -22 11 -20 4 -56 -10 -48 -5 4 -3 -7 5
-22 8 -16 12 -35 9 -43 -2 -8 3 -18 12 -23 9 -5 15 -12 12 -16 -2 -4 6 -7 19
-7 13 0 21 3 18 8 -2 4 1 7 6 7 6 0 11 -5 11 -10 0 -6 6 -9 13 -8 6 2 11 -4 9
-12 -3 -11 1 -11 16 3 10 9 21 14 25 11 3 -3 12 -2 19 2 7 5 16 9 21 10 4 1
10 2 14 3 3 0 -2 10 -11 20 -13 14 -14 21 -5 27 8 5 10 3 4 -7 -5 -8 -4 -11 1
-6 5 5 9 12 9 15 0 4 4 13 8 20 5 6 5 12 0 12 -4 0 -1 5 7 11 13 9 13 10 0 6
-8 -2 -14 -10 -12 -16 1 -6 -2 -11 -8 -11 -13 0 -13 17 0 25 6 3 8 18 6 32 -4
21 -2 24 14 20 14 -4 18 0 15 15 -3 11 0 30 6 42 10 21 10 21 -6 1 -8 -11 -13
-25 -10 -33 2 -7 1 -10 -4 -7 -11 6 -10 45 1 45 4 0 7 10 6 23 -1 37 2 48 11
42 5 -3 12 -1 15 4 4 5 1 13 -5 17 -8 5 -9 3 -4 -7 5 -8 4 -10 0 -6 -15 13
-14 36 3 49 15 12 16 11 3 -4 -9 -12 -10 -18 -2 -18 10 0 14 11 9 28 -2 4 -6
6 -10 4 -15 -4 -8 17 9 26 14 8 14 10 -6 17 -15 4 -21 13 -18 24 2 9 -1 22 -7
28 -6 7 -16 18 -22 25 -39 46 -59 54 -129 52 -82 -2 -108 -7 -113 -22 -2 -7
-8 -12 -13 -12 -6 0 -7 6 -2 13 4 6 8 25 8 41 0 19 7 31 20 36 16 6 16 7 3 13
-20 7 -18 30 7 57 14 15 15 19 4 15 -10 -4 -16 0 -16 9 0 8 4 13 9 10 4 -3 8
-2 8 3 -1 22 -20 32 -80 42 -36 6 -75 14 -87 16 -19 5 -23 1 -23 -20z m170
-359 c0 -2 -8 -10 -17 -17 -16 -13 -17 -12 -4 4 13 16 21 21 21 13z m138 -324
c12 -1 22 -7 22 -13 0 -6 -9 -8 -22 -4 -22 7 -22 7 -3 -8 17 -13 21 -13 30 -1
10 15 49 14 62 -1 5 -4 3 -5 -4 -1 -6 3 -15 1 -18 -5 -4 -5 -13 -8 -21 -5 -7
3 -16 1 -19 -4 -4 -6 -16 -3 -30 6 -13 9 -29 13 -34 9 -13 -7 -53 13 -47 24 3
4 18 7 33 6 15 -1 38 -3 51 -3z"/>
<path d="M3680 1420 c-9 -6 -10 -10 -3 -10 6 0 15 5 18 10 8 12 4 12 -15 0z"/>
<path d="M1245 2120 c3 -5 8 -10 11 -10 2 0 4 5 4 10 0 6 -5 10 -11 10 -5 0
-7 -4 -4 -10z"/>
<path d="M4580 2122 c0 -7 -5 -11 -11 -9 -6 1 -14 -4 -16 -10 -3 -7 2 -13 11
-13 9 0 16 4 16 10 0 5 8 7 18 4 10 -4 13 -2 7 3 -5 4 -13 12 -17 17 -5 5 -8
4 -8 -2z"/>
<path d="M2744 2023 c-5 -27 -7 -51 -6 -55 1 -4 -5 -5 -12 -2 -15 6 -16 -12
-2 -34 4 -7 3 -19 -3 -26 -7 -8 -11 -18 -10 -22 5 -27 -2 -74 -10 -69 -5 3
-13 0 -17 -6 -4 -7 -3 -9 4 -5 6 3 13 2 17 -4 6 -9 -8 -14 -28 -11 -5 1 -6 -3
-2 -9 3 -6 10 -8 14 -6 4 3 6 -12 3 -32 -2 -20 -4 -44 -4 -52 0 -8 -4 -19 -8
-25 -4 -5 -6 -20 -5 -32 1 -13 -2 -23 -7 -23 -4 0 -8 5 -8 12 0 6 -3 9 -6 5
-3 -3 -2 -12 2 -19 11 -18 12 -48 1 -41 -5 3 -6 -4 -2 -17 5 -16 4 -20 -5 -15
-9 5 -9 3 -2 -11 11 -22 5 -47 -9 -38 -5 3 -9 0 -9 -5 0 -6 6 -11 13 -11 8 0
7 -4 -3 -10 -13 -9 -13 -10 0 -10 9 0 11 -3 5 -8 -5 -4 -11 -17 -11 -30 -1
-18 1 -20 13 -11 7 7 17 9 20 5 4 -4 1 -12 -7 -17 -13 -9 -12 -10 2 -6 9 3 19
1 21 -6 2 -7 4 0 3 14 -1 21 -6 26 -23 24 -12 -1 -20 2 -17 6 5 8 59 5 117 -7
22 -5 26 -10 23 -31 -4 -18 -2 -22 7 -15 7 5 23 8 36 6 14 -3 23 -3 20 -1 -2
1 -13 9 -23 17 -16 12 -18 12 -11 1 6 -10 4 -12 -4 -7 -15 9 14 46 35 46 7 0
15 4 18 9 3 5 -2 8 -12 7 -12 -1 -16 5 -14 19 3 19 9 61 11 78 1 4 6 7 12 7 8
0 8 -4 0 -13 -8 -10 -7 -14 4 -14 8 0 12 4 9 9 -7 11 3 10 25 -1 13 -7 17 -5
17 9 0 10 -5 16 -10 13 -5 -3 -6 -1 -3 4 4 6 0 13 -8 17 -8 3 -17 1 -20 -4
-12 -20 -24 -9 -19 17 3 15 6 29 7 30 2 1 19 -14 39 -33 21 -19 40 -35 43 -34
29 2 47 -1 41 -7 -10 -10 -36 -13 -36 -4 0 4 -7 8 -16 8 -15 0 -14 -2 1 -13
10 -8 22 -11 26 -8 5 3 9 0 9 -5 0 -6 -4 -11 -10 -11 -5 0 -10 -5 -10 -12 0
-9 3 -9 12 0 14 14 32 16 24 4 -3 -5 1 -9 9 -9 8 0 15 3 15 7 0 11 54 7 62 -5
5 -6 8 -5 8 3 0 7 5 10 12 6 7 -4 8 -3 4 4 -3 6 3 16 14 22 19 10 24 7 21 -13
-1 -5 3 -6 9 -2 8 5 7 12 -2 23 -11 13 -11 15 4 9 26 -9 42 17 21 34 -14 12
-16 12 -8 0 6 -10 4 -12 -5 -6 -9 6 -11 4 -5 -5 6 -10 4 -12 -8 -7 -10 4 -16
2 -14 -6 1 -7 -6 -11 -17 -9 -12 2 -16 -1 -10 -9 4 -7 3 -10 -4 -5 -6 3 -17
-1 -25 -9 -12 -11 -17 -12 -20 -2 -4 9 -8 8 -16 -3 -7 -10 -11 -11 -11 -2 0 6
-5 12 -11 12 -5 0 -7 -4 -4 -10 3 -5 2 -10 -4 -10 -5 0 -12 4 -16 9 -6 10 9
16 67 26 21 3 57 21 82 40 34 25 47 31 56 22 10 -10 10 -8 2 9 -12 22 -7 34
12 34 6 0 5 -4 -2 -9 -10 -6 -9 -11 4 -22 13 -10 16 -10 10 -1 -4 7 -2 19 4
27 7 8 9 15 5 15 -4 0 -2 6 4 13 6 8 8 17 4 21 -4 4 -1 12 7 17 13 9 13 10 0
6 -8 -2 -14 -11 -14 -20 1 -9 -2 -14 -7 -12 -4 3 -6 -4 -4 -15 2 -11 0 -18 -5
-15 -10 6 -5 41 8 59 5 6 8 24 7 40 -2 27 -1 28 11 11 16 -22 18 -12 4 16 -7
11 -7 19 -1 19 5 0 12 -6 14 -12 4 -10 6 -10 6 0 1 7 -6 15 -15 19 -13 5 -13
7 -2 14 8 6 9 9 1 9 -6 0 -14 18 -18 40 -4 22 -11 42 -16 46 -5 3 -7 10 -4 15
4 5 1 9 -4 9 -6 0 -11 6 -11 14 0 8 -7 17 -16 20 -9 3 -12 11 -8 18 4 7 3 10
-1 5 -5 -4 -17 1 -28 10 -26 24 -173 26 -187 3 -5 -8 -10 -11 -10 -6 0 6 -6 2
-13 -8 -12 -16 -13 -16 -13 3 0 12 5 21 10 21 6 0 4 6 -4 13 -13 12 -122 37
-158 37 -6 0 -14 -21 -18 -47z m274 -129 c12 -8 20 -20 17 -25 -4 -5 0 -9 7
-9 9 0 9 -3 -2 -10 -13 -9 -13 -10 0 -10 13 0 13 -1 0 -10 -13 -9 -13 -10 0
-10 13 0 13 -1 0 -10 -13 -9 -13 -11 0 -20 12 -7 12 -10 1 -10 -7 0 -11 -6 -8
-14 3 -7 -3 -28 -14 -45 -16 -27 -25 -32 -52 -29 -33 3 -57 19 -57 38 0 6 -4
9 -8 6 -5 -3 -8 10 -8 29 1 33 1 33 21 17 11 -9 14 -10 8 -2 -7 8 -13 18 -13
23 0 4 6 5 13 1 9 -5 9 -4 0 6 -13 14 -6 43 8 34 5 -3 6 -10 3 -16 -4 -7 -2
-8 5 -4 9 6 9 11 1 21 -8 9 -8 15 0 20 5 3 10 2 10 -4 0 -11 19 -9 38 3 9 5
15 1 19 -13 6 -24 20 -28 20 -6 0 8 -4 15 -8 15 -5 0 -7 6 -5 13 1 6 1 8 -2 3
-2 -4 -8 -2 -13 5 -6 11 -11 11 -21 1 -18 -18 -32 -14 -17 6 12 15 12 16 -2 5
-9 -7 -20 -9 -24 -5 -5 4 -5 1 0 -7 5 -10 4 -12 -4 -7 -6 4 -10 4 -9 -1 1 -4
-3 -18 -10 -29 -6 -12 -8 -24 -5 -28 3 -3 1 -6 -6 -6 -14 0 -5 43 10 48 5 2 7
8 4 12 -7 12 35 40 60 40 11 0 31 -7 43 -16z m-125 -338 c4 -10 1 -13 -8 -9
-8 3 -12 9 -9 14 7 12 11 11 17 -5z"/>
<path d="M2900 1766 c0 -2 8 -10 18 -17 15 -13 16 -12 3 4 -13 16 -21 21 -21
13z"/>
<path d="M275 2049 c-4 -5 3 -18 15 -29 13 -11 17 -21 10 -25 -6 -3 -8 -11 -4
-16 4 -6 11 -5 20 2 13 10 11 16 -11 39 -14 14 -22 29 -18 33 3 4 4 7 0 7 -3
0 -9 -5 -12 -11z"/>
<path d="M4260 2041 c0 -5 7 -12 16 -15 14 -5 15 -4 4 9 -14 17 -20 19 -20 6z"/>
<path d="M3600 2020 c-9 -6 -10 -10 -3 -10 6 0 15 5 18 10 8 12 4 12 -15 0z"/>
<path d="M1903 1995 c0 -7 6 -11 14 -8 7 3 13 6 13 8 0 2 -6 5 -13 8 -8 3 -14
-1 -14 -8z"/>
<path d="M2715 2000 c-3 -5 -1 -10 4 -10 6 0 11 5 11 10 0 6 -2 10 -4 10 -3 0
-8 -4 -11 -10z"/>
<path d="M1885 1960 c-4 -6 -11 -7 -17 -4 -7 4 -8 2 -4 -4 4 -7 3 -12 -3 -12
-5 0 -13 5 -16 10 -4 7 -12 7 -25 0 -24 -13 -33 -13 -25 0 8 13 -17 8 -27 -5
-5 -7 -10 -7 -15 0 -5 6 -14 11 -21 13 -10 2 -10 -2 -2 -17 5 -11 15 -23 22
-27 7 -4 8 -3 4 4 -4 7 -3 12 3 12 5 0 11 -3 14 -7 2 -5 2 -2 1 5 -4 17 7 15
35 -5 14 -9 21 -11 17 -5 -6 11 0 14 22 11 4 -1 6 -5 5 -10 -2 -5 2 -9 7 -9 6
0 10 6 10 14 0 8 10 22 22 30 12 9 17 16 11 16 -7 0 -15 -5 -18 -10z"/>
<path d="M344 1952 c-6 -4 -11 -15 -11 -25 0 -12 4 -14 11 -7 15 15 30 12 17
-4 -15 -17 -1 -28 19 -15 11 6 12 9 2 9 -7 0 -10 5 -7 10 3 6 -1 13 -9 16 -9
3 -13 10 -10 15 6 11 3 11 -12 1z"/>
<path d="M1637 1942 c4 -10 8 -11 13 -2 5 8 9 7 14 -5 3 -9 10 -13 16 -10 5 3
10 1 10 -5 0 -7 5 -6 14 2 20 19 1 35 -20 17 -16 -12 -17 -12 -12 2 4 11 -1
15 -17 15 -15 0 -21 -5 -18 -14z"/>
<path d="M1895 1939 c-4 -6 -5 -12 -2 -15 2 -3 7 2 10 11 7 17 1 20 -8 4z"/>
<path d="M3585 1929 c-11 -16 -1 -19 13 -3 7 8 8 14 3 14 -5 0 -13 -5 -16 -11z"/>
<path d="M3237 1893 c-10 -9 -9 -23 1 -23 5 0 9 7 9 15 0 17 -1 18 -10 8z"/>
<path d="M1016 1815 c-10 -7 -15 -19 -11 -25 5 -9 1 -10 -13 -6 -15 5 -22 2
-27 -13 -4 -13 -12 -18 -23 -15 -15 5 -15 4 1 -6 10 -6 14 -16 10 -23 -4 -8
-1 -7 9 1 10 8 14 20 11 30 -6 15 -5 16 12 2 15 -12 17 -12 10 -1 -6 11 -4 13
11 7 10 -4 15 -4 12 0 -8 8 14 34 25 27 4 -2 7 1 7 6 0 6 -6 11 -12 11 -9 0
-8 4 2 10 8 5 11 10 5 10 -5 -1 -18 -7 -29 -15z"/>
<path d="M4220 1800 c-13 -10 -29 -16 -34 -13 -5 3 -6 1 -3 -4 7 -11 -42 -49
-56 -45 -5 1 -6 -2 -3 -7 4 -5 -4 -17 -16 -25 -18 -13 -19 -16 -5 -16 19 0 23
-20 6 -37 -9 -9 -8 -11 4 -9 9 1 20 6 24 11 4 4 2 5 -6 0 -10 -6 -12 -4 -6 5
6 10 11 9 21 -5 8 -10 25 -31 39 -47 14 -15 22 -28 19 -28 -4 0 3 -8 15 -19
l21 -19 -37 -7 c-21 -3 -48 -13 -61 -21 -12 -8 -28 -12 -34 -8 -6 4 -8 3 -4
-4 3 -6 -6 -20 -20 -31 -15 -12 -24 -21 -20 -21 4 0 0 -10 -9 -23 -8 -13 -12
-27 -8 -30 3 -4 1 -7 -5 -7 -6 0 -9 -18 -8 -46 2 -30 -2 -48 -10 -51 -10 -4
-10 -9 -1 -24 6 -10 16 -19 21 -19 6 0 5 5 -2 12 -15 15 -15 28 -1 28 5 0 8
-4 5 -9 -3 -5 1 -14 9 -21 15 -13 11 -35 -5 -25 -5 3 -11 1 -14 -4 -4 -5 5 -8
19 -6 14 1 24 0 21 -2 -8 -9 93 -102 131 -122 54 -27 112 -41 119 -30 3 6 14
7 25 4 10 -4 19 -3 19 2 0 5 14 17 30 27 17 9 39 26 49 37 14 15 21 17 26 8 6
-8 4 -10 -6 -4 -11 7 -12 6 -2 -7 7 -8 9 -19 5 -23 -4 -5 -2 -5 5 -1 12 6 11
25 -2 57 -3 10 -2 20 4 23 6 4 7 14 4 24 -7 18 -5 17 17 -12 8 -11 10 -17 4
-13 -12 7 -12 -28 0 -40 4 -5 7 -3 6 2 -6 26 1 37 19 32 15 -4 18 -1 13 12 -5
14 -4 14 11 2 16 -12 21 -9 18 12 -1 4 6 10 14 13 8 3 12 11 8 17 -4 6 0 8 9
5 8 -4 15 -1 15 6 0 20 -26 15 -33 -6 -3 -10 -10 -15 -16 -12 -7 5 -8 2 -3 -6
6 -9 4 -11 -5 -5 -8 5 -11 4 -7 -2 3 -5 0 -10 -8 -10 -8 0 -15 2 -15 4 0 9 64
58 72 55 4 -1 8 2 8 7 0 5 7 12 16 15 13 5 14 4 6 -7 -9 -10 -8 -18 1 -31 11
-16 13 -13 12 23 -1 33 2 40 13 36 13 -5 13 -3 1 12 -8 10 -19 21 -26 26 -7 4
-10 14 -6 23 3 8 1 14 -5 12 -6 -2 -24 12 -41 31 -24 26 -28 37 -19 44 9 6 8
7 -4 3 -12 -3 -22 2 -29 17 -7 12 -19 27 -27 33 -8 6 -12 16 -8 22 5 8 2 10
-8 6 -9 -4 -16 -1 -16 6 0 7 -11 21 -25 31 -14 12 -22 26 -18 35 3 8 2 14 -3
12 -11 -3 -54 33 -54 45 0 4 -9 18 -21 30 -11 12 -39 43 -63 69 l-41 47 -25
-19z m43 -396 c-2 -7 -10 -11 -17 -8 -6 2 -17 -8 -23 -23 -11 -27 -11 -27 -8
-3 2 14 4 28 4 33 1 4 8 7 16 7 8 0 14 3 14 8 -3 19 2 26 10 13 5 -8 7 -20 4
-27z m31 24 c-6 -10 -5 -10 7 -1 12 10 21 7 44 -12 17 -13 25 -24 19 -25 -15
0 -13 -32 2 -47 17 -17 29 -17 15 0 -6 8 -7 18 -3 22 4 5 1 5 -5 1 -15 -8 -18
0 -4 9 5 3 17 -9 25 -26 18 -36 21 -52 5 -29 -7 11 -9 7 -5 -16 3 -22 -2 -36
-15 -48 -22 -19 -74 -23 -63 -4 4 6 3 8 -4 4 -6 -3 -27 8 -46 26 -35 32 -43
58 -30 92 5 14 9 14 22 4 10 -8 13 -9 9 -1 -14 22 18 20 44 -4 15 -14 26 -18
26 -11 0 7 4 22 8 33 4 12 4 15 -2 8 -6 -8 -14 -9 -23 -3 -13 8 -13 10 -1 10
8 0 12 3 8 6 -3 3 -12 2 -19 -2 -23 -15 -34 -12 -35 7 -1 11 5 19 13 19 10 0
12 -5 8 -12z m36 -50 c0 -6 -6 -5 -15 2 -8 7 -15 14 -15 16 0 2 7 1 15 -2 8
-4 15 -11 15 -16z m184 -159 c-3 -5 0 -9 7 -9 7 0 9 -3 5 -7 -9 -9 -46 37 -45
57 0 10 6 8 19 -9 11 -12 17 -27 14 -32z"/>
<path d="M4377 1293 c-10 -9 -9 -23 1 -23 5 0 9 7 9 15 0 17 -1 18 -10 8z"/>
<path d="M1613 1748 c-23 -11 -44 -30 -47 -41 -2 -10 -9 -16 -16 -12 -6 3 -9
3 -8 -2 3 -12 -23 -85 -36 -102 -8 -11 -8 -13 2 -7 6 4 12 3 12 -2 0 -6 -7
-12 -15 -16 -13 -5 -19 5 -16 26 0 4 -5 5 -13 2 -14 -5 -98 59 -91 70 3 3 2 4
-2 1 -3 -3 -15 3 -26 12 -18 17 -20 17 -34 -2 -8 -11 -19 -19 -24 -17 -6 1 -8
-2 -5 -7 4 -5 -3 -16 -14 -24 -11 -7 -18 -16 -15 -19 3 -3 -8 -16 -24 -28 -24
-20 -26 -26 -16 -37 8 -7 17 -13 22 -13 11 0 43 -37 43 -50 0 -6 -4 -10 -10
-10 -5 0 -10 6 -10 14 0 8 -10 22 -22 30 -26 18 -38 20 -38 6 0 -6 3 -9 8 -9
18 3 32 -2 32 -12 0 -5 -5 -7 -12 -3 -7 4 -8 3 -4 -5 4 -6 11 -9 16 -6 5 3 11
-3 15 -14 3 -11 13 -25 22 -33 14 -11 16 -11 8 1 -6 11 -4 13 8 8 9 -3 19 -1
23 5 5 7 2 8 -6 3 -9 -5 -11 -4 -6 3 5 8 2 10 -9 6 -11 -5 -14 -2 -9 10 5 13
14 9 50 -20 24 -20 44 -40 44 -45 0 -4 9 -10 20 -14 13 -4 19 -14 18 -31 -1
-13 -7 -24 -13 -24 -5 0 -4 -4 4 -9 8 -5 21 -7 29 -3 10 3 13 1 8 -6 -4 -7 -2
-12 4 -12 6 0 8 -5 4 -12 -4 -6 -3 -8 4 -4 6 3 15 -2 21 -11 6 -10 11 -13 11
-6 0 7 7 10 16 6 13 -5 13 -7 2 -14 -7 -5 -8 -9 -2 -9 16 0 23 10 18 25 -3 8
-14 12 -25 10 -10 -2 -18 1 -16 8 1 7 -3 11 -10 10 -6 -2 -15 6 -18 17 -4 11
-10 18 -15 15 -5 -3 -11 -1 -14 4 -4 5 -2 12 3 15 5 3 25 -9 44 -28 20 -19 37
-33 39 -31 2 2 28 -18 58 -45 42 -37 52 -51 43 -61 -6 -8 -7 -22 -2 -34 7 -19
8 -19 8 -1 1 18 2 18 19 3 10 -10 24 -17 31 -17 7 0 9 -4 6 -10 -3 -6 1 -7 10
-4 11 5 14 2 9 -10 -3 -9 -2 -16 4 -16 14 0 8 33 -6 38 -7 2 -12 8 -12 14 0 6
8 4 18 -5 22 -20 32 -21 32 -4 0 15 36 48 44 40 11 -11 6 -24 -6 -17 -7 4 -8
3 -4 -4 5 -8 1 -10 -10 -5 -14 5 -16 2 -12 -15 4 -12 1 -25 -4 -29 -7 -4 -8
-1 -3 8 6 11 5 12 -5 2 -19 -17 -4 -29 15 -13 9 7 14 19 11 27 -3 8 -2 12 2 9
4 -2 15 2 25 9 12 8 14 15 7 20 -5 3 -8 11 -5 16 4 5 0 9 -7 9 -15 1 20 30 36
30 5 0 1 -7 -10 -15 -10 -8 -14 -15 -7 -15 6 0 15 5 18 10 4 6 12 7 18 3 7 -3
3 3 -7 15 -18 21 -18 22 -1 22 14 0 8 10 -22 40 -22 21 -38 42 -34 46 3 4 1 4
-5 1 -6 -3 -27 9 -47 27 -20 18 -52 45 -71 60 -24 18 -33 32 -29 43 4 9 2 14
-3 11 -5 -4 -10 5 -10 18 -1 13 2 24 7 24 4 0 6 6 3 13 -2 7 6 19 20 27 23 12
30 10 76 -20 28 -18 57 -42 65 -54 9 -11 19 -21 23 -21 10 0 36 -21 78 -63 19
-18 35 -28 39 -22 4 6 11 8 16 5 5 -4 9 1 9 9 0 9 5 16 11 16 5 0 8 4 5 9 -7
11 39 53 49 44 4 -5 5 1 1 11 -5 15 -4 17 7 7 11 -9 17 -7 28 6 13 17 13 17
-5 3 -18 -14 -19 -13 -14 6 3 11 -1 29 -8 39 -8 10 -14 15 -14 11 0 -6 -166
128 -180 145 -3 4 -27 21 -54 38 -59 37 -104 40 -163 9z m52 -568 c5 1 11 -3
13 -9 5 -16 -14 -13 -28 4 -7 8 -17 12 -24 8 -6 -4 -4 1 4 11 13 17 15 17 20
1 3 -9 10 -16 15 -15z"/>
<path d="M1515 1670 c3 -5 8 -10 11 -10 2 0 4 5 4 10 0 6 -5 10 -11 10 -5 0
-7 -4 -4 -10z"/>
<path d="M3853 1646 c0 -7 6 -13 14 -13 7 0 13 4 13 8 0 4 -6 9 -13 12 -8 3
-14 0 -14 -7z"/>
<path d="M3630 1640 c0 -5 5 -10 10 -10 6 0 10 5 10 10 0 6 -4 10 -10 10 -5 0
-10 -4 -10 -10z"/>
<path d="M4125 1629 c-19 -7 -19 -8 -1 -8 16 -1 17 -3 5 -18 -12 -15 -12 -16
1 -8 20 13 40 15 40 5 0 -5 -3 -10 -7 -13 -5 -2 -2 -2 6 0 9 2 11 -2 7 -13 -8
-21 1 -34 19 -28 11 5 10 12 -6 39 -27 45 -40 54 -64 44z"/>
<path d="M3167 1603 c-3 -5 4 -15 16 -23 21 -12 21 -12 7 6 -8 10 -15 20 -16
22 -1 2 -4 -1 -7 -5z"/>
<path d="M1664 1562 c6 -9 3 -12 -10 -10 -10 2 -19 -1 -19 -7 0 -5 -4 -15 -8
-22 -4 -6 -2 -15 4 -19 13 -8 31 15 22 29 -3 5 4 6 16 2 25 -8 28 7 4 26 -13
11 -15 11 -9 1z"/>
<path d="M3515 1550 c3 -5 8 -10 11 -10 2 0 4 5 4 10 0 6 -5 10 -11 10 -5 0
-7 -4 -4 -10z"/>
<path d="M1704 1527 c1 -12 7 -21 14 -20 6 2 19 -8 28 -22 9 -14 20 -23 24
-20 8 5 25 -24 21 -38 -1 -5 3 -6 8 -2 6 3 16 -3 23 -15 7 -11 17 -20 22 -20
4 0 3 6 -3 14 -8 10 -9 16 -1 21 5 3 10 1 10 -4 0 -6 9 -20 20 -31 11 -11 15
-20 9 -20 -5 0 -7 -5 -3 -11 10 -16 23 9 17 32 -6 22 -42 51 -55 43 -4 -3 -8
-1 -8 3 0 5 -14 17 -30 27 -17 9 -28 21 -26 25 3 4 -7 17 -22 28 -46 33 -49
34 -48 10z m43 -17 c14 -11 21 -20 16 -20 -6 0 -16 7 -23 15 -7 8 -16 12 -21
9 -5 -3 -9 0 -9 5 0 16 9 14 37 -9z m68 -70 c10 -11 16 -20 13 -20 -3 0 -13 9
-23 20 -10 11 -16 20 -13 20 3 0 13 -9 23 -20z m63 -45 c-3 -3 -9 2 -12 12 -6
14 -5 15 5 6 7 -7 10 -15 7 -18z"/>
<path d="M3295 1520 c-3 -5 -1 -10 4 -10 6 0 11 5 11 10 0 6 -2 10 -4 10 -3 0
-8 -4 -11 -10z"/>
<path d="M3830 1526 c0 -2 7 -7 16 -10 8 -3 12 -2 9 4 -6 10 -25 14 -25 6z"/>
<path d="M1670 1509 c0 -5 5 -7 10 -4 6 3 10 8 10 11 0 2 -4 4 -10 4 -5 0 -10
-5 -10 -11z"/>
<path d="M2853 1495 c0 -8 4 -12 9 -9 4 3 8 9 8 15 0 5 -4 9 -8 9 -5 0 -9 -7
-9 -15z"/>
<path d="M1993 1452 c-3 -12 -10 -19 -16 -15 -5 3 -7 1 -3 -5 3 -6 2 -13 -4
-17 -6 -4 -8 -11 -5 -16 4 -5 1 -9 -4 -9 -18 0 -25 -3 -38 -16 -17 -17 -17
-29 0 -15 10 7 17 7 24 0 8 -8 13 -7 18 2 5 8 4 10 -3 5 -19 -11 -14 5 6 20 9
7 17 18 17 26 0 7 8 12 17 12 10 -1 14 4 11 12 -4 10 0 12 13 8 20 -8 19 -6
-9 15 -16 13 -19 12 -24 -7z"/>
<path d="M3430 1446 c0 -7 9 -16 19 -19 15 -4 18 -1 13 12 -5 14 -3 14 10 3
11 -9 18 -10 23 -2 4 6 3 10 -2 9 -4 -1 -10 -1 -13 1 -26 10 -50 8 -50 -4z"/>
<path d="M3613 1445 c0 -8 4 -12 9 -9 5 3 6 10 3 15 -9 13 -12 11 -12 -6z"/>
<path d="M1320 1432 c-13 -14 -12 -15 4 -9 14 5 17 3 13 -8 -9 -21 7 -27 29
-10 19 13 19 14 -1 21 -11 4 -22 11 -25 15 -3 4 -12 0 -20 -9z m50 -16 c0 -2
-7 -7 -16 -10 -8 -3 -12 -2 -9 4 6 10 25 14 25 6z"/>
<path d="M2824 1408 c-4 -6 -3 -8 4 -4 5 3 12 1 14 -6 3 -8 6 -9 11 -1 4 6 0
13 -8 17 -8 3 -17 0 -21 -6z"/>
<path d="M2690 1402 c0 -4 5 -14 11 -22 9 -13 10 -12 5 2 -3 12 -1 15 9 11 8
-3 13 -9 10 -13 -3 -5 3 -7 12 -6 10 2 21 -2 25 -8 4 -6 6 -1 5 11 0 12 -5 19
-9 17 -4 -3 -8 1 -8 8 0 9 -3 9 -10 -2 -5 -8 -10 -10 -10 -5 0 6 -9 11 -20 12
-11 1 -20 -1 -20 -5z"/>
<path d="M1369 1389 c-10 -6 -11 -9 -1 -9 8 0 10 -5 6 -12 -6 -10 -4 -10 7 0
18 17 34 15 19 -3 -7 -9 -8 -15 -2 -15 5 0 12 7 16 15 7 19 -25 37 -45 24z"/>
<path d="M2485 1346 c-102 -29 -116 -37 -109 -58 4 -14 2 -18 -5 -14 -7 5 -9
1 -5 -8 4 -10 1 -16 -7 -17 -8 0 0 -7 16 -14 17 -8 26 -14 21 -15 -5 0 -4 -6
2 -12 15 -18 13 -30 -6 -52 -16 -18 -16 -18 6 -7 12 7 22 8 21 4 -1 -4 0 -10
1 -13 7 -18 7 -40 0 -40 -4 0 -10 -6 -13 -13 -3 -8 1 -14 9 -14 7 0 11 4 8 9
-3 4 0 8 6 8 7 0 10 -6 7 -14 -3 -8 -1 -17 6 -20 7 -3 1 -3 -13 0 -17 4 -21 2
-12 -4 8 -5 13 -12 13 -16 -3 -19 0 -26 10 -26 8 0 7 5 -1 15 -11 13 -10 14 4
9 11 -4 15 -13 11 -25 -4 -11 -2 -19 5 -19 6 0 9 -4 5 -9 -3 -5 -1 -12 4 -15
5 -4 8 -14 6 -24 -2 -9 -4 -21 -4 -25 -1 -5 -7 -5 -13 -1 -9 5 -9 2 1 -9 7 -9
20 -17 28 -17 10 0 12 -6 8 -20 -4 -12 -2 -20 5 -20 6 0 10 -6 8 -12 -1 -7 4
-24 11 -36 7 -13 10 -26 7 -29 -2 -3 -1 -16 4 -29 6 -15 5 -26 -2 -30 -6 -4
-8 -3 -4 4 3 6 2 13 -3 16 -5 4 -8 19 -5 34 3 18 2 23 -5 13 -7 -11 -8 -39 -1
-48 2 -2 3 -9 4 -15 1 -7 8 -12 14 -10 7 1 21 -2 31 -7 11 -6 22 -6 27 -1 5 5
18 11 29 13 11 2 27 7 35 10 8 4 25 8 36 10 12 1 29 11 38 20 15 15 15 17 2
17 -9 0 -16 5 -16 10 0 6 5 10 12 10 6 0 3 7 -8 16 -19 15 -19 16 1 10 17 -5
16 -3 -5 14 -14 11 -21 20 -16 20 5 0 3 6 -3 14 -10 11 -8 17 6 26 15 9 15 11
1 6 -16 -5 -34 21 -23 32 3 3 5 -1 5 -8 0 -7 3 -10 7 -7 3 4 -2 17 -13 29 -19
21 -19 21 1 15 18 -7 19 -6 3 6 -10 8 -15 17 -11 20 3 4 2 7 -4 7 -6 0 -10 16
-8 37 2 40 25 63 61 63 25 0 57 -27 49 -40 -3 -5 -1 -12 5 -15 7 -4 7 -11 2
-18 -15 -19 -10 -44 7 -43 11 1 15 -6 13 -19 -7 -42 -2 -79 13 -92 4 -4 5 -2
1 5 -4 6 -5 12 -2 12 10 0 33 -55 29 -67 -2 -6 1 -14 6 -18 6 -3 11 -11 11
-18 0 -6 -6 -3 -13 8 -12 15 -15 16 -22 4 -5 -8 -5 -11 0 -7 5 5 15 -1 22 -12
8 -11 19 -17 25 -14 8 5 9 1 5 -12 -5 -15 -3 -14 10 4 15 22 17 22 35 5 11
-10 19 -13 18 -8 -5 21 1 29 10 15 8 -13 10 -12 10 3 0 9 4 17 9 17 5 0 12 -8
14 -17 4 -17 5 -17 6 -1 0 10 7 16 14 14 6 -1 9 -1 4 1 -14 8 4 22 21 17 14
-5 14 -4 2 4 -10 8 -18 8 -27 0 -10 -8 -13 -6 -13 6 0 10 4 15 9 11 5 -3 16 4
24 15 7 11 17 17 21 13 4 -4 4 0 0 10 -3 9 -10 15 -14 12 -9 -6 -8 14 2 30 3
6 1 19 -3 30 -9 18 -9 18 -5 -2 2 -13 0 -23 -5 -23 -5 0 -9 6 -10 13 -1 23 -7
49 -13 54 -3 4 2 12 12 19 14 10 15 15 4 26 -11 11 -12 10 -6 -6 5 -14 3 -17
-7 -14 -8 3 -14 9 -14 14 0 5 -4 15 -9 23 -6 10 -5 12 2 7 7 -4 12 -2 12 3 0
6 -4 11 -9 11 -5 0 -12 7 -15 16 -3 8 -2 13 3 9 11 -6 8 22 -4 32 -4 4 -5 2 0
-6 5 -9 4 -12 -2 -8 -10 6 -28 73 -25 89 1 5 -4 7 -10 5 -7 -1 -12 6 -12 15 1
10 -1 16 -5 16 -3 -1 -20 6 -38 15 -39 21 -102 22 -149 2 -20 -8 -41 -12 -47
-8 -5 3 -7 1 -3 -5 3 -6 -4 -19 -17 -29 -13 -10 -24 -21 -25 -25 -2 -10 -12
-11 -11 -2 0 4 -5 11 -13 15 -10 7 -10 9 2 9 13 0 13 1 0 10 -13 9 -13 10 0
10 12 1 11 3 -3 11 -9 6 -15 14 -12 20 4 5 0 9 -7 9 -11 0 -10 2 0 9 11 7 11
9 -2 14 -9 4 -16 11 -16 17 0 6 4 9 9 5 5 -3 13 -1 16 5 4 6 1 9 -6 8 -7 -2
-19 9 -26 25 -8 15 -17 26 -21 26 -4 -1 -25 -7 -47 -13z m305 -346 c0 -5 -4
-10 -10 -10 -5 0 -10 5 -10 10 0 6 5 10 10 10 6 0 10 -4 10 -10z m16 -79 c-4
-5 0 -11 6 -14 7 -2 9 -8 5 -13 -4 -5 -12 -2 -17 6 -13 20 -12 30 1 30 5 0 8
-4 5 -9z m167 -121 c3 -11 1 -17 -4 -14 -6 3 -21 -1 -34 -10 -15 -10 -26 -12
-30 -6 -4 6 -12 7 -18 3 -21 -13 -36 -11 -30 4 3 8 12 12 19 9 8 -3 14 -1 14
4 0 6 10 10 23 10 12 0 29 5 37 10 8 5 16 10 16 10 1 0 4 -9 7 -20z"/>
<path d="M2906 778 c3 -5 10 -6 15 -3 13 9 11 12 -6 12 -8 0 -12 -4 -9 -9z"/>
<path d="M1537 1256 c-12 -9 -14 -16 -8 -21 6 -3 11 -1 11 5 0 6 4 9 10 5 5
-3 7 -13 4 -23 -4 -13 -3 -12 7 2 9 15 9 21 1 24 -7 2 -10 8 -6 13 7 12 2 11
-19 -5z"/>
<path d="M3830 1243 c-14 -9 -44 -35 -67 -58 -23 -23 -44 -42 -45 -41 -2 0 12
-15 32 -34 45 -46 82 -90 74 -90 -4 0 5 -9 20 -21 31 -25 55 -68 48 -88 -3 -8
0 -11 7 -7 6 4 11 3 11 -2 0 -6 -8 -13 -17 -16 -15 -6 -15 -8 -3 -16 13 -8 12
-10 -3 -10 -10 0 -20 -7 -23 -15 -8 -19 -43 -19 -50 0 -4 8 -10 13 -14 10 -5
-3 -11 4 -15 15 -3 11 -11 20 -16 20 -6 0 -7 5 -3 12 4 6 3 8 -4 4 -13 -8 -44
33 -35 47 3 6 2 7 -4 4 -5 -3 -18 6 -29 20 -10 14 -31 39 -47 56 l-27 29 -35
-23 c-19 -13 -35 -27 -35 -31 0 -5 -4 -8 -9 -8 -5 0 -22 -13 -38 -28 l-28 -28
28 -27 c15 -15 24 -27 20 -27 -5 0 -14 -9 -21 -21 -8 -12 -9 -18 -3 -14 6 3
11 0 11 -7 0 -10 3 -9 9 2 6 8 7 19 3 25 -3 5 5 3 18 -6 14 -9 30 -25 35 -35
6 -10 21 -31 35 -45 105 -110 127 -130 150 -136 14 -3 30 -10 37 -15 7 -5 14
-5 18 2 9 15 32 12 32 -5 0 -11 -6 -13 -20 -9 -16 5 -19 3 -14 -11 4 -9 7 -20
7 -23 0 -4 4 -1 8 5 4 7 18 14 30 16 13 2 31 11 42 19 10 9 21 13 25 10 3 -4
3 2 -1 13 -7 18 -6 18 9 6 11 -9 17 -10 17 -2 0 6 -5 11 -11 11 -5 0 -7 5 -4
10 4 6 11 8 16 5 5 -3 6 1 2 11 -5 14 -8 13 -24 -7 -10 -13 -19 -19 -19 -14 0
6 12 23 27 40 15 16 28 35 30 43 1 8 8 19 15 23 8 6 9 9 1 9 -6 0 -9 8 -6 19
5 19 5 19 28 -1 21 -18 25 -65 4 -53 -4 3 -5 13 -2 22 5 13 2 12 -15 -3 -22
-19 -23 -24 0 -28 22 -3 39 -17 33 -27 -4 -5 2 -6 12 -2 16 6 16 5 4 -11 -8
-9 -10 -16 -5 -15 26 5 36 -2 31 -21 -3 -11 -2 -18 3 -15 4 3 10 14 13 25 3
13 1 18 -5 13 -7 -3 -8 -1 -4 5 5 8 1 10 -11 5 -16 -6 -17 -5 -3 12 8 10 10
16 5 13 -6 -4 -17 -3 -25 3 -13 7 -13 9 0 9 13 0 13 1 0 10 -8 5 -12 12 -8 15
5 6 85 -83 87 -97 1 -10 3 -11 26 -2 11 4 30 21 43 36 13 15 30 28 37 28 8 0
19 8 24 18 6 9 11 12 11 6 0 -5 -5 -15 -11 -21 -8 -8 -8 -13 0 -17 6 -4 11 -6
12 -4 11 43 7 62 -23 101 -18 23 -37 45 -42 48 -5 4 -5 12 -2 18 4 6 4 10 -1
9 -5 -2 -21 9 -36 25 -15 15 -24 27 -20 27 4 0 0 5 -9 11 -10 5 -18 17 -18 24
0 8 -4 14 -9 12 -5 -1 -9 0 -8 3 1 3 -18 24 -41 48 -23 24 -39 48 -36 54 4 6
3 9 -2 6 -5 -3 -15 0 -22 8 -7 8 -10 14 -8 14 3 0 -14 21 -39 46 -24 26 -42
51 -39 55 3 5 -1 9 -9 9 -8 0 -17 7 -21 15 -7 19 -16 19 -46 -2z m66 -602
c-20 -22 -48 -18 -39 5 4 12 8 12 21 2 12 -10 14 -10 8 0 -10 17 3 37 17 23 7
-7 5 -16 -7 -30z"/>
<path d="M1195 1233 c-31 -16 -75 -61 -75 -76 0 -5 -5 -5 -10 -2 -6 4 -10 3
-9 -2 4 -24 -2 -43 -13 -37 -7 5 -8 3 -3 -6 5 -7 9 -31 10 -53 l2 -41 -23 27
c-23 27 -23 27 -34 7 -6 -11 -16 -17 -22 -14 -7 4 -8 3 -4 -5 4 -6 0 -14 -8
-17 -9 -3 -16 -12 -16 -19 0 -7 -8 -19 -17 -26 -15 -12 -16 -12 -8 1 4 8 4 12
0 7 -5 -4 -10 -15 -11 -24 -2 -9 -5 -27 -9 -40 -4 -18 1 -26 24 -38 37 -19 46
-19 29 -1 -7 8 -15 14 -18 14 -20 -1 -30 4 -30 13 0 8 4 9 13 0 8 -6 16 -9 18
-6 3 2 31 -20 62 -49 32 -29 59 -51 61 -49 2 2 15 -10 30 -27 14 -17 26 -29
26 -25 0 3 34 -21 75 -55 41 -34 75 -66 75 -71 0 -6 4 -7 10 -4 5 3 15 -3 22
-15 7 -11 18 -20 25 -20 7 0 22 -13 34 -29 12 -16 26 -28 33 -27 6 1 32 24 56
51 25 28 51 54 58 60 10 8 7 17 -13 45 -14 18 -25 30 -25 26 0 -5 -7 -3 -15 4
-8 7 -12 16 -9 21 3 5 0 8 -8 7 -7 -2 -12 3 -10 10 1 7 -6 15 -15 18 -44 14
-63 28 -51 36 19 11 28 10 26 -4 -2 -7 6 -12 17 -12 11 0 25 -7 31 -15 9 -11
11 -11 11 3 0 9 -4 16 -9 16 -4 0 -8 5 -8 11 0 5 4 8 9 5 5 -3 11 1 14 9 4 8
15 12 27 10 17 -3 19 -1 10 16 -13 24 -21 25 -14 2 5 -15 4 -16 -5 -3 -7 10
-11 11 -11 3 0 -7 -9 -17 -20 -23 -14 -7 -20 -7 -20 0 0 5 5 10 10 10 14 0 76
71 72 82 -1 5 7 4 19 -3 12 -6 19 -7 15 -1 -3 6 -3 12 1 15 5 2 3 2 -4 1 -7
-2 -15 1 -18 6 -6 9 8 14 27 11 4 0 5 6 1 15 -5 13 -7 13 -14 2 -5 -7 -9 -8
-9 -2 0 5 6 16 13 23 10 11 10 13 0 7 -7 -4 -13 -3 -13 1 0 5 6 15 13 22 10
11 9 12 -2 6 -10 -6 -11 -2 -6 15 5 15 4 20 -4 16 -15 -10 -14 7 2 23 10 10 8
11 -8 5 -11 -4 -17 -4 -14 0 4 4 -4 19 -17 33 -14 15 -22 33 -19 40 3 8 0 11
-6 8 -13 -9 -41 14 -32 28 3 5 2 7 -4 4 -13 -8 -65 27 -56 38 5 4 3 5 -3 2 -7
-4 -28 0 -48 8 -46 19 -123 18 -161 -2z m114 -173 c12 -6 21 -15 21 -21 0 -6
4 -8 9 -4 12 7 48 -44 48 -68 0 -15 -12 -15 -12 1 -1 17 -27 52 -35 47 -5 -3
-12 4 -15 16 -6 17 -9 18 -16 8 -6 -11 -9 -11 -14 1 -5 15 -65 24 -65 11 0 -4
-10 -7 -22 -8 l-23 -2 23 19 c24 20 64 20 101 0z m-66 -27 c-15 -5 -18 -23 -5
-23 5 0 13 9 18 20 8 19 11 20 29 5 16 -12 17 -14 3 -9 -10 3 -18 2 -18 -4 0
-12 18 -11 39 2 10 6 12 5 7 -2 -4 -7 -2 -12 5 -12 8 0 8 -4 1 -13 -8 -10 -6
-13 7 -13 12 0 17 6 14 16 -4 9 0 7 10 -5 13 -17 13 -21 -2 -33 -9 -7 -10 -10
-2 -6 14 7 31 -11 31 -34 0 -9 -7 -11 -22 -7 -16 4 -19 3 -9 -3 7 -5 9 -12 5
-14 -16 -9 -74 -7 -74 3 0 5 -3 8 -7 7 -13 -4 -63 34 -63 47 0 7 -6 15 -12 18
-7 2 -10 8 -6 12 4 4 16 2 25 -6 16 -13 17 -12 4 4 -7 9 -10 17 -5 17 4 0 2 6
-4 12 -10 10 -15 10 -22 -2 -6 -9 -10 -10 -10 -3 0 7 9 17 20 23 11 6 20 7 20
3 0 -4 5 -2 12 5 6 6 14 9 17 5 3 -3 0 -8 -6 -10z m217 -232 c0 -4 -6 -8 -14
-8 -8 0 -12 6 -9 14 5 13 23 9 23 -6z"/>
<path d="M1579 1242 c0 -4 -2 -15 -4 -25 -2 -9 0 -15 5 -12 5 3 10 0 12 -6 2
-7 8 -6 16 3 9 11 7 18 -8 31 -11 9 -20 13 -21 9z m26 -30 c-3 -3 -11 0 -18 7
-9 10 -8 11 6 5 10 -3 15 -9 12 -12z"/>
<path d="M2369 1202 c6 -11 7 -22 4 -26 -3 -3 -2 -6 4 -6 21 0 22 30 2 41 -18
9 -19 9 -10 -9z"/>
<path d="M1820 1200 c-9 -6 -10 -10 -3 -10 6 0 15 5 18 10 8 12 4 12 -15 0z"/>
<path d="M4045 1200 c3 -5 8 -10 11 -10 2 0 4 5 4 10 0 6 -5 10 -11 10 -5 0
-7 -4 -4 -10z"/>
<path d="M4075 1190 c5 -8 10 -23 11 -32 2 -30 4 -31 18 -19 10 8 16 9 21 1 3
-5 2 -10 -3 -10 -5 0 -9 -7 -9 -15 0 -8 4 -12 8 -9 4 2 10 -2 12 -8 4 -10 6
-10 6 0 1 7 6 10 11 7 8 -5 7 -12 -2 -23 -12 -15 -11 -16 5 -3 15 12 21 9 18
-12 0 -4 5 -6 12 -5 6 2 11 -3 9 -11 -2 -11 0 -12 11 -3 17 15 50 5 40 -12 -4
-6 1 -5 10 3 20 16 23 2 5 -20 -7 -7 -4 -7 6 3 17 15 14 44 -4 33 -4 -3 -10 2
-14 10 -3 9 -12 12 -22 8 -12 -4 -15 -3 -10 5 7 12 -5 16 -32 13 -7 -1 -11 2
-10 7 2 5 -22 31 -51 58 -30 27 -51 42 -46 34z m30 -29 c3 -5 2 -12 -3 -15 -5
-3 -9 1 -9 9 0 17 3 19 12 6z m99 -87 c3 -8 2 -12 -4 -9 -6 3 -10 10 -10 16 0
14 7 11 14 -7z"/>
<path d="M4061 1164 c0 -11 3 -14 6 -6 3 7 2 16 -1 19 -3 4 -6 -2 -5 -13z"/>
<path d="M2395 1129 c-10 -15 3 -25 16 -12 7 7 7 13 1 17 -6 3 -14 1 -17 -5z"/>
<path d="M4431 1111 c-11 -11 -22 -17 -24 -14 -3 2 -10 -4 -16 -15 -6 -11 -7
-22 -4 -26 9 -8 -28 -3 -44 7 -6 4 -14 3 -18 -2 -3 -6 -12 -8 -20 -4 -9 3 -15
-1 -15 -10 0 -22 27 -29 44 -11 21 21 21 21 38 6 13 -10 17 -10 22 3 3 9 10
14 15 10 10 -6 44 38 47 62 3 18 -2 17 -25 -6z m3 -26 c-19 -29 -20 -30 -28
-9 -3 8 -2 12 4 9 6 -3 13 1 16 9 3 9 10 16 15 16 5 0 2 -11 -7 -25z m-94 -29
c0 -2 -6 -9 -14 -15 -11 -9 -16 -9 -22 0 -4 7 -3 9 4 5 6 -3 13 -2 17 4 6 10
15 14 15 6z"/>
<path d="M3729 1101 c13 -12 20 -21 15 -21 -4 0 -3 -5 3 -11 6 -6 9 -19 6 -28
-4 -14 -3 -14 6 -1 10 14 16 7 12 -13 -1 -5 2 -6 6 -4 9 5 47 -33 51 -52 1 -7
9 -20 17 -28 9 -8 13 -18 10 -23 -3 -5 2 -7 10 -6 9 1 14 6 13 12 -2 5 -7 8
-12 6 -5 -2 -6 5 -2 14 5 12 -6 28 -35 55 -22 20 -41 41 -41 45 -1 16 -23 40
-53 58 l-30 18 24 -21z m46 -41 c10 -11 16 -20 13 -20 -3 0 -13 9 -23 20 -10
11 -16 20 -13 20 3 0 13 -9 23 -20z m80 -91 c11 -16 1 -19 -13 -3 -7 8 -8 14
-3 14 5 0 13 -5 16 -11z"/>
<path d="M1073 1072 c2 -12 6 -24 10 -28 3 -4 4 4 2 16 -6 30 -16 40 -12 12z"/>
<path d="M2679 1064 c-17 -21 -22 -51 -9 -59 6 -4 13 1 16 9 3 9 10 13 15 10
5 -3 6 3 2 13 -5 15 -2 14 18 -4 17 -16 29 -19 39 -13 12 8 12 10 1 10 -7 0
-11 6 -8 15 7 17 -9 30 -18 15 -3 -5 -11 -10 -17 -10 -6 0 -5 7 3 18 13 16 13
16 -7 0 -25 -22 -41 -24 -24 -3 7 8 10 15 7 15 -2 0 -11 -7 -18 -16z m67 -24
c0 -12 -4 -16 -9 -11 -5 5 -6 14 -3 20 10 15 12 14 12 -9z m-63 -15 c-7 -21
-12 -19 -10 4 0 11 5 18 9 15 4 -3 5 -11 1 -19z"/>
<path d="M2083 1057 c-17 -7 -43 -22 -58 -35 -14 -12 -30 -20 -35 -17 -4 3 -6
-3 -3 -14 7 -29 -16 -36 -26 -7 -10 24 -11 24 -55 11 -25 -8 -46 -11 -46 -8 0
4 -5 2 -12 -5 -7 -7 -20 -12 -29 -12 -9 0 -23 -8 -30 -17 -12 -14 -12 -16 0
-8 11 6 13 4 8 -7 -3 -9 0 -21 6 -27 8 -8 5 -16 -9 -32 -19 -22 -19 -22 4 -10
12 7 22 8 21 4 -1 -4 0 -11 1 -15 7 -21 4 -34 -9 -44 -17 -13 -6 -36 17 -32 9
2 17 -3 18 -9 1 -7 2 -14 4 -15 1 -2 3 -10 5 -18 2 -8 6 -23 10 -32 4 -11 3
-18 -4 -18 -6 0 -10 3 -10 8 1 4 1 14 0 22 -1 13 -3 13 -10 1 -11 -17 9 -53
26 -47 7 3 10 -4 7 -20 -3 -19 -1 -24 8 -18 10 5 11 4 1 -7 -19 -19 -16 -36 8
-42 12 -3 18 -10 14 -17 -4 -6 -1 -17 5 -25 6 -8 9 -18 6 -24 -3 -5 -1 -12 4
-14 6 -3 5 -4 -2 -3 -7 2 -12 10 -10 18 1 9 -5 22 -15 29 -15 13 -15 12 -4 -8
6 -13 9 -23 5 -23 -3 0 -1 -6 5 -14 9 -11 9 -15 -1 -19 -7 -2 -1 -8 15 -12 32
-8 31 -7 11 -48 l-15 -32 20 25 c19 24 25 10 7 -19 -7 -11 -5 -13 10 -7 10 4
15 4 11 0 -4 -4 -1 -14 6 -22 9 -13 9 -14 0 -8 -7 4 -13 3 -13 -2 0 -13 39
-22 46 -11 3 5 11 9 17 8 7 -1 24 3 39 9 15 6 35 9 43 6 8 -4 15 -1 15 6 0 6
4 9 9 6 5 -3 14 1 21 9 7 8 9 15 4 15 -5 0 -2 5 6 10 13 8 13 10 -1 10 -19 0
-43 87 -26 97 6 4 7 1 2 -7 -5 -8 -4 -11 3 -6 6 4 9 13 6 20 -4 10 6 13 41 12
26 -1 49 2 52 7 3 5 12 6 20 3 9 -4 11 -2 7 6 -5 8 -2 9 9 5 9 -3 19 -2 22 4
4 5 11 6 17 3 5 -4 3 5 -7 19 -16 25 -16 26 9 42 14 9 28 25 31 36 4 10 10 19
15 19 5 0 0 -16 -11 -35 -12 -19 -25 -33 -29 -30 -14 8 -5 -24 10 -38 12 -10
12 -9 2 4 -16 21 7 42 34 33 17 -6 17 -5 -1 9 -11 9 -15 17 -7 17 6 0 11 6 10
13 -2 6 2 11 7 10 6 -1 11 7 11 17 0 10 -3 17 -6 15 -4 -2 -6 22 -6 55 1 32 4
56 8 54 5 -3 8 -1 8 5 0 5 -6 12 -12 14 -10 4 -9 8 2 16 13 9 12 11 -4 11 -14
0 -17 6 -14 25 3 15 1 22 -5 18 -6 -4 -8 0 -4 11 4 10 3 15 -3 11 -6 -3 -10 1
-10 9 0 8 -7 22 -16 30 -8 9 -13 16 -10 16 15 0 -53 55 -88 71 -47 21 -87 23
-133 6z m50 -151 c9 -7 17 -18 17 -24 0 -6 3 -12 8 -15 4 -2 0 -2 -8 0 -9 3
-6 -4 8 -17 12 -12 20 -26 16 -31 -3 -5 0 -16 6 -24 12 -15 3 -21 -24 -16 -5
1 -2 -9 8 -23 15 -24 15 -26 -4 -36 -11 -6 -26 -8 -32 -4 -7 4 -8 3 -4 -4 4
-7 1 -12 -8 -12 -9 0 -16 5 -16 11 0 5 -5 7 -11 4 -9 -6 -48 28 -50 44 0 3 -3
15 -5 26 -14 58 -10 86 12 110 25 27 59 32 87 11z m-298 -106 c-3 -5 -10 -10
-16 -10 -5 0 -9 5 -9 10 0 6 7 10 16 10 8 0 12 -4 9 -10z m355 -34 c0 -3 -4
-8 -10 -11 -5 -3 -10 -1 -10 4 0 6 5 11 10 11 6 0 10 -2 10 -4z m-21 -178 c26
1 58 5 73 11 20 7 29 7 37 -3 15 -18 2 -27 -20 -13 -14 9 -21 9 -31 -1 -11
-11 -9 -12 7 -6 l20 7 -20 -16 c-17 -13 -20 -13 -23 -1 -5 19 -21 18 -29 -2
-5 -13 -7 -13 -14 -2 -7 11 -11 10 -20 -2 -9 -13 -10 -13 -6 1 4 13 -1 15 -23
13 -21 -3 -29 2 -33 16 -4 17 -2 18 15 9 11 -6 41 -11 67 -11z m-45 -27 c3 -5
-1 -14 -8 -20 -12 -10 -14 -9 -11 6 2 10 4 19 4 21 2 5 10 2 15 -7z"/>
<path d="M2090 901 c0 -7 -6 -11 -14 -8 -7 3 -20 -3 -29 -14 -12 -13 -13 -19
-4 -19 8 0 7 -4 -3 -10 -12 -8 -12 -10 -1 -10 10 0 11 -3 3 -13 -8 -9 -8 -17
0 -27 8 -12 9 -12 4 2 -3 10 -1 20 5 23 5 4 7 10 4 15 -5 8 23 25 37 22 4 -1
4 6 1 16 -6 15 -5 15 10 3 9 -7 15 -16 13 -20 -2 -3 2 -11 8 -17 10 -9 13 -5
13 17 0 26 -4 31 -23 28 -4 0 -11 5 -15 13 -7 11 -9 11 -9 -1z m-15 -32 c-10
-15 -25 -10 -19 6 4 8 10 12 15 9 5 -3 7 -10 4 -15z"/>
<path d="M2146 805 c4 -8 11 -15 16 -15 6 0 5 6 -2 15 -7 8 -14 15 -16 15 -2
0 -1 -7 2 -15z"/>
<path d="M2055 760 c-3 -5 -1 -10 4 -10 6 0 11 5 11 10 0 6 -2 10 -4 10 -3 0
-8 -4 -11 -10z"/>
<path d="M4215 1040 c-3 -5 -1 -10 4 -10 6 0 11 5 11 10 0 6 -2 10 -4 10 -3 0
-8 -4 -11 -10z"/>
<path d="M2433 987 c0 -9 6 -18 13 -21 8 -3 11 -12 8 -21 -3 -8 -2 -15 4 -15
14 0 10 22 -9 51 -12 17 -16 19 -16 6z"/>
<path d="M2776 953 c-6 -14 -5 -15 5 -6 7 7 10 15 7 18 -3 3 -9 -2 -12 -12z"/>
<path d="M3476 914 c-4 -9 -4 -19 -1 -22 3 -3 5 0 5 7 0 7 5 9 10 6 6 -4 7
-11 4 -17 -4 -7 -2 -8 5 -4 9 6 9 12 -1 24 -7 10 -13 18 -14 20 -1 2 -4 -5 -8
-14z"/>
<path d="M1776 894 c-5 -14 -4 -15 9 -4 17 14 19 20 6 20 -5 0 -12 -7 -15 -16z"/>
<path d="M1535 880 c-18 -20 -18 -21 0 -14 12 5 16 4 11 -4 -5 -8 -1 -10 10
-5 11 4 13 8 6 11 -7 2 -12 8 -12 13 0 6 5 7 12 3 7 -4 8 -3 4 4 -9 16 -10 15
-31 -8z"/>
<path d="M2466 864 c-5 -14 -4 -15 9 -4 17 14 19 20 6 20 -5 0 -12 -7 -15 -16z"/>
<path d="M957 859 c7 -7 15 -10 18 -7 3 3 -2 9 -12 12 -14 6 -15 5 -6 -5z"/>
<path d="M1001 851 c-17 -11 -5 -32 14 -25 10 4 13 0 10 -15 -3 -18 -1 -20 15
-11 25 14 37 13 22 -2 -7 -7 -12 -17 -12 -22 0 -6 5 -4 10 4 7 11 10 11 10 2
0 -8 5 -10 12 -6 7 5 9 2 5 -9 -9 -24 16 -39 38 -23 18 13 16 15 -21 34 -21
11 -38 24 -36 28 2 5 -5 14 -14 19 -10 6 -23 16 -29 22 -6 8 -15 9 -24 4z
m118 -102 c-15 -9 -32 -2 -24 11 3 5 13 6 21 3 12 -4 13 -8 3 -14z"/>
<path d="M1799 858 c0 -2 -2 -11 -4 -21 -3 -15 -1 -16 11 -6 7 6 11 15 8 20
-5 9 -13 12 -15 7z"/>
<path d="M3536 851 c-4 -6 -1 -20 7 -31 13 -19 15 -19 21 -4 8 21 -18 52 -28
35z m18 -17 c3 -8 2 -12 -4 -9 -6 3 -10 10 -10 16 0 14 7 11 14 -7z"/>
<path d="M2476 842 c-3 -5 1 -9 9 -9 8 0 12 4 9 9 -3 4 -7 8 -9 8 -2 0 -6 -4
-9 -8z"/>
<path d="M2813 831 c0 -11 5 -18 9 -15 4 3 5 11 1 19 -7 21 -12 19 -10 -4z"/>
<path d="M3016 822 c-3 -4 4 -9 15 -9 23 -2 25 3 4 10 -8 4 -16 3 -19 -1z"/>
<path d="M2488 807 c7 -8 8 -18 4 -22 -4 -5 -1 -5 6 -1 17 10 15 23 -4 30 -13
5 -14 4 -6 -7z"/>
<path d="M3562 794 c-7 -8 -8 -14 -3 -14 16 0 62 -54 57 -67 -3 -7 1 -10 9 -6
8 3 12 9 9 14 -3 5 -1 9 4 9 13 0 42 -62 35 -74 -3 -5 -1 -6 5 -2 11 7 17 -6
13 -27 -1 -5 3 -6 8 -3 14 9 42 -5 34 -18 -4 -8 -2 -8 7 1 13 12 43 7 36 -6
-3 -4 4 -8 15 -8 33 -3 15 30 -21 39 -8 2 -20 8 -28 13 -31 23 -119 112 -130
130 -8 14 -12 16 -12 5 0 -10 -5 -8 -13 6 -10 19 -14 20 -25 8z m58 -49 c14
-19 14 -19 -2 -6 -10 7 -18 18 -18 24 0 6 1 8 3 6 1 -2 9 -13 17 -24z m110
-105 l25 -21 -25 12 c-26 13 -49 37 -50 53 0 6 6 3 13 -6 6 -9 23 -26 37 -38z"/>
<path d="M1822 771 c-10 -6 -10 -10 3 -21 8 -7 18 -10 22 -6 3 3 1 6 -6 6 -8
0 -11 7 -7 15 6 17 6 18 -12 6z"/>
<path d="M2375 760 c-3 -5 -1 -10 4 -10 6 0 11 5 11 10 0 6 -2 10 -4 10 -3 0
-8 -4 -11 -10z"/>
<path d="M1134 729 c-8 -13 1 -22 24 -24 33 -2 43 -14 31 -38 -10 -21 -10 -21
5 -3 9 12 16 14 16 7 0 -18 30 -47 31 -29 0 7 5 4 10 -7 11 -22 48 -50 56 -42
9 10 -22 47 -36 42 -9 -4 -11 0 -7 10 3 9 2 13 -4 10 -6 -3 -10 -1 -10 5 0 7
-7 9 -15 6 -10 -4 -15 -1 -13 9 2 7 -1 14 -5 14 -5 0 -16 8 -25 19 -22 24 -50
34 -58 21z m31 -17 c-3 -3 -11 0 -18 7 -9 10 -8 11 6 5 10 -3 15 -9 12 -12z
m126 -99 c13 -16 12 -17 -3 -4 -10 7 -18 15 -18 17 0 8 8 3 21 -13z"/>
<path d="M3963 729 c-9 -9 -8 -15 2 -25 18 -19 31 -18 15 1 -6 8 -9 19 -5 25
8 13 2 13 -12 -1z"/>
<path d="M2678 719 c-7 -4 -15 -6 -19 -3 -4 2 -9 -3 -12 -10 -4 -10 -15 -13
-31 -10 -18 3 -26 0 -26 -10 0 -18 27 -29 36 -14 4 7 9 6 15 -3 7 -11 9 -11 9
-1 0 8 5 10 13 6 9 -6 9 -4 -1 8 -10 13 -10 17 4 22 9 4 19 4 22 1 3 -3 0 -5
-7 -5 -7 0 -9 -5 -6 -11 5 -6 13 -3 22 10 8 12 19 19 24 16 5 -4 9 -2 9 4 0
11 -34 11 -52 0z m-48 -35 c0 -8 -19 -13 -24 -6 -3 5 1 9 9 9 8 0 15 -2 15 -3z"/>
<path d="M4199 704 c-18 -22 -20 -42 -4 -48 10 -3 12 0 8 11 -4 11 -3 14 6 9
19 -12 44 13 30 30 -15 18 -24 18 -40 -2z m32 -9 c0 -6 -10 -11 -21 -11 -16
-1 -18 1 -9 13 13 15 31 14 30 -2z"/>
<path d="M2535 689 c-4 -5 -4 -13 -1 -16 3 -4 6 -1 6 5 0 6 7 9 16 5 11 -4 12
-8 4 -13 -8 -5 -7 -9 3 -13 10 -4 14 0 13 10 -3 20 -33 37 -41 22z"/>
<path d="M2706 683 c-6 -14 -5 -15 5 -6 7 7 10 15 7 18 -3 3 -9 -2 -12 -12z"/>
<path d="M3646 687 c3 -10 9 -15 12 -12 3 3 0 11 -7 18 -10 9 -11 8 -5 -6z"/>
<path d="M4093 670 c-1 -11 2 -20 8 -20 5 0 9 -7 9 -17 0 -9 3 -14 6 -10 4 3
3 14 -1 24 -5 10 -9 21 -9 25 -2 17 -12 15 -13 -2z"/>
<path d="M4139 657 c0 -1 -2 -10 -4 -20 -3 -17 -2 -17 13 -4 9 8 24 12 32 9 8
-2 12 -2 9 2 -6 6 -48 17 -50 13z"/>
<path d="M1495 568 c-48 -53 -73 -66 -87 -45 -5 8 -8 9 -8 1 0 -17 21 -30 50
-32 19 -1 21 1 10 8 -8 5 -12 10 -7 11 24 5 33 4 38 -4 3 -5 9 -1 12 8 5 10 3
14 -4 9 -7 -4 -10 -1 -7 7 3 8 11 13 17 11 8 -1 9 2 5 9 -5 9 -2 10 9 6 9 -3
19 -1 23 5 4 7 3 8 -4 4 -8 -5 -11 0 -9 14 2 12 10 26 18 31 8 5 9 9 2 9 -6 0
-32 -23 -58 -52z m35 19 c0 -2 -12 -14 -27 -28 l-28 -24 24 28 c23 25 31 32
31 24z"/>
<path d="M1306 586 c-16 -16 -16 -18 -3 -13 18 7 42 -24 29 -39 -4 -5 1 -2 11
6 15 11 20 11 27 1 4 -8 13 -10 19 -7 6 4 9 12 5 17 -3 5 -10 7 -15 4 -5 -4
-9 -1 -9 4 0 6 -3 10 -7 10 -19 -3 -34 2 -29 9 12 20 -10 27 -28 8z"/>
<path d="M1380 506 c0 -2 8 -10 18 -17 15 -13 16 -12 3 4 -13 16 -21 21 -21
13z"/>
<path d="M2130 485 c0 -8 4 -15 10 -15 5 0 7 7 4 15 -4 8 -8 15 -10 15 -2 0
-4 -7 -4 -15z"/>
<path d="M1906 444 c-5 -14 -4 -15 9 -4 17 14 19 20 6 20 -5 0 -12 -7 -15 -16z"/>
<path d="M2118 369 c-17 -12 -29 -16 -33 -9 -9 15 -48 -15 -50 -39 -1 -11 2
-18 7 -15 4 3 8 12 8 20 0 8 4 13 9 9 5 -3 13 0 17 6 4 8 9 7 15 -2 7 -11 9
-11 9 1 0 13 1 13 10 0 6 -9 10 -10 10 -3 0 6 7 19 16 28 24 24 13 26 -18 4z"/>
<path d="M1995 341 c-3 -6 -14 -8 -25 -6 -17 3 -18 1 -7 -16 6 -10 13 -15 15
-10 2 6 10 7 17 5 20 -8 35 4 28 21 -6 17 -19 19 -28 6z m20 -11 c3 -5 -1 -10
-10 -10 -9 0 -13 5 -10 10 3 6 8 10 10 10 2 0 7 -4 10 -10z"/>
</g>
</svg>
