<?xml version="1.0" encoding="UTF-8" standalone="no"?>
<!-- Created with Inkscape (http://www.inkscape.org/) -->

<svg
   xmlns:dc="http://purl.org/dc/elements/1.1/"
   xmlns:cc="http://creativecommons.org/ns#"
   xmlns:rdf="http://www.w3.org/1999/02/22-rdf-syntax-ns#"
   xmlns:svg="http://www.w3.org/2000/svg"
   xmlns="http://www.w3.org/2000/svg"
   xmlns:sodipodi="http://sodipodi.sourceforge.net/DTD/sodipodi-0.dtd"
   xmlns:inkscape="http://www.inkscape.org/namespaces/inkscape"
   width="300"
   height="30"
   viewBox="0 0 79.374 7.9374"
   version="1.1"
   id="svg8"
   inkscape:version="0.92.2 5c3e80d, 2017-08-06"
   sodipodi:docname="logo.svg">
  <defs
     id="defs2" />
  <sodipodi:namedview
     id="base"
     pagecolor="#ffffff"
     bordercolor="#666666"
     borderopacity="1.0"
     inkscape:pageopacity="0.0"
     inkscape:pageshadow="2"
     inkscape:zoom="32"
     inkscape:cx="282.86697"
     inkscape:cy="11.900528"
     inkscape:document-units="px"
     inkscape:current-layer="layer1"
     showgrid="false"
     units="px"
     inkscape:window-width="1920"
     inkscape:window-height="1016"
     inkscape:window-x="0"
     inkscape:window-y="27"
     inkscape:window-maximized="1" />
  <metadata
     id="metadata5">
    <rdf:RDF>
      <cc:Work
         rdf:about="">
        <dc:format>image/svg+xml</dc:format>
        <dc:type
           rdf:resource="http://purl.org/dc/dcmitype/StillImage" />
        <dc:title />
      </cc:Work>
    </rdf:RDF>
  </metadata>
  <g
     inkscape:label="Layer 1"
     inkscape:groupmode="layer"
     id="layer1"
     transform="translate(0,-289.05996)">
    <path
       style="fill:none;fill-opacity:1;stroke:#000000;stroke-width:0.79373997;stroke-linecap:butt;stroke-linejoin:miter;stroke-miterlimit:4;stroke-dasharray:none;stroke-opacity:1"
       d="m 44.441581,291.76106 c 0,0 0.01136,1.33625 0.01004,1.44098 l -0.0124,1.03056 -0.03437,1.82743"
       id="path87"
       inkscape:connector-curvature="0"
       sodipodi:nodetypes="cccc" />
    <path
       style="fill:none;fill-opacity:1;stroke:#000000;stroke-width:0.82907772;stroke-linecap:butt;stroke-linejoin:miter;stroke-miterlimit:4;stroke-dasharray:none;stroke-opacity:1"
       d="m 7.93111,290.88016 c 0,0.0148 0.02596,0.72585 0.024648,0.93835 -0.00154,0.24938 -0.02715,1.31273 -0.021725,1.58952 l -3e-7,0.81157 0.00585,0.36404 v 1.13793"
       id="path11"
       inkscape:connector-curvature="0"
       sodipodi:nodetypes="cscccc" />
    <path
       style="fill:none;fill-opacity:1;stroke:#000000;stroke-width:0.79373997;stroke-linecap:butt;stroke-linejoin:miter;stroke-miterlimit:4;stroke-dasharray:none;stroke-opacity:1"
       d="m 7.9959866,293.42914 c 0.1686535,-0.0752 0.899323,-0.0413 0.899323,-0.0413 0,0 0.4612403,-0.0206 0.7577278,-0.0174"
       id="path13"
       inkscape:connector-curvature="0"
       sodipodi:nodetypes="ccc" />
    <path
       style="fill:none;fill-opacity:1;stroke:#000000;stroke-width:0.85038453;stroke-linecap:butt;stroke-linejoin:miter;stroke-miterlimit:4;stroke-dasharray:none;stroke-opacity:1"
       d="m 9.7055384,290.91284 c -0.00376,1.08885 0.00217,2.6741 -0.00585,2.90649 -9.796e-4,0.18672 -2.851e-4,1.71564 -0.00581,1.90581"
       id="path15"
       inkscape:connector-curvature="0"
       sodipodi:nodetypes="ccc" />
    <path
       style="fill:none;fill-opacity:1;stroke:#000000;stroke-width:0.79373997;stroke-linecap:butt;stroke-linejoin:miter;stroke-miterlimit:4;stroke-dasharray:none;stroke-opacity:1"
       d="m 11.780898,292.72038 -0.0029,0.17531 c -2.64e-4,0.0158 0.0076,0.0829 0.0029,0.15546 0.01371,0.11744 0.0487,0.17919 0.04725,0.28353 0.03833,0.11713 0.0234,0.22643 0.0379,0.26174 0.0162,0.15868 0.03029,0.29267 0.03029,0.44696 0.02843,0.17081 0.0633,0.24047 0.06706,0.36799 l -0.0124,1.16875"
       id="path35"
       inkscape:connector-curvature="0"
       sodipodi:nodetypes="cscccccc" />
    <path
       style="fill:none;fill-opacity:1;stroke:#000000;stroke-width:0.79373997;stroke-linecap:butt;stroke-linejoin:miter;stroke-miterlimit:4;stroke-dasharray:none;stroke-opacity:1"
       d="m 13.810132,291.26755 v 2.74029 0.56696 c -0.01928,0.16708 -0.03938,0.48774 0.02421,0.59714 l 0.07028,0.3006 c 0.09803,0.16265 0.348285,0.0831 0.504664,0.0111 0.293618,-0.037 0.620658,-0.17974 0.943627,-0.20836 0.267676,-0.0237 0.821373,-0.01 1.196907,-0.20839"
       id="path39"
       inkscape:connector-curvature="0"
       sodipodi:nodetypes="ccccccsc" />
    <path
       style="fill:none;fill-opacity:1;stroke:#000000;stroke-width:0.79373997;stroke-linecap:butt;stroke-linejoin:miter;stroke-miterlimit:4;stroke-dasharray:none;stroke-opacity:1"
       d="m 19.189048,296.22131 c 0,0 0.09402,-0.21411 0.126975,-0.31841 0.08605,-0.27235 0.119017,-0.51422 0.149556,-0.66392 0.01895,-0.31132 0.07484,-0.63024 0.102138,-0.8431 l 0.0041,-0.6644 c 0.02107,-0.50637 -0.0189,-0.76994 0.02658,-1.02993 0.04144,-0.47648 -0.194685,-0.82106 -0.01949,-1.25446 0.04555,-0.34875 0.186362,-0.34123 0.465374,-0.17244 0.08786,0.0346 0.240382,0.0926 0.345491,0.13584 0.247722,0.15641 0.504745,0.2763 0.56695,0.378 0.08472,0.10164 0.157798,0.31324 0.256307,0.46664 0.226222,0.8096 0.08783,1.04118 -0.526795,1.43934 -0.35145,0.10447 -1.03297,0.42404 -1.114448,0.46221"
       id="path59"
       inkscape:connector-curvature="0"
       sodipodi:nodetypes="csccccccccccc" />
    <path
       style="fill:none;fill-opacity:1;stroke:#000000;stroke-width:0.79373997;stroke-linecap:butt;stroke-linejoin:miter;stroke-miterlimit:4;stroke-dasharray:none;stroke-opacity:1"
       d="m 25.408008,291.28648 c 0.0613,0.48195 0.168358,0.85897 0.171451,1.16473 0.0079,0.22357 0.06673,0.85465 0.07696,1.18759 -0.03689,0.55404 -0.0098,0.91468 -0.05847,1.18591 -0.05031,0.18972 -0.15837,1.08339 -0.159757,1.22285"
       id="path71"
       inkscape:connector-curvature="0"
       sodipodi:nodetypes="ccccc" />
    <path
       style="fill:none;fill-opacity:1;stroke:#000000;stroke-width:0.79373997;stroke-linecap:butt;stroke-linejoin:miter;stroke-miterlimit:4;stroke-dasharray:none;stroke-opacity:1"
       d="m 35.403243,293.39185 c 0,0 0.0012,0.28761 0.02247,0.45716 0.05231,0.41764 0.09419,0.76708 0.186424,0.89874 0.203334,0.24055 0.502817,0.22177 0.880716,0.30692 0.1659,0.0355 0.543972,-0.0432 0.723577,-0.0433 0.23861,-0.0306 0.58844,-0.0124 0.739941,-0.0724 0.0858,-0.057 0.374048,-0.29518 0.499984,-0.39629 0.258195,-0.54371 0.268414,-1.18275 0.333016,-1.73346 0.13274,-0.44515 0.136188,-0.66065 -0.03602,-0.9359 -0.174689,-0.17359 -0.296019,-0.30532 -0.394507,-0.32729 -0.162227,-0.0686 -0.238965,-0.11517 -0.407506,-0.13997 -0.308213,-0.0517 -0.697558,-0.17112 -0.886732,-0.18125 -0.185206,-0.007 -0.708439,0.018 -0.830267,0.0305 -1.079659,0.42481 -0.934978,0.84316 -0.907517,1.37884 z"
       id="path83"
       inkscape:connector-curvature="0"
       sodipodi:nodetypes="csccccccccccccc" />
    <path
       style="fill:none;fill-opacity:1;stroke:#000000;stroke-width:0.79373997;stroke-linecap:butt;stroke-linejoin:miter;stroke-miterlimit:4;stroke-dasharray:none;stroke-opacity:1"
       d="m 41.919039,291.35021 c -0.301369,0.0178 -0.534365,0.0592 -0.727194,0.11467 -0.296931,0.0974 -0.455286,0.21181 -0.685132,0.44412 -0.166109,0.11449 -0.240369,0.27328 -0.33074,0.4253 -0.06552,0.15179 -0.07521,0.55078 -0.112811,0.75356 -0.06374,0.22051 -0.08109,0.4278 -0.0691,0.63008 0.0311,0.12288 -0.0031,0.74059 0.117883,0.80337 0.207233,0.10757 0.320485,0.42313 0.538005,0.46534 0.212099,0.0224 0.605803,0.14483 0.836216,0.12523 0.145076,-0.0241 0.582163,-0.0323 0.705831,-0.0417"
       id="path85"
       inkscape:connector-curvature="0"
       sodipodi:nodetypes="ccccccsccc" />
    <path
       style="fill:none;fill-opacity:1;stroke:#000000;stroke-width:0.79373997;stroke-linecap:butt;stroke-linejoin:miter;stroke-miterlimit:4;stroke-dasharray:none;stroke-opacity:1"
       d="m 42.492202,291.50431 0.413877,0.007 c 0.159482,0.04 0.284312,0.007 0.443946,0.0177 0.154692,0.006 0.324599,0.0148 0.512208,0.0231 0.254124,0.0229 0.453645,0.0351 0.689974,0.048 0.109261,0.01 0.229899,0.029 0.324232,0.0348 0.169957,0.0224 0.309109,0.0284 0.474901,0.0228 0.269181,0.0223 0.387672,0.008 0.60685,0.0254 0.219516,0.0354 0.435757,0.0131 0.643358,0.007"
       id="path91"
       inkscape:connector-curvature="0"
       sodipodi:nodetypes="ccccccccc" />
    <path
       style="fill:none;fill-opacity:1;stroke:#000000;stroke-width:0.79373997;stroke-linecap:butt;stroke-linejoin:miter;stroke-miterlimit:4;stroke-dasharray:none;stroke-opacity:1"
       d="m 46.458101,295.60949 c 0.138414,-0.30319 0.507786,-1.00142 0.634883,-1.27397 0.08718,-0.12193 0.08,-0.22042 0.151189,-0.35613 0.0609,-0.14963 0.140166,-0.28827 0.187805,-0.41814 0.0585,-0.12008 0.156097,-0.43205 0.223728,-0.51672 0.110709,-0.23346 0.246657,-0.46226 0.327864,-0.63941 0.106714,-0.23718 0.168375,-0.52633 0.281136,-0.69551 0.06401,-0.15245 0.208526,-0.33796 0.269896,-0.44822 0.190999,-0.43225 0.243826,-0.25342 0.447071,-0.16063 0.151447,0.209 0.16209,0.38427 0.217997,0.58941 0.04588,0.79912 0.02724,1.32432 0.162848,2.08727 0.05983,0.8592 0.09446,1.31456 0.09429,1.97488 l -1.483694,-1.36253 -0.807879,-0.82798"
       id="path95"
       inkscape:connector-curvature="0"
       sodipodi:nodetypes="cccccccccccccc" />
    <path
       style="fill:none;fill-opacity:1;stroke:#000000;stroke-width:0.79373997;stroke-linecap:butt;stroke-linejoin:miter;stroke-miterlimit:4;stroke-dasharray:none;stroke-opacity:1"
       d="m 51.387063,290.82332 c 0.004,0.33332 -0.0521,1.29002 0.0083,1.61162 0.0016,0.37704 0.0041,0.61574 0.02187,0.85448 0.03226,0.34452 0.04318,0.71091 0.05138,1.02591 -0.0084,0.21788 0.107354,0.78689 0.200214,0.97322 0.27379,0.48998 0.380428,0.61926 0.918954,0.58823 0.406298,-0.046 0.6394,-0.35982 0.793739,-0.49436 0.234006,-0.3148 0.395226,-0.63466 0.64613,-1.09012 0.06975,-0.17876 0.136404,-0.69061 0.177776,-0.84652 0.121893,-0.28086 0.07129,-0.60171 0.134065,-0.84513 0.05302,-0.16106 0.103367,-0.51515 0.103367,-1.04709 v -0.1349 0 l -0.02339,-0.60803"
       id="path101"
       inkscape:connector-curvature="0"
       sodipodi:nodetypes="cccccccccccccc" />
    <path
       style="fill:none;fill-opacity:1;stroke:#000000;stroke-width:0.79373997;stroke-linecap:butt;stroke-linejoin:miter;stroke-miterlimit:4;stroke-dasharray:none;stroke-opacity:1"
       d="m 56.449478,290.91739 c 0.162799,0.32932 -0.05474,0.0552 0.448352,0.91936 0.107564,0.12358 0.225373,0.5468 0.301495,0.66441 0.06935,0.1975 0.220922,0.42114 0.279855,0.63919 0.13464,0.29636 0.299902,0.50351 0.365316,0.7834 0.232334,0.88074 0.790067,1.57829 1.173094,2.26202"
       id="path105"
       inkscape:connector-curvature="0"
       sodipodi:nodetypes="cccccc" />
    <path
       style="fill:none;fill-opacity:1;stroke:#000000;stroke-width:0.79373997;stroke-linecap:butt;stroke-linejoin:miter;stroke-miterlimit:4;stroke-dasharray:none;stroke-opacity:1"
       d="m 72.538859,295.9098 c -0.0061,-0.80063 0.02303,-1.96365 0.01512,-2.36556 -0.01403,-0.14392 -7.4e-5,-0.60193 -0.02245,-0.70462 -0.02843,-0.0865 -0.04202,-0.33884 -0.03367,-0.57631 l 0.01182,-1.12852 c 0.02768,-0.0814 0.190021,0.0488 0.279051,0.16185 0.101105,0.12837 0.240183,0.36833 0.240183,0.36833 0.186461,0.32465 0.325748,0.61795 0.47732,0.90685 0.780317,0.79875 0.579504,0.80522 1.430176,-0.84827 0.09587,-0.31571 0.56345,-0.80404 0.619818,-0.55132 0.103292,0.46014 0.03416,1.45263 0.07831,1.79359 0.0041,0.81238 0.036,1.91177 0.02363,2.91633"
       id="path121"
       inkscape:connector-curvature="0"
       sodipodi:nodetypes="cccccscccccc" />
    <path
       style="fill:none;fill-opacity:1;stroke:#000000;stroke-width:0.79373997;stroke-linecap:butt;stroke-linejoin:miter;stroke-miterlimit:4;stroke-dasharray:none;stroke-opacity:1"
       d="m 17.356341,292.78972 -0.0029,0.17531 c -2.64e-4,0.0158 0.0076,0.0829 0.0029,0.15546 0.01371,0.11744 0.0487,0.17919 0.04725,0.28353 0.03833,0.11713 0.0234,0.22643 0.0379,0.26174 0.0162,0.15868 0.03029,0.29267 0.03029,0.44696 0.02843,0.17081 0.0633,0.24047 0.06706,0.36799 l -0.0124,1.16875"
       id="path35-6"
       inkscape:connector-curvature="0"
       sodipodi:nodetypes="cscccccc" />
    <path
       style="fill:none;fill-opacity:1;stroke:#000000;stroke-width:0.79373997;stroke-linecap:butt;stroke-linejoin:miter;stroke-miterlimit:4;stroke-dasharray:none;stroke-opacity:1"
       d="m 31.739311,290.50763 -0.02339,2.45966 0.03508,1.25684 c -0.05236,0.33039 -0.006,0.73784 0.05941,1.06144 0.09803,0.16265 0.441828,0.2468 0.598207,0.1748 0.293618,-0.037 0.550501,-0.016 0.87347,-0.0447 0.267676,-0.0237 0.821373,-0.01 1.196907,-0.20839"
       id="path39-3"
       inkscape:connector-curvature="0"
       sodipodi:nodetypes="cccccsc" />
    <path
       style="fill:none;fill-opacity:1;stroke:#000000;stroke-width:0.79373997;stroke-linecap:butt;stroke-linejoin:miter;stroke-miterlimit:4;stroke-dasharray:none;stroke-opacity:1"
       d="m 22.070427,296.14341 c 0,0 0.09402,-0.21411 0.126975,-0.31841 0.08605,-0.27235 0.119017,-0.51422 0.149556,-0.66392 0.01895,-0.31132 0.07484,-0.63024 0.102138,-0.8431 l 0.0041,-0.6644 c 0.02107,-0.50637 -0.0189,-0.76994 0.02658,-1.02993 0.04144,-0.47648 -0.194685,-0.82106 -0.01949,-1.25446 0.04555,-0.34875 0.186362,-0.34123 0.465374,-0.17244 0.08786,0.0346 0.240382,0.0926 0.345491,0.13584 0.247722,0.15641 0.504745,0.2763 0.56695,0.378 0.08472,0.10164 0.157798,0.31324 0.256307,0.46664 0.226222,0.8096 0.08783,1.04118 -0.526795,1.43934 -0.35145,0.10447 -1.03297,0.42404 -1.114448,0.46221"
       id="path59-7"
       inkscape:connector-curvature="0"
       sodipodi:nodetypes="csccccccccccc" />
    <path
       style="fill:none;fill-opacity:1;stroke:#000000;stroke-width:0.79373997;stroke-linecap:butt;stroke-linejoin:miter;stroke-miterlimit:4;stroke-dasharray:none;stroke-opacity:1"
       d="m 4.1814779,295.90737 c 0,0 0.09402,-0.21411 0.126975,-0.31841 0.08605,-0.27235 0.119017,-0.51422 0.149556,-0.66392 0.01895,-0.31132 0.07484,-0.63024 0.102138,-0.8431 l 0.0041,-0.6644 c 0.02107,-0.50637 -0.0189,-0.76994 0.02658,-1.02993 0.04144,-0.47648 -0.194685,-0.82106 -0.01949,-1.25446 0.04555,-0.34875 0.186362,-0.34123 0.4653741,-0.17244 0.08786,0.0346 0.2403819,0.0926 0.3454909,0.13584 0.247722,0.15641 0.5047451,0.2763 0.56695,0.378 0.08472,0.10164 0.1577981,0.31324 0.256307,0.46664 0.2262221,0.8096 0.08783,1.04118 -0.526795,1.43934 -0.35145,0.10447 -1.03297,0.42404 -1.114448,0.46221"
       id="path59-5"
       inkscape:connector-curvature="0"
       sodipodi:nodetypes="csccccccccccc" />
    <path
       style="fill:none;fill-opacity:1;stroke:#000000;stroke-width:0.79373997;stroke-linecap:butt;stroke-linejoin:miter;stroke-miterlimit:4;stroke-dasharray:none;stroke-opacity:1"
       d="m 25.206458,295.62702 c 0.293039,0.0754 1.661858,0.009 1.991044,-0.11926 0.189129,-0.0713 1.700681,-0.67377 2.176273,-0.77854"
       id="path71-6"
       inkscape:connector-curvature="0"
       sodipodi:nodetypes="ccc" />
    <path
       style="fill:none;fill-opacity:1;stroke:#000000;stroke-width:0.79373997;stroke-linecap:butt;stroke-linejoin:miter;stroke-miterlimit:4;stroke-dasharray:none;stroke-opacity:1"
       d="m 25.343912,293.59912 c 0.293039,0.0754 1.670628,-0.0878 1.999814,-0.21573 0.189129,-0.0713 0.717246,-0.23755 1.192838,-0.34232"
       id="path71-6-7"
       inkscape:connector-curvature="0"
       sodipodi:nodetypes="ccc" />
    <path
       style="fill:none;fill-opacity:1;stroke:#000000;stroke-width:0.79373997;stroke-linecap:butt;stroke-linejoin:miter;stroke-miterlimit:4;stroke-dasharray:none;stroke-opacity:1"
       d="m 25.13344,291.67563 c 0.380736,-0.14091 1.69986,-0.0703 2.029046,-0.19819 0.189129,-0.0713 0.813454,-0.21499 1.289046,-0.31976"
       id="path71-6-5"
       inkscape:connector-curvature="0"
       sodipodi:nodetypes="ccc" />
    <path
       style="fill:none;fill-opacity:1;stroke:#000000;stroke-width:0.79373997;stroke-linecap:butt;stroke-linejoin:miter;stroke-miterlimit:4;stroke-dasharray:none;stroke-opacity:1"
       d="m 56.062706,296.0992 c 0.16303,-0.32921 0.300422,-0.58273 0.458858,-0.91417 0.03298,-0.16047 0.430245,-0.65971 0.477565,-0.79158 0.114933,-0.17494 0.200766,-0.43111 0.338351,-0.61024 0.15391,-0.28683 0.218333,-0.54388 0.401154,-0.76567 0.48691,-0.69562 0.849275,-1.54665 1.109199,-2.33906"
       id="path105-3"
       inkscape:connector-curvature="0"
       sodipodi:nodetypes="cccccc" />
    <path
       style="fill:none;fill-opacity:1;stroke:#000000;stroke-width:0.79373997;stroke-linecap:butt;stroke-linejoin:miter;stroke-miterlimit:4;stroke-dasharray:none;stroke-opacity:1"
       d="m 66.304246,291.56007 c -0.301369,0.0178 -0.534365,0.0592 -0.727194,0.11467 -0.296931,0.0974 -0.455286,0.21181 -0.685132,0.44412 -0.166109,0.11449 -0.240369,0.27328 -0.33074,0.4253 -0.06552,0.15179 -0.07521,0.55078 -0.112811,0.75356 -0.06374,0.22051 -0.08109,0.4278 -0.0691,0.63008 0.0311,0.12288 -0.0031,0.74059 0.117883,0.80337 0.207233,0.10757 0.320485,0.42313 0.538005,0.46534 0.212099,0.0224 0.605803,0.14483 0.836216,0.12523 0.145076,-0.0241 0.582163,-0.0323 0.705831,-0.0417"
       id="path85-3"
       inkscape:connector-curvature="0"
       sodipodi:nodetypes="ccccccsccc" />
    <path
       style="fill:none;fill-opacity:1;stroke:#000000;stroke-width:0.79373997;stroke-linecap:butt;stroke-linejoin:miter;stroke-miterlimit:4;stroke-dasharray:none;stroke-opacity:1"
       d="m 67.578545,293.59531 c 0,0 0.0012,0.28761 0.02247,0.45716 0.05231,0.41764 0.09419,0.76708 0.186424,0.89874 0.203334,0.24055 0.502817,0.22177 0.880716,0.30692 0.1659,0.0355 0.543972,-0.0432 0.723577,-0.0433 0.23861,-0.0306 0.58844,-0.0124 0.739941,-0.0724 0.0858,-0.057 0.374048,-0.29518 0.499984,-0.39629 0.258195,-0.54371 0.268414,-1.18275 0.333016,-1.73346 0.13274,-0.44515 0.136188,-0.66065 -0.03602,-0.9359 -0.174689,-0.17359 -0.296019,-0.30532 -0.394507,-0.32729 -0.162227,-0.0686 -0.238965,-0.11517 -0.407506,-0.13997 -0.308213,-0.0517 -0.697558,-0.17112 -0.886732,-0.18125 -0.185206,-0.007 -0.708439,0.018 -0.830267,0.0305 -1.079659,0.42481 -0.934978,0.84316 -0.907517,1.37884 z"
       id="path83-6"
       inkscape:connector-curvature="0"
       sodipodi:nodetypes="csccccccccccccc" />
    <ellipse
       style="fill:#000000;fill-opacity:1;stroke:#000000;stroke-width:0.32866088;stroke-miterlimit:4;stroke-dasharray:none;stroke-opacity:1"
       id="path1485"
       cx="61.639095"
       cy="295.0271"
       rx="1.1664813"
       ry="1.1430955" />
    <circle
       style="fill:#000000;fill-opacity:1;stroke:#000000;stroke-width:0.26458001;stroke-miterlimit:4;stroke-dasharray:none;stroke-opacity:1"
       id="path1487"
       cx="11.740738"
       cy="291.39157"
       r="0.72759497" />
    <circle
       style="fill:#000000;fill-opacity:1;stroke:#000000;stroke-width:0.26458001;stroke-miterlimit:4;stroke-dasharray:none;stroke-opacity:1"
       id="path1487-3"
       cx="17.363062"
       cy="291.42465"
       r="0.72759497" />
  </g>
</svg>
