<?xml version="1.0" encoding="UTF-8" standalone="no"?>
<!-- Created with Inkscape (http://www.inkscape.org/) -->

<svg
   xmlns:dc="http://purl.org/dc/elements/1.1/"
   xmlns:cc="http://creativecommons.org/ns#"
   xmlns:rdf="http://www.w3.org/1999/02/22-rdf-syntax-ns#"
   xmlns:svg="http://www.w3.org/2000/svg"
   xmlns="http://www.w3.org/2000/svg"
   xmlns:sodipodi="http://sodipodi.sourceforge.net/DTD/sodipodi-0.dtd"
   xmlns:inkscape="http://www.inkscape.org/namespaces/inkscape"
   width="300"
   height="30"
   viewBox="0 0 79.374 7.9374"
   version="1.1"
   id="svg8"
   inkscape:version="0.92.2 5c3e80d, 2017-08-06"
   sodipodi:docname="logo.svg">
  <defs
     id="defs2" />
  <sodipodi:namedview
     id="base"
     pagecolor="#ffffff"
     bordercolor="#666666"
     borderopacity="1.0"
     inkscape:pageopacity="0.0"
     inkscape:pageshadow="2"
     inkscape:zoom="31.999998"
     inkscape:cx="166.16367"
     inkscape:cy="16.107358"
     inkscape:document-units="px"
     inkscape:current-layer="layer1"
     showgrid="false"
     units="px"
     inkscape:window-width="1920"
     inkscape:window-height="1016"
     inkscape:window-x="0"
     inkscape:window-y="27"
     inkscape:window-maximized="1" />
  <metadata
     id="metadata5">
    <rdf:RDF>
      <cc:Work
         rdf:about="">
        <dc:format>image/svg+xml</dc:format>
        <dc:type
           rdf:resource="http://purl.org/dc/dcmitype/StillImage" />
        <dc:title />
      </cc:Work>
    </rdf:RDF>
  </metadata>
  <g
     inkscape:label="Layer 1"
     inkscape:groupmode="layer"
     id="layer1"
     transform="translate(0,-289.05996)">
    <path
       style="fill:none;fill-opacity:1;stroke:#000000;stroke-width:0.79373997;stroke-linecap:butt;stroke-linejoin:miter;stroke-miterlimit:4;stroke-dasharray:none;stroke-opacity:1"
       d="m 44.441581,291.76106 c 0,0 0.01136,1.33625 0.01004,1.44098 l -0.0124,1.03056 0.0124,0.79846"
       id="path87"
       inkscape:connector-curvature="0"
       sodipodi:nodetypes="cccc" />
    <path
       style="fill:none;fill-opacity:1;stroke:#000000;stroke-width:0.82907772;stroke-linecap:butt;stroke-linejoin:miter;stroke-miterlimit:4;stroke-dasharray:none;stroke-opacity:1"
       d="m 7.93111,290.88016 c 0,0.0148 0.02596,0.72585 0.024648,0.93835 -0.00154,0.24938 -0.02715,1.31273 -0.021725,1.58952 l -3e-7,0.81157 0.00585,0.36404 v 1.13793"
       id="path11"
       inkscape:connector-curvature="0"
       sodipodi:nodetypes="cscccc" />
    <path
       style="fill:none;fill-opacity:1;stroke:#000000;stroke-width:0.79373997;stroke-linecap:butt;stroke-linejoin:miter;stroke-miterlimit:4;stroke-dasharray:none;stroke-opacity:1"
       d="m 7.9959866,293.42914 c 0.1686535,-0.0752 0.899323,-0.0413 0.899323,-0.0413 0,0 0.4612403,-0.0206 0.7577278,-0.0174"
       id="path13"
       inkscape:connector-curvature="0"
       sodipodi:nodetypes="ccc" />
    <path
       style="fill:none;fill-opacity:1;stroke:#000000;stroke-width:0.85038453;stroke-linecap:butt;stroke-linejoin:miter;stroke-miterlimit:4;stroke-dasharray:none;stroke-opacity:1"
       d="m 9.7055384,290.91284 c -0.00376,1.08885 0.00217,2.6741 -0.00585,2.90649 -9.796e-4,0.18672 -2.851e-4,1.71564 -0.00581,1.90581"
       id="path15"
       inkscape:connector-curvature="0"
       sodipodi:nodetypes="ccc" />
    <path
       style="fill:none;fill-opacity:1;stroke:#000000;stroke-width:0.79373997;stroke-linecap:butt;stroke-linejoin:miter;stroke-miterlimit:4;stroke-dasharray:none;stroke-opacity:1"
       d="m 11.83621,291.02546 0.149563,-0.0174 c 0.171104,0.0235 0.329104,0.28599 0.264995,0.43635 -0.01992,0.01 -0.05072,0.163 -0.07064,0.173 -0.05964,0.025 -0.118514,0.0643 -0.18899,0.0945 -0.01438,0.007 -0.202313,-0.0205 -0.223591,-0.0205 h -0.330725 c -0.09765,-0.0159 -0.192719,-0.20494 -0.201637,-0.31021 -0.0042,-0.004 -0.0024,-0.14053 0,-0.14174 0.168485,-0.0901 0.206635,-0.16422 0.234805,-0.17832 0.306254,-0.10938 -0.0548,-0.0532 0.366218,-0.0356 z"
       id="path31"
       inkscape:connector-curvature="0"
       sodipodi:nodetypes="cccccscccccc" />
    <path
       style="fill:none;fill-opacity:1;stroke:#000000;stroke-width:0.79373997;stroke-linecap:butt;stroke-linejoin:miter;stroke-miterlimit:4;stroke-dasharray:none;stroke-opacity:1"
       d="m 11.780898,292.72038 -0.0029,0.17531 c -2.64e-4,0.0158 0.0076,0.0829 0.0029,0.15546 0.01371,0.11744 0.0487,0.17919 0.04725,0.28353 0.03833,0.11713 0.0234,0.22643 0.0379,0.26174 0.0162,0.15868 0.03029,0.29267 0.03029,0.44696 0.02843,0.17081 0.0633,0.24047 0.06706,0.36799 l -0.0124,1.16875"
       id="path35"
       inkscape:connector-curvature="0"
       sodipodi:nodetypes="cscccccc" />
    <path
       style="fill:none;fill-opacity:1;stroke:#000000;stroke-width:0.79373997;stroke-linecap:butt;stroke-linejoin:miter;stroke-miterlimit:4;stroke-dasharray:none;stroke-opacity:1"
       d="m 13.810132,291.26755 v 2.74029 0.56696 c -0.01928,0.16708 -0.03938,0.48774 0.02421,0.59714 l 0.07028,0.3006 c 0.09803,0.16265 0.348285,0.0831 0.504664,0.0111 0.293618,-0.037 0.620658,-0.17974 0.943627,-0.20836 0.267676,-0.0237 0.821373,-0.01 1.196907,-0.20839"
       id="path39"
       inkscape:connector-curvature="0"
       sodipodi:nodetypes="ccccccsc" />
    <path
       style="fill:none;fill-opacity:1;stroke:#000000;stroke-width:0.79373997;stroke-linecap:butt;stroke-linejoin:miter;stroke-miterlimit:4;stroke-dasharray:none;stroke-opacity:1"
       d="m 19.189048,296.22131 c 0,0 0.09402,-0.21411 0.126975,-0.31841 0.08605,-0.27235 0.119017,-0.51422 0.149556,-0.66392 0.01895,-0.31132 0.07484,-0.63024 0.102138,-0.8431 l 0.0041,-0.6644 c 0.02107,-0.50637 -0.0189,-0.76994 0.02658,-1.02993 0.04144,-0.47648 -0.194685,-0.82106 -0.01949,-1.25446 0.04555,-0.34875 0.186362,-0.34123 0.465374,-0.17244 0.08786,0.0346 0.240382,0.0926 0.345491,0.13584 0.247722,0.15641 0.504745,0.2763 0.56695,0.378 0.08472,0.10164 0.157798,0.31324 0.256307,0.46664 0.226222,0.8096 0.08783,1.04118 -0.526795,1.43934 -0.35145,0.10447 -1.03297,0.42404 -1.114448,0.46221"
       id="path59"
       inkscape:connector-curvature="0"
       sodipodi:nodetypes="csccccccccccc" />
    <path
       style="fill:none;fill-opacity:1;stroke:#000000;stroke-width:0.79373997;stroke-linecap:butt;stroke-linejoin:miter;stroke-miterlimit:4;stroke-dasharray:none;stroke-opacity:1"
       d="m 25.408008,291.28648 c 0.0613,0.48195 0.168358,0.85897 0.171451,1.16473 0.0079,0.22357 0.06673,0.85465 0.07696,1.18759 -0.03689,0.55404 -0.0098,0.91468 -0.05847,1.18591 -0.05031,0.18972 -0.15837,1.08339 -0.159757,1.22285"
       id="path71"
       inkscape:connector-curvature="0"
       sodipodi:nodetypes="ccccc" />
    <path
       style="fill:none;fill-opacity:1;stroke:#000000;stroke-width:0.79373997;stroke-linecap:butt;stroke-linejoin:miter;stroke-miterlimit:4;stroke-dasharray:none;stroke-opacity:1"
       d="m 35.412338,292.18499 c 0.0058,0.24743 0.05705,0.72107 0.05705,0.91004 0.0559,0.14618 0.275978,0.49619 0.377023,0.64799 0.203334,0.24055 0.35624,0.38205 0.734139,0.4672 0.1659,0.0355 0.430468,0.0721 0.610073,0.072 0.23861,-0.0306 0.333375,-0.10593 0.484876,-0.16593 0.0858,-0.057 0.142195,-0.13391 0.268131,-0.23502 0.189586,-0.16999 0.258316,-0.34043 0.510112,-0.75292 0.07747,-0.15771 0.251866,-0.46452 0.33563,-0.60027 0.13274,-0.44515 0.136188,-0.66065 -0.03602,-0.9359 -0.174689,-0.17359 -0.296019,-0.30532 -0.394507,-0.32729 -0.162227,-0.0686 -0.238965,-0.11517 -0.407506,-0.13997 -0.308213,-0.0517 -0.697558,-0.17112 -0.886732,-0.18125 -0.185206,-0.007 -0.557849,-0.075 -0.679677,-0.0625 -0.717942,0.18069 -0.903532,0.79015 -0.972592,1.30382 z"
       id="path83"
       inkscape:connector-curvature="0"
       sodipodi:nodetypes="ccccccccccccccc" />
    <path
       style="fill:none;fill-opacity:1;stroke:#000000;stroke-width:0.79373997;stroke-linecap:butt;stroke-linejoin:miter;stroke-miterlimit:4;stroke-dasharray:none;stroke-opacity:1"
       d="m 41.919039,291.35021 c -0.301369,0.0178 -0.534365,0.0592 -0.727194,0.11467 -0.296931,0.0974 -0.455286,0.21181 -0.685132,0.44412 -0.166109,0.11449 -0.240369,0.27328 -0.33074,0.4253 -0.06552,0.15179 -0.124819,0.36888 -0.16242,0.57166 -0.06374,0.22051 -0.08109,0.4278 -0.0691,0.63008 0.0311,0.12288 0.01347,0.47601 0.134419,0.53879 0.207233,0.10757 0.419703,0.12548 0.637223,0.16769 0.212099,0.0224 0.523122,-0.004 0.753535,-0.0236 0.145076,-0.0241 0.582163,-0.0323 0.705831,-0.0417"
       id="path85"
       inkscape:connector-curvature="0"
       sodipodi:nodetypes="ccccccsccc" />
    <path
       style="fill:none;fill-opacity:1;stroke:#000000;stroke-width:0.79373997;stroke-linecap:butt;stroke-linejoin:miter;stroke-miterlimit:4;stroke-dasharray:none;stroke-opacity:1"
       d="m 42.492202,291.50431 0.413877,0.007 c 0.159482,0.04 0.284312,0.007 0.443946,0.0177 0.154692,0.006 0.324599,0.0148 0.512208,0.0231 0.254124,0.0229 0.453645,0.0351 0.689974,0.048 0.109261,0.01 0.229899,0.029 0.324232,0.0348 0.169957,0.0224 0.309109,0.0284 0.474901,0.0228 0.269181,0.0223 0.387672,0.008 0.60685,0.0254 0.219516,0.0354 0.435757,0.0131 0.643358,0.007"
       id="path91"
       inkscape:connector-curvature="0"
       sodipodi:nodetypes="ccccccccc" />
    <path
       style="fill:none;fill-opacity:1;stroke:#000000;stroke-width:0.79373997;stroke-linecap:butt;stroke-linejoin:miter;stroke-miterlimit:4;stroke-dasharray:none;stroke-opacity:1"
       d="m 46.773939,295.22101 v -0.0472 c 0,-0.0157 -0.01114,-0.0361 0,-0.0472 0.01114,-0.0111 0.03611,0.0111 0.04725,0 0.01114,-0.0112 -0.01114,-0.0362 0,-0.0473 0.114748,-0.1148 0.06938,0.014 0.141738,-0.0945 0.01954,-0.0293 0.03151,-0.063 0.04725,-0.0945 0.01575,-0.0315 0.03611,-0.0611 0.04725,-0.0945 0.005,-0.015 -0.01114,-0.0362 0,-0.0473 0.01114,-0.0111 0.04225,0.0149 0.04725,0 0.01495,-0.0448 0,-0.0944 0,-0.14174 0,-0.0157 -0.0131,-0.0382 0,-0.0472 0.04144,-0.0276 0.09449,-0.0314 0.141741,-0.0472 0,-0.0472 -0.02835,-0.10394 0,-0.14174 0.02988,-0.0403 0.106518,-0.0121 0.141738,-0.0473 0.02363,-0.0236 -0.0118,-0.10634 0,-0.14174 0.01114,-0.0334 0.03151,-0.063 0.04725,-0.0945 0,-0.0315 -0.0076,-0.0639 0,-0.0945 0.04231,-0.16924 0.146677,-0.067 0.188987,-0.23624 0.0076,-0.0306 -0.0076,-0.0639 0,-0.0945 0.01768,-0.0707 0.116338,-0.18543 0.141738,-0.23623 0.007,-0.0141 -0.0026,-0.0318 0,-0.0473 0.0132,-0.0792 0.01742,-0.16163 0.04725,-0.23623 0.0058,-0.0146 0.03415,0.009 0.04725,0 0.03706,-0.0247 0.07457,-0.0547 0.09449,-0.0945 0.01408,-0.0282 0,-0.063 0,-0.0945 0,-0.0158 -0.01114,-0.0362 0,-0.0473 0.04015,-0.0402 0.112528,-0.0458 0.141738,-0.0945 0.02432,-0.0405 -0.0093,-0.0954 0,-0.14174 0.0069,-0.0345 0.03611,-0.0611 0.04725,-0.0945 0.005,-0.0149 -0.007,-0.0331 0,-0.0472 0.02539,-0.0507 0.06909,-0.0909 0.09449,-0.14174 0.007,-0.0141 -0.0094,-0.0347 0,-0.0473 0.04009,-0.0534 0.1,-0.0895 0.141738,-0.14174 0.02201,-0.0275 0.03151,-0.063 0.04725,-0.0945 0.01575,-0.0315 0.03875,-0.0603 0.04725,-0.0945 0.0076,-0.0306 -0.0076,-0.0639 0,-0.0945 0.05703,-0.22814 0.02245,0.002 0.09449,-0.14174 0.01408,-0.0282 -0.01408,-0.0663 0,-0.0945 0.01,-0.0199 0.03151,-0.0315 0.04725,-0.0472 0.0315,-0.0315 0.06978,-0.0574 0.09449,-0.0945 0.0087,-0.0131 0,-0.0315 0,-0.0472 v -0.28348 c -0.08101,0.47962 0.213049,0.0241 0.283479,0.0945 0.01114,0.0111 -0.01114,0.0361 0,0.0472 0.01114,0.0111 0.03611,-0.0111 0.04725,0 0.02227,0.0223 -0.01,0.0646 0,0.0945 0.01114,0.0334 0.02235,0.0696 0.04725,0.0945 0.02227,0.0223 0.07222,-0.0223 0.09449,0 0.01293,0.0129 -0.01282,0.16336 0,0.18899 0.01,0.0199 0.03729,0.0273 0.04725,0.0473 0.007,0.0141 -0.01114,0.0361 0,0.0472 0.01114,0.0111 0.03611,-0.0111 0.04725,0 0.01114,0.0111 -0.01114,0.0361 0,0.0473 0.01114,0.0111 0.03611,-0.0111 0.04725,0 0.0097,0.01 -0.0094,0.123 0,0.14174 0.02835,0.0567 0.113392,0.085 0.14174,0.14174 0.01409,0.0282 -0.02227,0.0722 0,0.0945 0.18439,0.18439 0.02537,-0.0109 0.141739,0.0472 0.09122,0.0456 0.02483,0.0993 0.04725,0.18898 0.01487,0.0595 0.177249,0.0916 0.188986,0.0945 0.01528,0.004 0.0402,-0.0141 0.04725,0 0.01409,0.0282 -0.01409,0.0663 0,0.0945 0.007,0.0141 0.03611,-0.0111 0.04725,0 0.0249,0.0249 0.02235,0.0696 0.04725,0.0945 0.01114,0.0111 0.03611,-0.0111 0.04725,0 0.01114,0.0111 -0.01114,0.0361 0,0.0473 0.01114,0.0111 0.03316,-0.007 0.04725,0 0.01992,0.01 0.02733,0.0373 0.04725,0.0472 0.01409,0.007 0.03611,-0.0111 0.04725,0 0.01114,0.0111 -0.01114,0.0361 0,0.0472 0.09775,0.0978 -0.0038,-0.14938 0.09449,0.0473 0.01409,0.0282 -0.02227,0.0722 0,0.0945 0.01114,0.0111 0.0315,0 0.04725,0 h 0.04725 c -0.26773,0 -0.01575,-0.0315 -0.09449,0.0473 -0.02227,0.0223 -0.07222,-0.0223 -0.09449,0 -0.09376,0.0938 0.223747,0.0149 -0.09449,0.0945 -0.03056,0.008 -0.063,0 -0.09449,0 h -0.09449 -0.519711 c -0.04725,0 -0.0959,-0.0115 -0.141739,0 -0.02161,0.005 -0.02733,0.0373 -0.04725,0.0472 -0.01409,0.007 -0.0315,0 -0.04725,0 h -0.04725 -0.425218 c -0.03804,0 -0.159331,-0.01 -0.188985,0 -0.148059,0.0731 -0.167477,0.0472 -0.377975,0.0472 -0.05883,0.005 -0.449063,-0.21289 0,0"
       id="path95"
       inkscape:connector-curvature="0"
       sodipodi:nodetypes="cssccsccscsccccccccccccccscccccccccccccccsccsccccccssccccccccccccscccscccsccccscsccscsccc" />
    <path
       style="fill:none;fill-opacity:1;stroke:#000000;stroke-width:0.79373997;stroke-linecap:butt;stroke-linejoin:miter;stroke-miterlimit:4;stroke-dasharray:none;stroke-opacity:1"
       d="m 50.955273,291.59326 c 0,0 -0.04992,0.25999 -0.02362,0.27314 0.02817,0.0141 0.06632,-0.0141 0.09449,0 0.01408,0.007 -0.007,0.0332 0,0.0472 0.01,0.0199 0.03729,0.0273 0.04725,0.0472 0.0072,0.0144 0,0.12046 0,0.14174 v 0.28348 c 0,0.0326 -0.0072,0.17462 0,0.18898 0.01,0.0199 0.03729,0.0273 0.04725,0.0472 0.007,0.0141 0,0.0315 0,0.0473 v 0.0472 0.28348 c 0,0.12599 -0.01574,-0.0157 0.04725,0.0473 0.01114,0.0111 0,0.0315 0,0.0472 0,0.0864 -0.01275,0.26702 0,0.33073 0.0044,0.0218 0.03729,0.0273 0.04725,0.0473 0.0086,0.0172 0,0.20901 0,0.23623 0,0.0335 -0.0061,0.27126 0,0.28348 0.0099,0.0199 0.03728,0.0273 0.04725,0.0472 0.0094,0.0187 -0.0097,0.13208 0,0.14174 0.01114,0.0111 0.03611,-0.0111 0.04725,0 0.02363,0.0236 -0.02363,0.11812 0,0.14174 0.01114,0.0111 0.03611,-0.0111 0.04725,0 0.01138,0.0114 -0.01138,0.17762 0,0.18899 0.01114,0.0111 0.0315,0 0.04725,0 0,0.0158 -0.01114,0.0361 0,0.0472 0.01114,0.0111 0.0315,0 0.04725,0 h 0.377971 c 0.0315,0 0.07702,0.0262 0.09449,0 0.02622,-0.0393 -0.01495,-0.0969 0,-0.14174 0.005,-0.0149 0.0315,0 0.04725,0 0.04725,0 0.09541,0.009 0.141741,0 0.190124,-0.038 0.0217,-0.0345 0.141738,-0.0945 0.01408,-0.007 0.03611,0.0111 0.04725,0 0.01114,-0.0111 -0.01114,-0.0361 0,-0.0472 0.01114,-0.0111 0.03316,0.007 0.04725,0 0.196628,-0.0983 -0.05051,0.003 0.04725,-0.0945 0.01114,-0.0111 0.03611,0.0111 0.04725,0 0.01114,-0.0111 -0.007,-0.0332 0,-0.0472 0.09831,-0.19663 -0.0033,0.0505 0.09449,-0.0473 0.01114,-0.0111 0,-0.0315 0,-0.0473 0.01574,0 0.03316,0.007 0.04725,0 0.07236,-0.0362 0.03695,-0.0842 0.09449,-0.14174 0.01114,-0.0111 0.03611,0.0111 0.04725,0 0.02228,-0.0223 -0.01408,-0.0663 0,-0.0945 0.09831,-0.19663 -0.0033,0.0505 0.0945,-0.0473 0.133033,-0.003 0.01204,-0.10652 0.04725,-0.14173 0.01114,-0.0111 0.0402,0.0141 0.04725,0 0.04226,-0.0373 -0.02114,-0.0995 0,-0.14174 0.01,-0.0199 0.03729,-0.0273 0.04725,-0.0473 0.007,-0.0141 -0.007,-0.0332 0,-0.0473 0.0099,-0.0199 0.0402,-0.0261 0.04725,-0.0472 0.01,-0.0299 -0.01408,-0.0663 0,-0.0945 0.007,-0.0141 0.03611,0.0111 0.04725,0 0.01114,-0.0111 -0.007,-0.0332 0,-0.0472 0.01,-0.0199 0.04185,-0.0256 0.04725,-0.0473 0.01146,-0.0458 0,-0.0945 0,-0.14174 0,-0.0157 -0.01114,-0.0361 0,-0.0472 0.0249,-0.0249 0.06959,-0.0224 0.09449,-0.0473 0.01114,-0.0111 0,-0.0315 0,-0.0472 0,-0.063 -0.01527,-0.12787 0,-0.18898 0.0054,-0.0216 0.03729,-0.0273 0.04725,-0.0473 0.007,-0.0141 0,-0.0315 0,-0.0472 0,-0.0315 -0.01,-0.0646 0,-0.0945 0.007,-0.0211 0.0402,-0.0261 0.04725,-0.0473 0,-0.21507 -0.02228,-0.003 0.04725,-0.14173 0.01249,-0.025 -0.0057,-0.16597 0,-0.18899 0.0085,-0.0342 0.03611,-0.0611 0.04725,-0.0945 0.01,-0.0299 -0.01408,-0.0663 0,-0.0945 0.01,-0.0199 0.03729,-0.0273 0.04725,-0.0472 0.0249,-0.0498 -0.0249,-0.0447 0,-0.0945 0.0099,-0.0199 0.03728,-0.0273 0.04725,-0.0472 0.01408,-0.0282 -0.01408,-0.0663 0,-0.0945 0.0254,-0.0508 0.0691,-0.091 0.09449,-0.14174 0.0072,-0.0144 0,-0.12047 0,-0.14174 v -0.33073 c 0,-0.0157 0,-0.0472 0,-0.0472"
       id="path101"
       inkscape:connector-curvature="0"
       sodipodi:nodetypes="cccccssccscscsccsccccccccsssccsccssccscccccccccccccccsccsccsccscccccccccccssc" />
    <path
       style="fill:none;fill-opacity:1;stroke:#000000;stroke-width:0.79373997;stroke-linecap:butt;stroke-linejoin:miter;stroke-miterlimit:4;stroke-dasharray:none;stroke-opacity:1"
       d="m 55.845279,291.1577 c -0.369729,-0.055 -0.03452,0.17626 -0.09449,0.23623 -0.04015,0.0402 -0.04785,0.0791 -0.088,0.1193 -4.5e-5,4e-5 -0.05367,0.11672 -0.05374,0.11694 -0.007,0.0211 -0.03729,0.0273 -0.04725,0.0472 -0.007,0.0141 0.01114,0.0361 0,0.0473 -0.01114,0.0111 -0.03611,-0.0111 -0.04725,0 -0.01114,0.0111 0.007,0.0332 0,0.0472 -0.01992,0.0399 -0.08369,0.0513 -0.09449,0.0945 0.02067,0.33923 0.03341,0.0277 -0.04725,0.18898 0.08386,0.0817 -0.06439,0.0645 -0.09449,0.0946 -0.0249,0.0249 -0.02771,0.0652 -0.04725,0.0945 -0.01236,0.0185 -0.0315,0.0315 -0.04725,0.0472 -0.01574,0.0472 -0.02498,0.0972 -0.04725,0.14173 -0.01992,0.0399 -0.08369,0.0513 -0.09449,0.0945 -0.01146,0.0458 0,0.0945 0,0.14174 0,0.0157 0.0087,0.0341 0,0.0472 -0.02471,0.0371 -0.06299,0.063 -0.09449,0.0945 -0.01574,0.0472 -0.02498,0.0972 -0.04725,0.14174 -0.01,0.0199 -0.03898,0.0266 -0.04725,0.0472 -0.0241,0.0603 -0.03451,0.12531 -0.04725,0.18899 -0.0031,0.0154 0.01114,0.0361 0,0.0472 -0.0249,0.0249 -0.06959,0.0223 -0.0945,0.0472 -0.01114,0.0111 0.0038,0.032 0,0.0473 -0.02416,0.0966 -0.07033,0.18685 -0.09449,0.28348 -0.0038,0.0153 0.007,0.0332 0,0.0472 -0.0254,0.0508 -0.06042,0.0963 -0.09449,0.14174 -0.01336,0.0178 -0.04185,0.0256 -0.04725,0.0472 -0.01146,0.0458 0.01146,0.0959 0,0.14174 -0.0054,0.0216 -0.04185,0.0256 -0.04725,0.0472 -0.01146,0.0458 0.02114,0.0995 0,0.14174 -0.01574,0.0315 -0.06959,0.0223 -0.0945,0.0472 -0.01114,0.0111 0.005,0.0323 0,0.0473 -0.01114,0.0334 -0.03871,0.0603 -0.04725,0.0945 -0.0076,0.0306 0,0.063 0,0.0945 0,0.0157 0.0094,0.0346 0,0.0472 -0.04725,0.0472 -0.09449,0.0945 -0.141738,0.14174 0,0.0315 0.01408,0.0663 0,0.0945 -0.007,0.0141 -0.03611,-0.0111 -0.04725,0 -0.01114,0.0111 0.007,0.0332 0,0.0473 -0.01992,0.0398 -0.08041,0.0522 -0.0945,0.0945 -0.0099,0.0299 0.01,0.0646 0,0.0945 -0.007,0.0211 -0.03728,0.0273 -0.04725,0.0473 -0.007,0.0141 0,0.063 0,0.0472 v -0.0945"
       id="path103"
       inkscape:connector-curvature="0"
       sodipodi:nodetypes="ccccccsccccccccscccccccccsccscccccscccsccccsc" />
    <path
       style="fill:none;fill-opacity:1;stroke:#000000;stroke-width:0.79373997;stroke-linecap:butt;stroke-linejoin:miter;stroke-miterlimit:4;stroke-dasharray:none;stroke-opacity:1"
       d="m 53.46474,290.95333 c 0.188955,0.31504 0.344614,0.60069 0.537927,0.91307 0.05883,0.095 0.108708,0.0142 0.141741,0.0472 0.01114,0.0111 -0.007,0.0332 0,0.0472 0.0099,0.0199 0.03728,0.0273 0.04725,0.0473 0.01408,0.0282 -0.02228,0.0722 0,0.0945 0.0249,0.0249 0.06519,0.0277 0.09449,0.0473 0.0936,-0.005 0.02236,0.0696 0.04725,0.0945 0.01114,0.0111 0.03611,-0.0111 0.04725,0 0.0249,0.0249 0.02772,0.0652 0.04725,0.0945 0.01236,0.0185 0.03728,0.0273 0.04725,0.0473 0.01408,0.0282 -0.01408,0.0663 0,0.0945 0.0099,0.0199 0.03728,0.0273 0.04725,0.0473 0.01408,0.0282 -0.01408,0.0663 0,0.0945 0.0099,0.0199 0.03489,0.0287 0.04725,0.0473 0.01574,0.0315 0.0315,0.063 0.04725,0.0945 0,0.0158 -0.007,0.0332 0,0.0473 0.0099,0.0199 0.03729,0.0273 0.04725,0.0472 0.007,0.0141 -0.007,0.0332 0,0.0472 0.01,0.0199 0.03729,0.0273 0.04725,0.0473 0.007,0.0141 -0.0087,0.0341 0,0.0472 0.02471,0.0371 0.07457,0.0547 0.0945,0.0945 0.01889,0.0378 -0.01889,0.10395 0,0.14174 0.0099,0.0199 0.0402,0.0261 0.04725,0.0472 0.0099,0.0299 -0.0076,0.0639 0,0.0945 0.0085,0.0342 0.03871,0.0603 0.04725,0.0945 0.0076,0.0305 -0.01,0.0646 0,0.0945 0.007,0.0211 0.0402,0.0261 0.04725,0.0473 0.0099,0.0299 -0.0062,0.0636 0,0.0945 0.0098,0.0488 0.03517,0.0934 0.04725,0.14174 0.0038,0.0153 -0.007,0.0332 0,0.0472 0.01,0.0199 0.03729,0.0273 0.04725,0.0472 0.08399,0.16799 -0.251981,-0.18899 0,0.18899 0.01746,0.0262 0.07222,-0.0223 0.09449,0 0.02228,0.0223 -0.01,0.0646 0,0.0945 0.007,0.0211 0.03729,0.0273 0.04725,0.0473 0.007,0.0141 -0.01114,0.0361 0,0.0472 0.01114,0.0111 0.03611,-0.0111 0.04725,0 0.01114,0.0111 -0.01114,0.0361 0,0.0473 0.01114,0.0111 0.04227,-0.0149 0.04725,0 0,0.44097 -0.04725,0.0472 0.04725,0.14174 0.02363,0.0236 -0.02363,0.11811 0,0.14174 0.01114,0.0111 0.03611,-0.0111 0.04725,0 0.01114,0.0111 -0.01114,0.0361 0,0.0472 0.02228,0.0223 0.07222,-0.0223 0.09449,0 0,0.12599 -0.01574,-0.0157 0.04725,0.0473 0.02363,0.0236 -0.02363,0.11812 0,0.14174 0.02228,0.0223 0.07222,-0.0223 0.09449,0 0.01114,0.0111 -0.01114,0.0361 0,0.0473 0.01114,0.0111 0.03611,-0.0111 0.04725,0 0.01114,0.0111 -0.01114,0.0361 0,0.0472 0.01114,0.0111 0.0315,0 0.04725,0 h 0.04725 0.04725 c 0.01574,0 0.03611,-0.0111 0.04725,0 0.01114,0.0111 -0.05839,-0.0112 -0.04725,0 0.02228,0.0223 0.07222,-0.0223 0.09449,0 0.01114,0.0111 0.04725,0.0788 0.04725,0.0945 v 0.0473"
       id="path105"
       inkscape:connector-curvature="0"
       sodipodi:nodetypes="ccccccccccccccccccccccccccccccccccccssccccsccccccssscssccsc" />
    <path
       style="fill:none;fill-opacity:1;stroke:#000000;stroke-width:0.79373997;stroke-linecap:butt;stroke-linejoin:miter;stroke-miterlimit:4;stroke-dasharray:none;stroke-opacity:1"
       d="m 59.710036,293.95469 c 0.063,0 0.127872,-0.0153 0.188987,0 0.01527,0.004 -0.01114,0.0361 0,0.0473 0.01463,0.0146 0.221602,-0.0146 0.23623,0 0.01114,0.0111 -0.01114,0.0361 0,0.0472 0.01114,0.0111 0.03611,-0.0111 0.04725,0 0.01114,0.0111 -0.01114,0.0361 0,0.0472 0.02228,0.0223 0.07222,-0.0223 0.09449,0 0.01114,0.0111 -0.01114,0.0361 0,0.0472 0.02363,0.0236 0.118116,-0.0236 0.141738,0 0.02228,0.0223 -0.02228,0.0722 0,0.0945 0.01114,0.0111 0.03316,-0.007 0.04725,0 0.01992,0.01 0.02733,0.0373 0.04725,0.0473 0.02564,0.0128 0.176057,-0.0129 0.188984,0 0.01114,0.0111 -0.007,0.0332 0,0.0473 0.0507,0.10139 0.0516,0.002 0.141741,0.0472 0.02817,0.0141 -0.02228,0.0722 0,0.0945 0.01114,0.0111 0.03611,-0.0111 0.04725,0 0.01114,0.0111 -0.01114,0.0361 0,0.0472 0.01114,0.0111 0.03611,-0.0111 0.04725,0 0.0021,0.002 0,0.21396 0,0.23623 0,0.0157 0.01408,0.0402 0,0.0472 -0.02817,0.0141 -0.06461,-0.01 -0.09449,0 -0.147472,0.0492 0.01574,0.0315 -0.04725,0.0945 -0.01114,0.0111 -0.03316,-0.007 -0.04725,0 -0.01992,0.01 -0.02871,0.0349 -0.04725,0.0473 -0.0293,0.0195 -0.06959,0.0224 -0.09449,0.0473 -0.01114,0.0111 0.01114,0.0361 0,0.0472 -0.0097,0.01 -0.123006,-0.009 -0.141741,0 -0.196628,0.0983 0.05051,-0.003 -0.04725,0.0945 -0.01114,0.0111 -0.03611,-0.0111 -0.04725,0 -0.01114,0.0111 0.01114,0.0361 0,0.0472 -0.01114,0.0111 -0.0315,0 -0.04725,0 -0.0296,0 -0.280936,0.003 -0.283479,0 -0.02228,-0.0223 0.01408,-0.0663 0,-0.0945 -0.007,-0.0141 -0.0315,0 -0.04725,0 -0.04725,0 -0.09449,0 -0.141738,0 -0.01574,0 -0.03611,0.0111 -0.04725,0 -0.01114,-0.0111 0.01114,-0.0361 0,-0.0472 -0.01114,-0.0111 -0.03611,0.0111 -0.04725,0 -0.01114,-0.0111 0.01114,-0.0361 0,-0.0472 -0.01114,-0.0111 -0.03611,0.0111 -0.04725,0 -0.02228,-0.0223 0.02228,-0.0722 0,-0.0945 -0.01463,-0.0146 -0.221602,0.0146 -0.236233,0 -0.01114,-0.0111 0.01114,-0.0361 0,-0.0472 -0.01114,-0.0111 -0.03611,0.0111 -0.04725,0 -0.01114,-0.0111 0,-0.0315 0,-0.0473 0,-0.17107 -0.01889,-0.0189 0.0945,-0.18899 0.0042,-0.006 0,-0.21168 0,-0.23623 0,-0.0157 -0.01114,-0.0361 0,-0.0472 0.01114,-0.0111 0.03316,0.007 0.04725,0 0.196628,-0.0983 -0.05051,0.003 0.04725,-0.0945 0.01114,-0.0111 0.03611,0.0111 0.04725,0 0.01114,-0.0111 -0.01114,-0.0361 0,-0.0472 0.01114,-0.0111 0.03611,0.0111 0.04725,0 0.01114,-0.0111 0,-0.0315 0,-0.0473 0,-0.063 0,-0.12599 0,-0.18899 z"
       id="path115"
       inkscape:connector-curvature="0" />
    <path
       style="fill:none;stroke:#000000;stroke-width:0.79374;stroke-linecap:butt;stroke-linejoin:miter;stroke-opacity:1;fill-opacity:1;stroke-miterlimit:4;stroke-dasharray:none"
       d="m 65.152825,291.65851 c -0.204264,-0.0511 -0.124051,-0.0472 -0.236233,-0.0472 -0.01574,0 -0.03611,-0.0111 -0.04725,0 -0.0249,0.0249 -0.02234,0.0696 -0.04725,0.0945 -0.0249,0.0249 -0.06959,0.0224 -0.09449,0.0473 -0.01114,0.0111 0.007,0.0332 0,0.0472 -0.01,0.0199 -0.0315,0.0315 -0.04725,0.0473 -0.01574,0.0157 -0.02733,0.0373 -0.04725,0.0472 -0.01408,0.007 -0.03611,-0.0111 -0.04725,0 -0.0249,0.0249 -0.02233,0.0696 -0.04725,0.0945 -0.01114,0.0111 -0.03316,-0.007 -0.04725,0 -0.01992,0.01 -0.02733,0.0373 -0.04725,0.0472 -0.01408,0.007 -0.03611,-0.0111 -0.04725,0 -0.01114,0.0111 0.01114,0.0361 0,0.0473 -0.01114,0.0111 -0.03316,-0.007 -0.04725,0 -0.01992,0.01 -0.02733,0.0373 -0.04725,0.0473 -0.01408,0.007 -0.03149,0 -0.04725,0 -0.0315,0.0157 -0.06519,0.0277 -0.09449,0.0472 -0.04077,0.0272 -0.104835,0.10484 -0.141738,0.14174 -0.01574,0.0158 -0.02733,0.0373 -0.04725,0.0473 -0.01408,0.007 -0.03316,-0.007 -0.04725,0 -0.196628,0.0983 0.05051,-0.003 -0.04725,0.0945 -0.01114,0.0111 -0.03611,-0.0111 -0.04725,0 -0.02228,0.0223 0.02228,0.0722 0,0.0945 -0.09775,0.0978 0.0038,-0.14939 -0.09449,0.0472 -0.01408,0.0282 0.02228,0.0722 0,0.0945 -0.01114,0.0111 -0.03611,-0.0111 -0.04725,0 -0.01114,0.0111 0,0.0315 0,0.0473 v 0.28348 0.0473 c 0,0.0157 0.01114,0.0361 0,0.0472 -0.01114,0.0111 -0.03611,-0.0111 -0.04725,0 -0.01114,0.0111 0,0.0315 0,0.0472 v 0.23623 0.0473 c 0,0.0157 -0.01408,0.0402 0,0.0472 0.02817,0.0141 0.06461,-0.01 0.0945,0 0.09493,0.0317 0.01632,0.11081 0.04725,0.14174 0.01114,0.0111 0.03316,-0.007 0.04725,0 0.01992,0.01 0.02733,0.0373 0.04725,0.0473 0.01408,0.007 0.03611,-0.0111 0.04725,0 0.02228,0.0223 -0.01408,0.0663 0,0.0945 0.01,0.0199 0.03729,0.0273 0.04725,0.0472 0.01408,0.0282 -0.02228,0.0722 0,0.0945 0.03094,0.0309 0.110097,-0.0477 0.141741,0.0473 0,0.26773 -0.0315,0.0158 0.04725,0.0945 0.02363,0.0236 -0.02363,0.11812 0,0.14174 0.02694,-0.10594 0.02068,0.0207 0.04725,0.0473 0.02228,0.0223 0.07222,-0.0223 0.09449,0 0,0.12599 -0.01574,-0.0158 0.04725,0.0472 0.02228,0.0223 -0.02228,0.0722 0,0.0945 0.01114,0.0111 0.03316,-0.007 0.04725,0 0.196628,0.0983 -0.05051,-0.003 0.04725,0.0945 0.01114,0.0111 0.03611,-0.0111 0.04725,0 0.01114,0.0111 -0.01114,0.0361 0,0.0473 0.0097,0.01 0.123006,-0.009 0.141738,0 0.01992,0.01 0.02733,0.0373 0.04725,0.0472 0.01709,0.009 0.203369,0 0.23623,0 h 0.614204 c 0.02455,0 0.229952,0.004 0.236233,0 0.0315,-0.0315 0.06299,-0.063 0.09449,-0.0945 0.01574,0 0.03316,0.007 0.04725,0 0.03984,-0.0199 0.05465,-0.0746 0.0945,-0.0945 0.01408,-0.007 0.03316,0.007 0.04725,0 0.01992,-0.01 0.02733,-0.0373 0.04725,-0.0473 0.02817,-0.0141 0.07222,0.0223 0.09449,0 0.01114,-0.0111 -0.01114,-0.0361 0,-0.0473 0.01114,-0.0111 0.03611,0.0111 0.04725,0 0.01114,-0.0111 -0.01114,-0.0361 0,-0.0472 0.02228,-0.0223 0.07222,0.0223 0.09449,0 -0.05413,-0.098 -0.05195,-0.11088 0,0"
       id="path117"
       inkscape:connector-curvature="0"
       sodipodi:nodetypes="csccccccccccscccccccccccccsscsssscsccccccccccccccccccscccssccccccccsccc" />
    <path
       style="fill:none;fill-opacity:1;stroke:#000000;stroke-width:0.79373997;stroke-linecap:butt;stroke-linejoin:miter;stroke-miterlimit:4;stroke-dasharray:none;stroke-opacity:1"
       d="m 72.547127,295.56667 0.02339,-2.11279 c 3.64e-4,-0.0329 0.0085,-0.21915 0,-0.23623 -0.0099,-0.0199 -0.03728,-0.0273 -0.04725,-0.0473 -0.0062,-0.0124 0,-0.16428 0,-0.18899 v -0.42521 -0.33073 c 0,-0.0157 -0.01114,-0.0361 0,-0.0472 0.0249,-0.0249 0.06959,-0.0223 0.09449,-0.0472 0.0016,-0.002 0,-0.13028 0,-0.14174 0,-0.0247 -0.0062,-0.17656 0,-0.18899 0.0099,-0.0199 0.03728,-0.0273 0.04725,-0.0472 0.01408,-0.0282 -0.01408,-0.0663 0,-0.0945 0.0099,-0.0199 0.03728,-0.0273 0.04725,-0.0472 0.007,-0.0141 0,-0.0315 0,-0.0472 v -0.0473 -0.28347 -0.0472 c 0,-0.0158 -0.01114,-0.0361 0,-0.0473 0.01114,-0.0111 0.0315,0 0.04725,0 0.01574,0 0.03611,-0.0111 0.04725,0 0.0249,0.0249 0.03611,0.0611 0.04725,0.0945 0.0099,0.0299 -0.02228,0.0722 0,0.0945 0.01114,0.0111 0.0315,0 0.04725,0 0,0.0158 -0.01114,0.0361 0,0.0472 0.01114,0.0111 0.03611,-0.0111 0.04725,0 0.01114,0.0111 -0.01114,0.0361 0,0.0473 0.01114,0.0111 0.03611,-0.0111 0.04725,0 0.01114,0.0111 -0.007,0.0332 0,0.0473 0.0099,0.0199 0.03728,0.0273 0.04725,0.0472 0.01408,0.0282 -0.02228,0.0722 0,0.0945 0.01114,0.0111 0.03611,-0.0111 0.04725,0 0.02228,0.0223 -0.02228,0.0722 0,0.0945 0.01114,0.0111 0.03611,-0.0111 0.04725,0 0.02228,0.0223 -0.02228,0.0722 0,0.0945 0.01114,0.0111 0.03611,-0.0111 0.04725,0 0.02228,0.0223 -0.01408,0.0663 0,0.0945 0.0099,0.0199 0.03729,0.0273 0.04725,0.0472 0.01408,0.0282 -0.02228,0.0722 0,0.0945 0.02228,0.0223 0.07222,-0.0223 0.0945,0 v 0.0473 c 0,0.0158 -0.01114,0.0361 0,0.0473 0.01114,0.0111 0.03611,-0.0111 0.04725,0 0.02228,0.0223 -0.02228,0.0722 0,0.0945 0.01114,0.0111 0.03611,-0.0111 0.04725,0 0.02228,0.0223 -0.02228,0.0722 0,0.0945 0.02228,0.0223 0.07222,-0.0223 0.09449,0 0.01114,0.0111 -0.01114,0.0361 0,0.0473 0.01114,0.0111 0.03611,-0.0111 0.04725,0 0.01463,0.0146 -0.01463,0.2216 0,0.23623 0.01114,0.0111 0.03611,-0.0111 0.04725,0 0.01114,0.0111 -0.01114,0.0361 0,0.0473 0.02228,0.0223 0.07222,-0.0223 0.09449,0 0.02228,0.0223 -0.02228,0.0722 0,0.0945 0.0019,0.002 0.171636,0 0.188984,0 0.01574,0 0.04021,0.0141 0.04725,0 0.01408,-0.0282 0,-0.063 0,-0.0945 0,-0.0158 -0.01114,-0.0361 0,-0.0473 0.0097,-0.01 0.123006,0.009 0.141738,0 0.09556,-0.0478 0.01516,-0.10964 0.04725,-0.14174 0.02228,-0.0223 0.06632,0.0141 0.09449,0 0.07236,-0.0362 0.03695,-0.0842 0.0945,-0.14174 0.01114,-0.0111 0.03611,0.0111 0.04725,0 0.01114,-0.0111 0,-0.0315 0,-0.0472 0.01574,0 0.03611,0.0111 0.04725,0 0.01114,-0.0111 -0.01114,-0.0361 0,-0.0473 0.02228,-0.0223 0.07222,0.0223 0.09449,0 0.02228,-0.0223 -0.02228,-0.0722 0,-0.0945 0.01114,-0.0111 0.03611,0.0111 0.04725,0 0.01114,-0.0111 -0.01114,-0.0361 0,-0.0473 0.01114,-0.0111 0.03611,0.0111 0.04725,0 0.01114,-0.0111 -0.01114,-0.0361 0,-0.0473 0.02228,-0.0223 0.07222,0.0223 0.09449,0 0.02228,-0.0223 -0.01408,-0.0663 0,-0.0945 0.09831,-0.19663 -0.0033,0.0505 0.09449,-0.0472 0.02228,-0.0223 -0.02228,-0.0722 0,-0.0945 0.02228,-0.0223 0.07222,0.0223 0.09449,0 0.02228,-0.0223 -0.02228,-0.0722 0,-0.0945 0.01114,-0.0111 0.03611,0.0111 0.04725,0 0.02228,-0.0223 -0.01408,-0.0663 0,-0.0945 0.01992,-0.0398 0.07457,-0.0546 0.09449,-0.0945 0.02972,-0.0594 -0.06786,-0.0945 0.04725,-0.0945 0.01574,0 0.03611,-0.0111 0.04725,0 0.02363,0.0236 -0.02363,0.11812 0,0.14174 0.01114,0.0111 0.03611,-0.0111 0.04725,0 0.01114,0.0111 0,0.0315 0,0.0472 v 0.0472 0.28348 c 0,0.0158 -0.01114,0.0361 0,0.0473 0.01114,0.0111 0.03611,-0.0111 0.04725,0 0.01114,0.0111 -0.007,0.0332 0,0.0472 0.0099,0.0199 0.03729,0.0273 0.04725,0.0473 0.0025,0.12695 0.01889,0.25421 0.04725,0.37798 0,0.0126 -0.0078,0.13784 0,0.14174 0.02817,0.0141 0.07222,-0.0223 0.09449,0 0.0019,0.002 0,0.20988 0,0.23623 0,0.0329 -0.0085,0.21915 0,0.23624 0.0099,0.0199 0.03729,0.0273 0.04725,0.0472 0.01484,0.0297 -0.01484,0.15929 0,0.18899 0.01,0.0199 0.03729,0.0273 0.04725,0.0472 0.0094,0.0187 -0.0097,0.13209 0,0.14174 0.02228,0.0223 0.07222,-0.0223 0.09449,0 0.01463,0.0146 -0.01463,0.22161 0,0.23624 0.01114,0.0111 0.03611,-0.0111 0.04725,0 0.01114,0.0111 -0.01114,0.0361 0,0.0472 0.01114,0.0111 0.03611,-0.0111 0.04725,0 0.01138,0.0114 -0.01138,0.17762 0,0.18899 0.01114,0.0111 0.03611,-0.0111 0.04725,0 0.01114,0.0111 -0.01114,0.0361 0,0.0472 0.01114,0.0111 0.03611,-0.0111 0.04725,0 0.0021,0.002 0,0.21396 0,0.23624 0,0.0157 -0.01114,0.0361 0,0.0472 0.01114,0.0111 0.03611,-0.0111 0.04725,0 0.02228,0.0223 -0.02228,0.0722 0,0.0945 0.063,0.063 0.04725,-0.0788 0.04725,0.0472 0,0.0115 -0.0016,0.14022 0,0.14174 0.01114,0.0111 0.03611,-0.0111 0.04725,0 0.01138,0.0114 -0.01138,0.17762 0,0.18899 0.01114,0.0111 0.04851,0.0116 0.05965,0.0227 0.04661,0.0466 0.233858,0.60803 0.281108,0.70253"
       id="path121"
       inkscape:connector-curvature="0"
       sodipodi:nodetypes="csccscsccsccccsccscsccccsscsccccccccccscsccccsccccscccssscccccscscccscsccccscccccsccsscscscccccscccccccssccsscssccsccccc" />
    <path
       style="fill:none;fill-opacity:1;stroke:#000000;stroke-width:0.79373997;stroke-linecap:butt;stroke-linejoin:miter;stroke-miterlimit:4;stroke-dasharray:none;stroke-opacity:1"
       d="m 17.2959,291.11133 0.149563,-0.0174 c 0.171104,0.0235 0.329104,0.28599 0.264995,0.43635 -0.01992,0.01 -0.05072,0.163 -0.07064,0.173 -0.05964,0.025 -0.118514,0.0643 -0.18899,0.0945 -0.01438,0.007 -0.202313,-0.0205 -0.223591,-0.0205 h -0.330725 c -0.09765,-0.0159 -0.192719,-0.20494 -0.201637,-0.31021 -0.0042,-0.004 -0.0024,-0.14053 0,-0.14174 0.168485,-0.0901 0.206635,-0.16422 0.234805,-0.17832 0.306254,-0.10938 -0.0548,-0.0532 0.366218,-0.0356 z"
       id="path31-3"
       inkscape:connector-curvature="0"
       sodipodi:nodetypes="cccccscccccc" />
    <path
       style="fill:none;fill-opacity:1;stroke:#000000;stroke-width:0.79373997;stroke-linecap:butt;stroke-linejoin:miter;stroke-miterlimit:4;stroke-dasharray:none;stroke-opacity:1"
       d="m 17.356341,292.78972 -0.0029,0.17531 c -2.64e-4,0.0158 0.0076,0.0829 0.0029,0.15546 0.01371,0.11744 0.0487,0.17919 0.04725,0.28353 0.03833,0.11713 0.0234,0.22643 0.0379,0.26174 0.0162,0.15868 0.03029,0.29267 0.03029,0.44696 0.02843,0.17081 0.0633,0.24047 0.06706,0.36799 l -0.0124,1.16875"
       id="path35-6"
       inkscape:connector-curvature="0"
       sodipodi:nodetypes="cscccccc" />
    <path
       style="fill:none;fill-opacity:1;stroke:#000000;stroke-width:0.79373997;stroke-linecap:butt;stroke-linejoin:miter;stroke-miterlimit:4;stroke-dasharray:none;stroke-opacity:1"
       d="m 31.786082,290.44916 v 2.74029 0.56696 c -0.01928,0.16708 -0.03938,0.48774 0.02421,0.59714 l 0.07028,0.3006 c 0.09803,0.16265 0.348285,0.0831 0.504664,0.0111 0.293618,-0.037 0.620658,-0.17974 0.943627,-0.20836 0.267676,-0.0237 0.821373,-0.01 1.196907,-0.20839"
       id="path39-3"
       inkscape:connector-curvature="0"
       sodipodi:nodetypes="ccccccsc" />
    <path
       style="fill:none;fill-opacity:1;stroke:#000000;stroke-width:0.79373997;stroke-linecap:butt;stroke-linejoin:miter;stroke-miterlimit:4;stroke-dasharray:none;stroke-opacity:1"
       d="m 22.070427,296.14341 c 0,0 0.09402,-0.21411 0.126975,-0.31841 0.08605,-0.27235 0.119017,-0.51422 0.149556,-0.66392 0.01895,-0.31132 0.07484,-0.63024 0.102138,-0.8431 l 0.0041,-0.6644 c 0.02107,-0.50637 -0.0189,-0.76994 0.02658,-1.02993 0.04144,-0.47648 -0.194685,-0.82106 -0.01949,-1.25446 0.04555,-0.34875 0.186362,-0.34123 0.465374,-0.17244 0.08786,0.0346 0.240382,0.0926 0.345491,0.13584 0.247722,0.15641 0.504745,0.2763 0.56695,0.378 0.08472,0.10164 0.157798,0.31324 0.256307,0.46664 0.226222,0.8096 0.08783,1.04118 -0.526795,1.43934 -0.35145,0.10447 -1.03297,0.42404 -1.114448,0.46221"
       id="path59-7"
       inkscape:connector-curvature="0"
       sodipodi:nodetypes="csccccccccccc" />
    <path
       style="fill:none;fill-opacity:1;stroke:#000000;stroke-width:0.79373997;stroke-linecap:butt;stroke-linejoin:miter;stroke-miterlimit:4;stroke-dasharray:none;stroke-opacity:1"
       d="m 4.1814779,295.90737 c 0,0 0.09402,-0.21411 0.126975,-0.31841 0.08605,-0.27235 0.119017,-0.51422 0.149556,-0.66392 0.01895,-0.31132 0.07484,-0.63024 0.102138,-0.8431 l 0.0041,-0.6644 c 0.02107,-0.50637 -0.0189,-0.76994 0.02658,-1.02993 0.04144,-0.47648 -0.194685,-0.82106 -0.01949,-1.25446 0.04555,-0.34875 0.186362,-0.34123 0.4653741,-0.17244 0.08786,0.0346 0.2403819,0.0926 0.3454909,0.13584 0.247722,0.15641 0.5047451,0.2763 0.56695,0.378 0.08472,0.10164 0.1577981,0.31324 0.256307,0.46664 0.2262221,0.8096 0.08783,1.04118 -0.526795,1.43934 -0.35145,0.10447 -1.03297,0.42404 -1.114448,0.46221"
       id="path59-5"
       inkscape:connector-curvature="0"
       sodipodi:nodetypes="csccccccccccc" />
    <path
       style="fill:none;fill-opacity:1;stroke:#000000;stroke-width:0.79373997;stroke-linecap:butt;stroke-linejoin:miter;stroke-miterlimit:4;stroke-dasharray:none;stroke-opacity:1"
       d="m 25.206458,295.62702 c 0.293039,0.0754 1.661858,0.009 1.991044,-0.11926 0.189129,-0.0713 1.700681,-0.67377 2.176273,-0.77854"
       id="path71-6"
       inkscape:connector-curvature="0"
       sodipodi:nodetypes="ccc" />
    <path
       style="fill:none;fill-opacity:1;stroke:#000000;stroke-width:0.79373997;stroke-linecap:butt;stroke-linejoin:miter;stroke-miterlimit:4;stroke-dasharray:none;stroke-opacity:1"
       d="m 25.343912,293.59912 c 0.293039,0.0754 1.670628,-0.0878 1.999814,-0.21573 0.189129,-0.0713 0.717246,-0.23755 1.192838,-0.34232"
       id="path71-6-7"
       inkscape:connector-curvature="0"
       sodipodi:nodetypes="ccc" />
    <path
       style="fill:none;fill-opacity:1;stroke:#000000;stroke-width:0.79373997;stroke-linecap:butt;stroke-linejoin:miter;stroke-miterlimit:4;stroke-dasharray:none;stroke-opacity:1"
       d="m 25.13344,291.67563 c 0.380736,-0.14091 1.69986,-0.0703 2.029046,-0.19819 0.189129,-0.0713 0.813454,-0.21499 1.289046,-0.31976"
       id="path71-6-5"
       inkscape:connector-curvature="0"
       sodipodi:nodetypes="ccc" />
    <path
       style="fill:none;fill-opacity:1;stroke:#000000;stroke-width:0.79373997;stroke-linecap:butt;stroke-linejoin:miter;stroke-miterlimit:4;stroke-dasharray:none;stroke-opacity:1"
       d="m 67.583403,292.73315 c 0.0058,0.24743 0.05705,0.72107 0.05705,0.91004 0.0559,0.14618 0.275978,0.49619 0.377023,0.64799 0.203334,0.24055 0.35624,0.38205 0.734139,0.4672 0.1659,0.0355 0.430468,0.0721 0.610073,0.072 0.23861,-0.0306 0.333375,-0.10593 0.484876,-0.16593 0.0858,-0.057 0.142195,-0.13391 0.268131,-0.23502 0.189586,-0.16999 0.258316,-0.34043 0.510112,-0.75292 0.07747,-0.15771 0.251866,-0.46452 0.33563,-0.60027 0.13274,-0.44515 0.136188,-0.66065 -0.03602,-0.9359 -0.174689,-0.17359 -0.296019,-0.30532 -0.394507,-0.32729 -0.162227,-0.0686 -0.238965,-0.11517 -0.407506,-0.13997 -0.308213,-0.0517 -0.697558,-0.17112 -0.886732,-0.18125 -0.185206,-0.007 -0.557849,-0.075 -0.679677,-0.0625 -0.717942,0.18069 -0.903532,0.79015 -0.972592,1.30382 z"
       id="path83-3"
       inkscape:connector-curvature="0"
       sodipodi:nodetypes="ccccccccccccccc" />
  </g>
</svg>
