<?xml version="1.0" encoding="UTF-8" standalone="no"?>
<!-- Created with Inkscape (http://www.inkscape.org/) -->

<svg
   xmlns:dc="http://purl.org/dc/elements/1.1/"
   xmlns:cc="http://creativecommons.org/ns#"
   xmlns:rdf="http://www.w3.org/1999/02/22-rdf-syntax-ns#"
   xmlns:svg="http://www.w3.org/2000/svg"
   xmlns="http://www.w3.org/2000/svg"
   xmlns:sodipodi="http://sodipodi.sourceforge.net/DTD/sodipodi-0.dtd"
   xmlns:inkscape="http://www.inkscape.org/namespaces/inkscape"
   width="300"
   height="30"
   viewBox="0 0 79.374 7.9374"
   version="1.1"
   id="svg8"
   inkscape:version="0.92.2 5c3e80d, 2017-08-06"
   sodipodi:docname="logo.svg">
  <defs
     id="defs2" />
  <sodipodi:namedview
     id="base"
     pagecolor="#ffffff"
     bordercolor="#666666"
     borderopacity="1.0"
     inkscape:pageopacity="0.0"
     inkscape:pageshadow="2"
     inkscape:zoom="15.999999"
     inkscape:cx="37.985389"
     inkscape:cy="13.460387"
     inkscape:document-units="px"
     inkscape:current-layer="layer1"
     showgrid="false"
     units="px"
     inkscape:window-width="1920"
     inkscape:window-height="1016"
     inkscape:window-x="0"
     inkscape:window-y="27"
     inkscape:window-maximized="1" />
  <metadata
     id="metadata5">
    <rdf:RDF>
      <cc:Work
         rdf:about="">
        <dc:format>image/svg+xml</dc:format>
        <dc:type
           rdf:resource="http://purl.org/dc/dcmitype/StillImage" />
        <dc:title />
      </cc:Work>
    </rdf:RDF>
  </metadata>
  <g
     inkscape:label="Layer 1"
     inkscape:groupmode="layer"
     id="layer1"
     transform="translate(0,-289.05996)">
    <path
       style="fill:none;fill-opacity:1;stroke:#000000;stroke-width:0.79373997;stroke-linecap:butt;stroke-linejoin:miter;stroke-miterlimit:4;stroke-dasharray:none;stroke-opacity:1"
       d="m 44.175412,291.25219 c 0,0.063 -0.02339,0.1305 0,0.18899 0.01307,0.0327 0.06519,0.0277 0.09449,0.0473 0.01852,0.0123 0.03729,0.0273 0.04725,0.0472 0.01408,0.0282 -0.02228,0.0722 0,0.0945 0.01114,0.0111 0.0402,-0.0141 0.04725,0 0.0145,0.029 -0.01466,0.20694 0,0.23623 0.0099,0.0199 0.03729,0.0273 0.04725,0.0472 0.0068,0.0135 0,0.211 0,0.23624 v 2.12609 0.56695 0.0472 c 0,0.0158 0.01114,0.0361 0,0.0473 -0.0249,0.0249 -0.06959,0.0223 -0.09449,0.0472 -0.02228,0.0223 0.01408,0.0663 0,0.0945 -0.01,0.0199 -0.0315,0.063 -0.04725,0.0473 -0.04725,-0.0473 0.121558,-0.15881 0.09793,-0.20605"
       id="path87"
       inkscape:connector-curvature="0"
       sodipodi:nodetypes="cccccsccsccsccccc" />
    <path
       style="fill:none;fill-opacity:1;stroke:#000000;stroke-width:0.82907772;stroke-linecap:butt;stroke-linejoin:miter;stroke-miterlimit:4;stroke-dasharray:none;stroke-opacity:1"
       d="m 7.93111,290.88016 c 0,0.0148 0.02596,0.72585 0.024648,0.93835 -0.00154,0.24938 -0.02715,1.31273 -0.021725,1.58952 l -3e-7,0.81157 0.00585,0.36404 v 1.13793"
       id="path11"
       inkscape:connector-curvature="0"
       sodipodi:nodetypes="cscccc" />
    <path
       style="fill:none;fill-opacity:1;stroke:#000000;stroke-width:0.79373997;stroke-linecap:butt;stroke-linejoin:miter;stroke-miterlimit:4;stroke-dasharray:none;stroke-opacity:1"
       d="m 7.9959866,293.42914 c 0.1686535,-0.0752 0.899323,-0.0413 0.899323,-0.0413 0,0 0.4612403,-0.0206 0.7577278,-0.0174"
       id="path13"
       inkscape:connector-curvature="0"
       sodipodi:nodetypes="ccc" />
    <path
       style="fill:none;fill-opacity:1;stroke:#000000;stroke-width:0.85038453;stroke-linecap:butt;stroke-linejoin:miter;stroke-miterlimit:4;stroke-dasharray:none;stroke-opacity:1"
       d="m 9.7055384,290.91284 c -0.00376,1.08885 0.00217,2.6741 -0.00585,2.90649 -9.796e-4,0.18672 -2.851e-4,1.71564 -0.00581,1.90581"
       id="path15"
       inkscape:connector-curvature="0"
       sodipodi:nodetypes="ccc" />
    <path
       style="fill:none;fill-opacity:1;stroke:#000000;stroke-width:0.79373997;stroke-linecap:butt;stroke-linejoin:miter;stroke-miterlimit:4;stroke-dasharray:none;stroke-opacity:1"
       d="m 12.001573,290.95931 0.149563,-0.0174 c 0.171104,0.0235 0.329104,0.28599 0.264995,0.43635 -0.01992,0.01 -0.05072,0.163 -0.07064,0.173 -0.05964,0.025 -0.118514,0.0643 -0.18899,0.0945 -0.01438,0.007 -0.202313,-0.0205 -0.223591,-0.0205 h -0.330725 c -0.09765,-0.0159 -0.192719,-0.20494 -0.201637,-0.31021 -0.0042,-0.004 -0.0024,-0.14053 0,-0.14174 0.168485,-0.0901 0.206635,-0.16422 0.234805,-0.17832 0.306254,-0.10938 -0.0548,-0.0532 0.366218,-0.0356 z"
       id="path31"
       inkscape:connector-curvature="0"
       sodipodi:nodetypes="cccccscccccc" />
    <path
       style="fill:none;fill-opacity:1;stroke:#000000;stroke-width:0.79373997;stroke-linecap:butt;stroke-linejoin:miter;stroke-miterlimit:4;stroke-dasharray:none;stroke-opacity:1"
       d="m 12.062014,292.6377 -0.0029,0.17531 c -2.64e-4,0.0158 0.0076,0.0829 0.0029,0.15546 0.01371,0.11744 0.0487,0.17919 0.04725,0.28353 0.03833,0.11713 0.0234,0.22643 0.0379,0.26174 0.0162,0.15868 0.03029,0.29267 0.03029,0.44696 0.02843,0.17081 0.0633,0.24047 0.06706,0.36799 l -0.0124,1.16875"
       id="path35"
       inkscape:connector-curvature="0"
       sodipodi:nodetypes="cscccccc" />
    <path
       style="fill:none;fill-opacity:1;stroke:#000000;stroke-width:0.79373997;stroke-linecap:butt;stroke-linejoin:miter;stroke-miterlimit:4;stroke-dasharray:none;stroke-opacity:1"
       d="m 13.810132,291.26755 v 2.74029 0.56696 c -0.01928,0.16708 -0.03938,0.48774 0.02421,0.59714 l 0.07028,0.3006 c 0.09803,0.16265 0.348285,0.0831 0.504664,0.0111 0.293618,-0.037 0.620658,-0.17974 0.943627,-0.20836 0.267676,-0.0237 0.821373,-0.01 1.196907,-0.20839"
       id="path39"
       inkscape:connector-curvature="0"
       sodipodi:nodetypes="ccccccsc" />
    <path
       style="fill:none;fill-opacity:1;stroke:#000000;stroke-width:0.79373997;stroke-linecap:butt;stroke-linejoin:miter;stroke-miterlimit:4;stroke-dasharray:none;stroke-opacity:1"
       d="m 19.189048,296.22131 c 0,0 0.09402,-0.21411 0.126975,-0.31841 0.08605,-0.27235 0.119017,-0.51422 0.149556,-0.66392 0.01895,-0.31132 0.07484,-0.63024 0.102138,-0.8431 l 0.0041,-0.6644 c 0.02107,-0.50637 -0.0189,-0.76994 0.02658,-1.02993 0.04144,-0.47648 -0.194685,-0.82106 -0.01949,-1.25446 0.04555,-0.34875 0.186362,-0.34123 0.465374,-0.17244 0.08786,0.0346 0.240382,0.0926 0.345491,0.13584 0.247722,0.15641 0.504745,0.2763 0.56695,0.378 0.08472,0.10164 0.157798,0.31324 0.256307,0.46664 0.226222,0.8096 0.08783,1.04118 -0.526795,1.43934 -0.35145,0.10447 -1.03297,0.42404 -1.114448,0.46221"
       id="path59"
       inkscape:connector-curvature="0"
       sodipodi:nodetypes="csccccccccccc" />
    <path
       style="fill:none;fill-opacity:1;stroke:#000000;stroke-width:0.79373997;stroke-linecap:butt;stroke-linejoin:miter;stroke-miterlimit:4;stroke-dasharray:none;stroke-opacity:1"
       d="m 24.851621,291.30889 c 0.174651,0.19273 0.14174,0.1794 0.14174,0.37797 0,0.0315 -0.01409,0.0663 0,0.0945 0.007,0.0141 0.04227,-0.0149 0.04725,0 0.01529,0.0459 0,0.17335 0,0.23624 0,0.0422 -0.0075,0.22117 0,0.23623 0.01,0.0199 0.03729,0.0273 0.04725,0.0472 0.01485,0.0297 -0.01485,0.1593 0,0.18899 0.007,0.0141 0.03611,-0.0111 0.04725,0 0.0019,0.002 0,0.17164 0,0.18899 v 1.13391 0.51971 c 0,0.0109 0.0054,0.13992 0,0.14174 -0.173237,0.0577 -0.141739,-0.0857 -0.141739,0.0945 v 0.0473 c 0,0.0157 0.007,0.0332 0,0.0473 -0.01,0.0199 -0.03729,0.0273 -0.04725,0.0472 -0.0189,0.0378 0.0189,0.10394 0,0.14174 -0.01,0.0199 -0.03729,0.0273 -0.04725,0.0473 -0.007,0.0141 0,0.0315 0,0.0472 v 0.0473 c 0,0.0126 -0.0078,0.13784 0,0.14174 0.01382,0.007 0.244807,0 0.283478,0 h 0.755943 c 0.01735,0 0.187085,0.002 0.188986,0 0.140982,-0.14098 0.02699,-0.13499 0.188986,-0.18899 0.03803,-0.0127 0.158794,0.0151 0.188985,0 0.01992,-0.01 0.02733,-0.0373 0.04725,-0.0472 0.02817,-0.0141 0.06632,0.0141 0.09449,0 0.01992,-0.01 0.02732,-0.0373 0.04725,-0.0473 0.01409,-0.007 0.507393,-0.0964 0.518533,-0.10749 0.01114,-0.0111 -0.471283,0.076 -0.471283,0.0603 v -0.0473 c 0,-0.0157 0.995047,-0.218 0.983907,-0.2291 -0.05429,-0.0543 -0.925727,0.2291 -0.983907,0.2291"
       id="path71"
       inkscape:connector-curvature="0"
       sodipodi:nodetypes="csccsccccscscssccccsscssccccccssscc" />
    <path
       style="fill:none;fill-opacity:1;stroke:#000000;stroke-width:0.79373997;stroke-linecap:butt;stroke-linejoin:miter;stroke-miterlimit:4;stroke-dasharray:none;stroke-opacity:1"
       d="m 25.117382,293.42021 c 0.063,-0.0472 0.379941,-0.12698 0.442936,-0.17422 0.01575,0 0.03316,0.007 0.04725,0 0.01992,-0.01 0.02612,-0.0402 0.04725,-0.0472 0.02988,-0.01 0.06461,0.01 0.09449,0 0.02113,-0.007 0.02733,-0.0373 0.04725,-0.0473 0.01409,-0.007 0.03316,0.007 0.04725,0 0.01992,-0.01 0.02733,-0.0373 0.04725,-0.0472 0.01409,-0.007 0.03316,0.007 0.04725,0 0.01992,-0.01 0.0315,-0.0315 0.04725,-0.0472 0.05406,-0.0541 0.05593,-0.0659 0.141739,-0.0945 0.02988,-0.01 0.063,0 0.09449,0 0.08053,0 0.08453,0.005 0.188986,-0.0472 0.03984,-0.0199 0.05465,-0.0746 0.09449,-0.0945 0.0378,-0.0189 0.103943,0.0189 0.14174,0 0.01992,-0.01 0.02732,-0.0373 0.04725,-0.0472 0.01409,-0.007 0.03611,0.0111 0.04725,0 0.01114,-0.0111 -0.01114,-0.0361 0,-0.0473 0.02227,-0.0223 0.07222,0.0223 0.09449,0 0.01114,-0.0111 -0.01114,-0.0361 0,-0.0472 0.02227,-0.0223 0.07222,0.0223 0.09449,0 0.01114,-0.0111 -0.01114,-0.0361 0,-0.0473 0.01114,-0.0111 0.03218,0.004 0.04725,0 1.252204,-0.3734 -0.0054,-0.0337 0,-0.0473 0.01,-0.0199 0.03729,-0.0273 0.04725,-0.0472 0.007,-0.0141 0.463015,-0.0165 0.463015,-0.0638"
       id="path73"
       inkscape:connector-curvature="0"
       sodipodi:nodetypes="cccccccccccsccccscccccsccc" />
    <path
       style="fill:none;fill-opacity:1;stroke:#000000;stroke-width:0.79373997;stroke-linecap:butt;stroke-linejoin:miter;stroke-miterlimit:4;stroke-dasharray:none;stroke-opacity:1"
       d="m 24.851621,291.30889 c 0.157488,-0.0157 0.612494,-0.0742 0.770118,-0.0886 0.07725,-0.007 0.158618,0 0.236232,0 h 0.519711 c 0.01146,0 0.140219,0.002 0.141739,0 0.0249,-0.0249 0.02235,-0.0696 0.04725,-0.0945 0.02227,-0.0223 0.06632,0.0141 0.09449,0 0.01992,-0.01 0.02733,-0.0373 0.04725,-0.0473 0.02817,-0.0141 0.06632,0.0141 0.09449,0 0.01992,-0.01 0.02733,-0.0373 0.04725,-0.0472 0.01409,-0.007 0.03316,0.007 0.04725,0 0.01992,-0.01 0.02733,-0.0373 0.04725,-0.0473 0.01873,-0.009 0.13208,0.01 0.141739,0 0.01114,-0.0111 -0.01114,-0.0361 0,-0.0473 0.02227,-0.0223 0.07222,0.0223 0.09449,0 0.01114,-0.0111 -0.01114,-0.0361 0,-0.0472 0.01114,-0.0111 0.03316,0.007 0.04725,0 0.01992,-0.01 0.02733,-0.0373 0.04725,-0.0472 0.01409,-0.007 0.03611,0.0111 0.04725,0 0.01114,-0.0111 -0.01114,-0.0361 0,-0.0472 0.02227,-0.0223 0.06632,0.0141 0.09449,0 0.01992,-0.01 0.02733,-0.0373 0.04725,-0.0472 0.02817,-0.0141 0.458288,-0.0579 0.458288,-0.0579"
       id="path75"
       inkscape:connector-curvature="0"
       sodipodi:nodetypes="ccsscccccccccccsccscccc" />
    <path
       style="fill:none;fill-opacity:1;stroke:#000000;stroke-width:0.79373997;stroke-linecap:butt;stroke-linejoin:miter;stroke-miterlimit:4;stroke-dasharray:none;stroke-opacity:1"
       d="m 36.426996,290.87422 c -0.204264,0.0511 -0.124051,0.0473 -0.236233,0.0473 -0.01574,0 -0.03316,-0.007 -0.04725,0 -0.03984,0.0199 -0.05465,0.0746 -0.09449,0.0945 -0.01408,0.007 -0.03611,-0.0111 -0.04725,0 -0.01114,0.0111 0.01114,0.0361 0,0.0473 -0.02228,0.0223 -0.07222,-0.0223 -0.09449,0 -0.02228,0.0223 0.01408,0.0663 0,0.0945 -0.01,0.0199 -0.03489,0.0287 -0.04725,0.0473 -0.01953,0.0293 -0.02236,0.0696 -0.04725,0.0945 -0.01114,0.0111 -0.03611,-0.0111 -0.04725,0 -0.01114,0.0111 0.007,0.0332 0,0.0472 -0.0099,0.0199 -0.03729,0.0273 -0.04725,0.0472 -0.007,0.0141 0.007,0.0332 0,0.0473 -0.01,0.0199 -0.03729,0.0273 -0.04725,0.0473 -0.01408,0.0282 0.02228,0.0722 0,0.0945 -0.12599,0 0.01574,-0.0158 -0.04725,0.0472 -0.01114,0.0111 -0.03611,-0.0111 -0.04725,0 -0.01294,0.0129 0.01281,0.16335 0,0.18898 -0.01,0.0199 -0.03729,0.0273 -0.04725,0.0473 -0.007,0.0141 0.01114,0.0361 0,0.0472 -0.01114,0.0111 -0.03611,-0.0111 -0.04725,0 -0.0097,0.01 0.0094,0.12301 0,0.14174 -0.0099,0.0199 -0.0402,0.0261 -0.04725,0.0473 -0.0087,0.0261 0,0.2359 0,0.28348 v 0.0472 c 0,0.0158 0.01114,0.0361 0,0.0473 -0.01114,0.0111 -0.03611,-0.0111 -0.04725,0 -0.01114,0.0111 0,0.0315 0,0.0473 v 0.0472 0.51971 0.0473 c 0,0.0157 -0.01114,0.0361 0,0.0473 0.0249,0.0249 0.06959,0.0223 0.09449,0.0472 0.01114,0.0111 -0.007,0.0332 0,0.0472 0.01,0.0199 0.03729,0.0273 0.04725,0.0473 0.007,0.0141 -0.007,0.0332 0,0.0472 0.01,0.0199 0.03729,0.0273 0.04725,0.0473 0.007,0.0141 -0.01114,0.0361 0,0.0473 0.02228,0.0223 0.07222,-0.0223 0.09449,0 0.03113,0.0311 -0.03113,0.0634 0,0.0945 0.01114,0.0111 0.03611,-0.0111 0.04725,0 0.09775,0.0978 -0.149382,-0.004 0.04725,0.0945 0.01408,0.007 0.03611,-0.0111 0.04725,0 0.01114,0.0111 -0.007,0.0332 0,0.0473 0.01,0.0199 0.03729,0.0273 0.04725,0.0472 0.007,0.0141 -0.01114,0.0361 0,0.0473 0.03155,0.0315 0.06294,-0.0315 0.0945,0 0.0097,0.01 -0.0094,0.12301 0,0.14174 0.0099,0.0199 0.03728,0.0273 0.04725,0.0473 0.007,0.0141 -0.01114,0.0361 0,0.0472 0.02228,0.0223 0.06632,-0.0141 0.09449,0 0.196628,0.0983 -0.05051,-0.003 0.04725,0.0945 0.02228,0.0223 0.07222,-0.0223 0.0945,0 0.01114,0.0111 -0.01114,0.0361 0,0.0472 0.01114,0.0111 0.03149,0 0.04725,0 0,0.0157 -0.01114,0.0361 0,0.0472 0.02228,0.0223 0.07222,-0.0223 0.09449,0 0.01114,0.0111 -0.01114,0.0361 0,0.0473 0.01114,0.0111 0.0315,0 0.04725,0 h 0.236233 c 0.01574,0 0.03611,-0.0111 0.04725,0 0.01114,0.0111 -0.01114,0.0361 0,0.0472 0.01114,0.0111 0.0315,0 0.04725,0 h 0.425217 c 0.0315,0 0.06829,0.0175 0.09449,0 0.0293,-0.0195 0.01794,-0.075 0.04725,-0.0945 0.02614,-0.0174 0.157605,0.0157 0.188984,0 0.01992,-0.01 0.02733,-0.0373 0.04725,-0.0472 0.01408,-0.007 0.03611,0.0111 0.04725,0 0.01114,-0.0111 -0.01114,-0.0361 0,-0.0472 0.01114,-0.0111 0.03231,0.005 0.04725,0 0.03341,-0.0111 0.06108,-0.0361 0.09449,-0.0473 0.01495,-0.005 0.03611,0.0111 0.04725,0 0.01114,-0.0111 -0.007,-0.0332 0,-0.0473 0.01,-0.0199 0.0315,-0.0315 0.04725,-0.0472 0.01574,-0.0158 0.02733,-0.0373 0.04725,-0.0473 0.01408,-0.007 0.03611,0.0111 0.04725,0 0.01114,-0.0111 -0.01114,-0.0361 0,-0.0472 0.09775,-0.0978 -0.0038,0.14939 0.09449,-0.0472 0.03259,-0.0652 -0.05722,-0.0423 0.04725,-0.0945 0.01408,-0.007 0.03611,0.0111 0.04725,0 0.184391,-0.18439 -0.01093,-0.0254 0.04725,-0.14173 0.01,-0.0199 0.03729,-0.0273 0.04725,-0.0473 0.007,-0.0141 0,-0.0315 0,-0.0472 0.01574,-0.0157 0.03728,-0.0273 0.04725,-0.0472 0.007,-0.0141 -0.01114,-0.0361 0,-0.0473 0.0249,-0.0249 0.06959,-0.0224 0.09449,-0.0473 0.01114,-0.0111 -0.007,-0.0332 0,-0.0472 0.01,-0.0199 0.03729,-0.0273 0.04725,-0.0473 0.01408,-0.0282 -0.01408,-0.0663 0,-0.0945 0.01992,-0.0398 0.07457,-0.0547 0.09449,-0.0945 0.05223,-0.10445 0.04725,-0.10845 0.04725,-0.18898 0,-0.0315 -0.01,-0.0646 0,-0.0945 0.007,-0.0211 0.03149,-0.0315 0.04725,-0.0473 0.01574,-0.0158 0.02871,-0.0349 0.04725,-0.0473 0.0293,-0.0195 0.06959,-0.0223 0.09449,-0.0472 0.01114,-0.0111 -0.005,-0.0323 0,-0.0473 0.01114,-0.0334 0.03611,-0.0611 0.04725,-0.0945 0.0087,-0.026 -0.01011,-0.17889 0,-0.18899 0.01114,-0.0111 0.03611,0.0111 0.04725,0 0.01114,-0.0111 0,-0.0315 0,-0.0472 v -0.0472 -0.42522 c 0,-0.0126 0.0078,-0.13784 0,-0.14174 -0.02817,-0.0141 -0.06632,0.0141 -0.09449,0 -0.01408,-0.007 0.007,-0.0332 0,-0.0472 -0.0099,-0.0199 -0.03728,-0.0273 -0.04725,-0.0472 -0.01408,-0.0282 0.02228,-0.0722 0,-0.0945 -0.02228,-0.0223 -0.07222,0.0223 -0.09449,0 -0.01114,-0.0111 0.007,-0.0332 0,-0.0473 -0.0063,-0.0125 -0.129195,-0.13547 -0.141741,-0.14174 -0.03263,-0.0163 -0.219646,0.0166 -0.23623,0 -0.01114,-0.0111 0.007,-0.0332 0,-0.0473 -0.01,-0.0199 -0.0315,-0.0315 -0.04725,-0.0472 -0.01574,-0.0158 -0.02611,-0.0402 -0.04725,-0.0473 -0.02162,-0.007 -0.167961,0.0105 -0.188984,0 -0.0912,-0.0829 -0.129185,-0.0852 -0.472479,-0.1418 -0.01437,-0.007 -0.120461,0 -0.141738,0 h -0.519712 c -0.01257,0 -0.137838,-0.008 -0.141738,0 -0.01408,0.0282 0.01408,0.0663 0,0.0945 -0.007,0.0141 -0.0315,0 -0.04725,0 h -0.04725 c -0.125991,0 -0.147961,-0.21156 -0.210951,-0.14856 0.03523,0.0678 0.116451,0.19586 0.116451,0.19586"
       id="path83"
       inkscape:connector-curvature="0"
       sodipodi:nodetypes="csccscccccscccccccccscccsscssccscccccccccccsccccccccccsccccssssssccccssccscccsccccccccccccccscccccccsscsccccscccccccccssccsscc" />
    <path
       style="fill:none;fill-opacity:1;stroke:#000000;stroke-width:0.79373997;stroke-linecap:butt;stroke-linejoin:miter;stroke-miterlimit:4;stroke-dasharray:none;stroke-opacity:1"
       d="m 41.435117,291.06321 c -0.06299,0.0472 -0.127496,0.0926 -0.188984,0.14174 -0.01738,0.0139 -0.02733,0.0373 -0.04725,0.0472 -0.0297,0.0148 -0.159291,-0.0148 -0.188987,0 -0.01254,0.006 -0.135468,0.1292 -0.141738,0.14174 -0.007,0.0141 0.01114,0.0361 0,0.0473 -0.03155,0.0315 -0.06294,-0.0315 -0.0945,0 -0.01114,0.0111 0.01114,0.0361 0,0.0473 -0.02228,0.0223 -0.06632,-0.0141 -0.09449,0 -0.01992,0.01 -0.0315,0.0315 -0.04725,0.0472 -0.04725,0.0473 -0.09449,0.0945 -0.141741,0.14174 -0.01574,0.0158 -0.02871,0.0349 -0.04725,0.0473 -0.0293,0.0195 -0.06959,0.0224 -0.09449,0.0472 -0.01114,0.0111 0.007,0.0332 0,0.0473 -0.01,0.0199 -0.03729,0.0273 -0.04725,0.0473 -0.007,0.0141 0.01114,0.0361 0,0.0472 -0.01114,0.0111 -0.03611,-0.0111 -0.04725,0 -0.02228,0.0223 0.02228,0.0722 0,0.0945 -0.01114,0.0111 -0.03611,-0.0111 -0.04725,0 -0.01114,0.0111 0.007,0.0332 0,0.0472 -0.01,0.0199 -0.03729,0.0273 -0.04725,0.0473 -0.007,0.0141 0.007,0.0332 0,0.0473 -0.0099,0.0199 -0.03728,0.0273 -0.04725,0.0472 -0.01408,0.0282 0.01408,0.0663 0,0.0945 -0.0099,0.0199 -0.03729,0.0273 -0.04725,0.0472 -0.007,0.0141 0.007,0.0332 0,0.0473 -0.0099,0.0199 -0.04184,0.0256 -0.04725,0.0472 -0.01146,0.0458 0,0.0945 0,0.14174 0,0.0157 0.007,0.0332 0,0.0472 -0.01,0.0199 -0.03729,0.0273 -0.04725,0.0473 -0.01889,0.0378 0.01889,0.10394 0,0.14174 -0.007,0.0141 -0.03611,-0.0111 -0.04725,0 -0.01114,0.0111 0.007,0.0332 0,0.0472 -0.01,0.0199 -0.03729,0.0273 -0.04725,0.0472 -0.0085,0.0171 0,0.20337 0,0.23623 0,0.0157 0.01114,0.0361 0,0.0473 -0.01114,0.0111 -0.03611,-0.0111 -0.04725,0 -0.01114,0.0111 0,0.0315 0,0.0472 v 0.28348 0.0472 c 0,0.0158 -0.01114,0.0361 0,0.0473 0.0249,0.0249 0.06519,0.0277 0.09449,0.0472 0.01852,0.0124 0.02733,0.0373 0.04725,0.0473 0.02817,0.0141 0.07222,-0.0223 0.09449,0 0.063,0.063 -0.100225,0.0453 0.04725,0.0945 0.02988,0.01 0.06632,-0.0141 0.09449,0 0.01408,0.007 -0.01114,0.0361 0,0.0472 0.0097,0.01 0.123006,-0.009 0.141738,0 0.01992,0.01 0.02733,0.0373 0.04725,0.0472 0.01408,0.007 0.0402,-0.0141 0.04725,0 0.01408,0.0282 -0.02228,0.0722 0,0.0945 0.02228,0.0223 0.063,0 0.0945,0 h 0.425217 c 0.01574,0 0.03611,-0.0111 0.04725,0 0.01114,0.0111 -0.01408,0.0402 0,0.0472 0.02817,0.0141 0.063,0 0.09449,0 h 0.283479 0.04725 c 0.01574,0 0.03611,0.0111 0.04725,0 0.0249,-0.0249 0.02236,-0.0696 0.04725,-0.0945 0.02228,-0.0223 0.07222,0.0223 0.09449,0 0.01114,-0.0111 -0.01114,-0.0361 0,-0.0472 0.01114,-0.0111 0.0315,0 0.04725,0 h 0.236233 c 0.01574,0 0.03611,0.0111 0.04725,0 0.01114,-0.0111 -0.100022,0.006 -0.08888,-0.005 0.01114,-0.0111 0.03316,0.007 0.04725,0 0.116764,-0.0584 0.07258,-0.0896 0.183372,-0.0896"
       id="path85"
       inkscape:connector-curvature="0"
       sodipodi:nodetypes="cccccccccccccccsccsccccccccscccsccscsscsccccccccccsssscscscccssssscc" />
    <path
       style="fill:none;fill-opacity:1;stroke:#000000;stroke-width:0.79373997;stroke-linecap:butt;stroke-linejoin:miter;stroke-miterlimit:4;stroke-dasharray:none;stroke-opacity:1"
       d="m 42.710771,291.39393 c 0.07874,0 0.157489,0 0.236233,0 0.01574,0 0.03414,-0.009 0.04725,0 0.03706,0.0247 0.05743,0.0698 0.09449,0.0945 0.01561,0.0104 0.258794,-0.0124 0.283479,0 0.01992,0.01 0.02611,0.0402 0.04725,0.0472 0.03067,0.0102 0.287808,0 0.330725,0 0.173237,0 0.346476,0 0.519712,0 0.01122,0 0.178396,-0.005 0.188984,0 0.01992,0.01 0.02733,0.0373 0.04725,0.0473 0.02981,0.0149 0.206425,-0.0149 0.23623,0 0.01992,0.01 0.02733,0.0373 0.04725,0.0472 0.02817,0.0141 0.06632,-0.0141 0.0945,0 0.01992,0.01 0.02733,0.0373 0.04725,0.0472 0.02934,0.0147 0.253203,-0.0151 0.283479,0 0.01992,0.01 0.02733,0.0373 0.04725,0.0473 0.01408,0.007 0.0315,0 0.04725,0 0.0315,0 0.063,0 0.09449,0 0.110243,0 0.220485,0 0.330725,0 0.0315,0 0.063,0 0.0945,0 0.01574,0 0.03231,-0.005 0.04725,0 0.03341,0.0111 0.06108,0.0361 0.09449,0.0472 0.01495,0.005 0.0315,0 0.04725,0 0.0315,0 0.063,0 0.09449,0 0.063,0 0.125991,0 0.188987,0 0.063,0 0.12599,0 0.188987,0 0.0315,0 0.12599,0 0.09449,0 -0.0315,0 -0.063,0 -0.09449,0"
       id="path91"
       inkscape:connector-curvature="0" />
    <path
       style="fill:none;fill-opacity:1;stroke:#000000;stroke-width:0.79373997;stroke-linecap:butt;stroke-linejoin:miter;stroke-miterlimit:4;stroke-dasharray:none;stroke-opacity:1"
       d="m 46.773939,295.22101 v -0.0472 c 0,-0.0157 -0.01114,-0.0361 0,-0.0472 0.01114,-0.0111 0.03611,0.0111 0.04725,0 0.01114,-0.0112 -0.01114,-0.0362 0,-0.0473 0.114748,-0.1148 0.06938,0.014 0.141738,-0.0945 0.01954,-0.0293 0.03151,-0.063 0.04725,-0.0945 0.01575,-0.0315 0.03611,-0.0611 0.04725,-0.0945 0.005,-0.015 -0.01114,-0.0362 0,-0.0473 0.01114,-0.0111 0.04225,0.0149 0.04725,0 0.01495,-0.0448 0,-0.0944 0,-0.14174 0,-0.0157 -0.0131,-0.0382 0,-0.0472 0.04144,-0.0276 0.09449,-0.0314 0.141741,-0.0472 0,-0.0472 -0.02835,-0.10394 0,-0.14174 0.02988,-0.0403 0.106518,-0.0121 0.141738,-0.0473 0.02363,-0.0236 -0.0118,-0.10634 0,-0.14174 0.01114,-0.0334 0.03151,-0.063 0.04725,-0.0945 0,-0.0315 -0.0076,-0.0639 0,-0.0945 0.04231,-0.16924 0.146677,-0.067 0.188987,-0.23624 0.0076,-0.0306 -0.0076,-0.0639 0,-0.0945 0.01768,-0.0707 0.116338,-0.18543 0.141738,-0.23623 0.007,-0.0141 -0.0026,-0.0318 0,-0.0473 0.0132,-0.0792 0.01742,-0.16163 0.04725,-0.23623 0.0058,-0.0146 0.03415,0.009 0.04725,0 0.03706,-0.0247 0.07457,-0.0547 0.09449,-0.0945 0.01408,-0.0282 0,-0.063 0,-0.0945 0,-0.0158 -0.01114,-0.0362 0,-0.0473 0.04015,-0.0402 0.112528,-0.0458 0.141738,-0.0945 0.02432,-0.0405 -0.0093,-0.0954 0,-0.14174 0.0069,-0.0345 0.03611,-0.0611 0.04725,-0.0945 0.005,-0.0149 -0.007,-0.0331 0,-0.0472 0.02539,-0.0507 0.06909,-0.0909 0.09449,-0.14174 0.007,-0.0141 -0.0094,-0.0347 0,-0.0473 0.04009,-0.0534 0.1,-0.0895 0.141738,-0.14174 0.02201,-0.0275 0.03151,-0.063 0.04725,-0.0945 0.01575,-0.0315 0.03875,-0.0603 0.04725,-0.0945 0.0076,-0.0306 -0.0076,-0.0639 0,-0.0945 0.05703,-0.22814 0.02245,0.002 0.09449,-0.14174 0.01408,-0.0282 -0.01408,-0.0663 0,-0.0945 0.01,-0.0199 0.03151,-0.0315 0.04725,-0.0472 0.0315,-0.0315 0.06978,-0.0574 0.09449,-0.0945 0.0087,-0.0131 0,-0.0315 0,-0.0472 v -0.28348 c -0.08101,0.47962 0.213049,0.0241 0.283479,0.0945 0.01114,0.0111 -0.01114,0.0361 0,0.0472 0.01114,0.0111 0.03611,-0.0111 0.04725,0 0.02227,0.0223 -0.01,0.0646 0,0.0945 0.01114,0.0334 0.02235,0.0696 0.04725,0.0945 0.02227,0.0223 0.07222,-0.0223 0.09449,0 0.01293,0.0129 -0.01282,0.16336 0,0.18899 0.01,0.0199 0.03729,0.0273 0.04725,0.0473 0.007,0.0141 -0.01114,0.0361 0,0.0472 0.01114,0.0111 0.03611,-0.0111 0.04725,0 0.01114,0.0111 -0.01114,0.0361 0,0.0473 0.01114,0.0111 0.03611,-0.0111 0.04725,0 0.0097,0.01 -0.0094,0.123 0,0.14174 0.02835,0.0567 0.113392,0.085 0.14174,0.14174 0.01409,0.0282 -0.02227,0.0722 0,0.0945 0.18439,0.18439 0.02537,-0.0109 0.141739,0.0472 0.09122,0.0456 0.02483,0.0993 0.04725,0.18898 0.01487,0.0595 0.177249,0.0916 0.188986,0.0945 0.01528,0.004 0.0402,-0.0141 0.04725,0 0.01409,0.0282 -0.01409,0.0663 0,0.0945 0.007,0.0141 0.03611,-0.0111 0.04725,0 0.0249,0.0249 0.02235,0.0696 0.04725,0.0945 0.01114,0.0111 0.03611,-0.0111 0.04725,0 0.01114,0.0111 -0.01114,0.0361 0,0.0473 0.01114,0.0111 0.03316,-0.007 0.04725,0 0.01992,0.01 0.02733,0.0373 0.04725,0.0472 0.01409,0.007 0.03611,-0.0111 0.04725,0 0.01114,0.0111 -0.01114,0.0361 0,0.0472 0.09775,0.0978 -0.0038,-0.14938 0.09449,0.0473 0.01409,0.0282 -0.02227,0.0722 0,0.0945 0.01114,0.0111 0.0315,0 0.04725,0 h 0.04725 c -0.26773,0 -0.01575,-0.0315 -0.09449,0.0473 -0.02227,0.0223 -0.07222,-0.0223 -0.09449,0 -0.09376,0.0938 0.223747,0.0149 -0.09449,0.0945 -0.03056,0.008 -0.063,0 -0.09449,0 h -0.09449 -0.519711 c -0.04725,0 -0.0959,-0.0115 -0.141739,0 -0.02161,0.005 -0.02733,0.0373 -0.04725,0.0472 -0.01409,0.007 -0.0315,0 -0.04725,0 h -0.04725 -0.425218 c -0.03804,0 -0.159331,-0.01 -0.188985,0 -0.148059,0.0731 -0.167477,0.0472 -0.377975,0.0472 -0.05883,0.005 -0.449063,-0.21289 0,0"
       id="path95"
       inkscape:connector-curvature="0"
       sodipodi:nodetypes="cssccsccscsccccccccccccccscccccccccccccccsccsccccccssccccccccccccscccscccsccccscsccscsccc" />
    <path
       style="fill:none;fill-opacity:1;stroke:#000000;stroke-width:0.79373997;stroke-linecap:butt;stroke-linejoin:miter;stroke-miterlimit:4;stroke-dasharray:none;stroke-opacity:1"
       d="m 50.955273,291.59326 c 0,0 -0.04992,0.25999 -0.02362,0.27314 0.02817,0.0141 0.06632,-0.0141 0.09449,0 0.01408,0.007 -0.007,0.0332 0,0.0472 0.01,0.0199 0.03729,0.0273 0.04725,0.0472 0.0072,0.0144 0,0.12046 0,0.14174 v 0.28348 c 0,0.0326 -0.0072,0.17462 0,0.18898 0.01,0.0199 0.03729,0.0273 0.04725,0.0472 0.007,0.0141 0,0.0315 0,0.0473 v 0.0472 0.28348 c 0,0.12599 -0.01574,-0.0157 0.04725,0.0473 0.01114,0.0111 0,0.0315 0,0.0472 0,0.0864 -0.01275,0.26702 0,0.33073 0.0044,0.0218 0.03729,0.0273 0.04725,0.0473 0.0086,0.0172 0,0.20901 0,0.23623 0,0.0335 -0.0061,0.27126 0,0.28348 0.0099,0.0199 0.03728,0.0273 0.04725,0.0472 0.0094,0.0187 -0.0097,0.13208 0,0.14174 0.01114,0.0111 0.03611,-0.0111 0.04725,0 0.02363,0.0236 -0.02363,0.11812 0,0.14174 0.01114,0.0111 0.03611,-0.0111 0.04725,0 0.01138,0.0114 -0.01138,0.17762 0,0.18899 0.01114,0.0111 0.0315,0 0.04725,0 0,0.0158 -0.01114,0.0361 0,0.0472 0.01114,0.0111 0.0315,0 0.04725,0 h 0.377971 c 0.0315,0 0.07702,0.0262 0.09449,0 0.02622,-0.0393 -0.01495,-0.0969 0,-0.14174 0.005,-0.0149 0.0315,0 0.04725,0 0.04725,0 0.09541,0.009 0.141741,0 0.190124,-0.038 0.0217,-0.0345 0.141738,-0.0945 0.01408,-0.007 0.03611,0.0111 0.04725,0 0.01114,-0.0111 -0.01114,-0.0361 0,-0.0472 0.01114,-0.0111 0.03316,0.007 0.04725,0 0.196628,-0.0983 -0.05051,0.003 0.04725,-0.0945 0.01114,-0.0111 0.03611,0.0111 0.04725,0 0.01114,-0.0111 -0.007,-0.0332 0,-0.0472 0.09831,-0.19663 -0.0033,0.0505 0.09449,-0.0473 0.01114,-0.0111 0,-0.0315 0,-0.0473 0.01574,0 0.03316,0.007 0.04725,0 0.07236,-0.0362 0.03695,-0.0842 0.09449,-0.14174 0.01114,-0.0111 0.03611,0.0111 0.04725,0 0.02228,-0.0223 -0.01408,-0.0663 0,-0.0945 0.09831,-0.19663 -0.0033,0.0505 0.0945,-0.0473 0.133033,-0.003 0.01204,-0.10652 0.04725,-0.14173 0.01114,-0.0111 0.0402,0.0141 0.04725,0 0.04226,-0.0373 -0.02114,-0.0995 0,-0.14174 0.01,-0.0199 0.03729,-0.0273 0.04725,-0.0473 0.007,-0.0141 -0.007,-0.0332 0,-0.0473 0.0099,-0.0199 0.0402,-0.0261 0.04725,-0.0472 0.01,-0.0299 -0.01408,-0.0663 0,-0.0945 0.007,-0.0141 0.03611,0.0111 0.04725,0 0.01114,-0.0111 -0.007,-0.0332 0,-0.0472 0.01,-0.0199 0.04185,-0.0256 0.04725,-0.0473 0.01146,-0.0458 0,-0.0945 0,-0.14174 0,-0.0157 -0.01114,-0.0361 0,-0.0472 0.0249,-0.0249 0.06959,-0.0224 0.09449,-0.0473 0.01114,-0.0111 0,-0.0315 0,-0.0472 0,-0.063 -0.01527,-0.12787 0,-0.18898 0.0054,-0.0216 0.03729,-0.0273 0.04725,-0.0473 0.007,-0.0141 0,-0.0315 0,-0.0472 0,-0.0315 -0.01,-0.0646 0,-0.0945 0.007,-0.0211 0.0402,-0.0261 0.04725,-0.0473 0,-0.21507 -0.02228,-0.003 0.04725,-0.14173 0.01249,-0.025 -0.0057,-0.16597 0,-0.18899 0.0085,-0.0342 0.03611,-0.0611 0.04725,-0.0945 0.01,-0.0299 -0.01408,-0.0663 0,-0.0945 0.01,-0.0199 0.03729,-0.0273 0.04725,-0.0472 0.0249,-0.0498 -0.0249,-0.0447 0,-0.0945 0.0099,-0.0199 0.03728,-0.0273 0.04725,-0.0472 0.01408,-0.0282 -0.01408,-0.0663 0,-0.0945 0.0254,-0.0508 0.0691,-0.091 0.09449,-0.14174 0.0072,-0.0144 0,-0.12047 0,-0.14174 v -0.33073 c 0,-0.0157 0,-0.0472 0,-0.0472"
       id="path101"
       inkscape:connector-curvature="0"
       sodipodi:nodetypes="cccccssccscscsccsccccccccsssccsccssccscccccccccccccccsccsccsccscccccccccccssc" />
    <path
       style="fill:none;fill-opacity:1;stroke:#000000;stroke-width:0.79373997;stroke-linecap:butt;stroke-linejoin:miter;stroke-miterlimit:4;stroke-dasharray:none;stroke-opacity:1"
       d="m 55.845279,291.1577 c -0.369729,-0.055 -0.03452,0.17626 -0.09449,0.23623 -0.04015,0.0402 -0.04785,0.0791 -0.088,0.1193 -4.5e-5,4e-5 -0.05367,0.11672 -0.05374,0.11694 -0.007,0.0211 -0.03729,0.0273 -0.04725,0.0472 -0.007,0.0141 0.01114,0.0361 0,0.0473 -0.01114,0.0111 -0.03611,-0.0111 -0.04725,0 -0.01114,0.0111 0.007,0.0332 0,0.0472 -0.01992,0.0399 -0.08369,0.0513 -0.09449,0.0945 0.02067,0.33923 0.03341,0.0277 -0.04725,0.18898 0.08386,0.0817 -0.06439,0.0645 -0.09449,0.0946 -0.0249,0.0249 -0.02771,0.0652 -0.04725,0.0945 -0.01236,0.0185 -0.0315,0.0315 -0.04725,0.0472 -0.01574,0.0472 -0.02498,0.0972 -0.04725,0.14173 -0.01992,0.0399 -0.08369,0.0513 -0.09449,0.0945 -0.01146,0.0458 0,0.0945 0,0.14174 0,0.0157 0.0087,0.0341 0,0.0472 -0.02471,0.0371 -0.06299,0.063 -0.09449,0.0945 -0.01574,0.0472 -0.02498,0.0972 -0.04725,0.14174 -0.01,0.0199 -0.03898,0.0266 -0.04725,0.0472 -0.0241,0.0603 -0.03451,0.12531 -0.04725,0.18899 -0.0031,0.0154 0.01114,0.0361 0,0.0472 -0.0249,0.0249 -0.06959,0.0223 -0.0945,0.0472 -0.01114,0.0111 0.0038,0.032 0,0.0473 -0.02416,0.0966 -0.07033,0.18685 -0.09449,0.28348 -0.0038,0.0153 0.007,0.0332 0,0.0472 -0.0254,0.0508 -0.06042,0.0963 -0.09449,0.14174 -0.01336,0.0178 -0.04185,0.0256 -0.04725,0.0472 -0.01146,0.0458 0.01146,0.0959 0,0.14174 -0.0054,0.0216 -0.04185,0.0256 -0.04725,0.0472 -0.01146,0.0458 0.02114,0.0995 0,0.14174 -0.01574,0.0315 -0.06959,0.0223 -0.0945,0.0472 -0.01114,0.0111 0.005,0.0323 0,0.0473 -0.01114,0.0334 -0.03871,0.0603 -0.04725,0.0945 -0.0076,0.0306 0,0.063 0,0.0945 0,0.0157 0.0094,0.0346 0,0.0472 -0.04725,0.0472 -0.09449,0.0945 -0.141738,0.14174 0,0.0315 0.01408,0.0663 0,0.0945 -0.007,0.0141 -0.03611,-0.0111 -0.04725,0 -0.01114,0.0111 0.007,0.0332 0,0.0473 -0.01992,0.0398 -0.08041,0.0522 -0.0945,0.0945 -0.0099,0.0299 0.01,0.0646 0,0.0945 -0.007,0.0211 -0.03728,0.0273 -0.04725,0.0473 -0.007,0.0141 0,0.063 0,0.0472 v -0.0945"
       id="path103"
       inkscape:connector-curvature="0"
       sodipodi:nodetypes="ccccccsccccccccscccccccccsccscccccscccsccccsc" />
    <path
       style="fill:none;fill-opacity:1;stroke:#000000;stroke-width:0.79373997;stroke-linecap:butt;stroke-linejoin:miter;stroke-miterlimit:4;stroke-dasharray:none;stroke-opacity:1"
       d="m 53.46474,290.95333 c 0.188955,0.31504 0.344614,0.60069 0.537927,0.91307 0.05883,0.095 0.108708,0.0142 0.141741,0.0472 0.01114,0.0111 -0.007,0.0332 0,0.0472 0.0099,0.0199 0.03728,0.0273 0.04725,0.0473 0.01408,0.0282 -0.02228,0.0722 0,0.0945 0.0249,0.0249 0.06519,0.0277 0.09449,0.0473 0.0936,-0.005 0.02236,0.0696 0.04725,0.0945 0.01114,0.0111 0.03611,-0.0111 0.04725,0 0.0249,0.0249 0.02772,0.0652 0.04725,0.0945 0.01236,0.0185 0.03728,0.0273 0.04725,0.0473 0.01408,0.0282 -0.01408,0.0663 0,0.0945 0.0099,0.0199 0.03728,0.0273 0.04725,0.0473 0.01408,0.0282 -0.01408,0.0663 0,0.0945 0.0099,0.0199 0.03489,0.0287 0.04725,0.0473 0.01574,0.0315 0.0315,0.063 0.04725,0.0945 0,0.0158 -0.007,0.0332 0,0.0473 0.0099,0.0199 0.03729,0.0273 0.04725,0.0472 0.007,0.0141 -0.007,0.0332 0,0.0472 0.01,0.0199 0.03729,0.0273 0.04725,0.0473 0.007,0.0141 -0.0087,0.0341 0,0.0472 0.02471,0.0371 0.07457,0.0547 0.0945,0.0945 0.01889,0.0378 -0.01889,0.10395 0,0.14174 0.0099,0.0199 0.0402,0.0261 0.04725,0.0472 0.0099,0.0299 -0.0076,0.0639 0,0.0945 0.0085,0.0342 0.03871,0.0603 0.04725,0.0945 0.0076,0.0305 -0.01,0.0646 0,0.0945 0.007,0.0211 0.0402,0.0261 0.04725,0.0473 0.0099,0.0299 -0.0062,0.0636 0,0.0945 0.0098,0.0488 0.03517,0.0934 0.04725,0.14174 0.0038,0.0153 -0.007,0.0332 0,0.0472 0.01,0.0199 0.03729,0.0273 0.04725,0.0472 0.08399,0.16799 -0.251981,-0.18899 0,0.18899 0.01746,0.0262 0.07222,-0.0223 0.09449,0 0.02228,0.0223 -0.01,0.0646 0,0.0945 0.007,0.0211 0.03729,0.0273 0.04725,0.0473 0.007,0.0141 -0.01114,0.0361 0,0.0472 0.01114,0.0111 0.03611,-0.0111 0.04725,0 0.01114,0.0111 -0.01114,0.0361 0,0.0473 0.01114,0.0111 0.04227,-0.0149 0.04725,0 0,0.44097 -0.04725,0.0472 0.04725,0.14174 0.02363,0.0236 -0.02363,0.11811 0,0.14174 0.01114,0.0111 0.03611,-0.0111 0.04725,0 0.01114,0.0111 -0.01114,0.0361 0,0.0472 0.02228,0.0223 0.07222,-0.0223 0.09449,0 0,0.12599 -0.01574,-0.0157 0.04725,0.0473 0.02363,0.0236 -0.02363,0.11812 0,0.14174 0.02228,0.0223 0.07222,-0.0223 0.09449,0 0.01114,0.0111 -0.01114,0.0361 0,0.0473 0.01114,0.0111 0.03611,-0.0111 0.04725,0 0.01114,0.0111 -0.01114,0.0361 0,0.0472 0.01114,0.0111 0.0315,0 0.04725,0 h 0.04725 0.04725 c 0.01574,0 0.03611,-0.0111 0.04725,0 0.01114,0.0111 -0.05839,-0.0112 -0.04725,0 0.02228,0.0223 0.07222,-0.0223 0.09449,0 0.01114,0.0111 0.04725,0.0788 0.04725,0.0945 v 0.0473"
       id="path105"
       inkscape:connector-curvature="0"
       sodipodi:nodetypes="ccccccccccccccccccccccccccccccccccccssccccsccccccssscssccsc" />
    <path
       style="fill:none;fill-opacity:1;stroke:#000000;stroke-width:0.79373997;stroke-linecap:butt;stroke-linejoin:miter;stroke-miterlimit:4;stroke-dasharray:none;stroke-opacity:1"
       d="m 59.710036,293.95469 c 0.063,0 0.127872,-0.0153 0.188987,0 0.01527,0.004 -0.01114,0.0361 0,0.0473 0.01463,0.0146 0.221602,-0.0146 0.23623,0 0.01114,0.0111 -0.01114,0.0361 0,0.0472 0.01114,0.0111 0.03611,-0.0111 0.04725,0 0.01114,0.0111 -0.01114,0.0361 0,0.0472 0.02228,0.0223 0.07222,-0.0223 0.09449,0 0.01114,0.0111 -0.01114,0.0361 0,0.0472 0.02363,0.0236 0.118116,-0.0236 0.141738,0 0.02228,0.0223 -0.02228,0.0722 0,0.0945 0.01114,0.0111 0.03316,-0.007 0.04725,0 0.01992,0.01 0.02733,0.0373 0.04725,0.0473 0.02564,0.0128 0.176057,-0.0129 0.188984,0 0.01114,0.0111 -0.007,0.0332 0,0.0473 0.0507,0.10139 0.0516,0.002 0.141741,0.0472 0.02817,0.0141 -0.02228,0.0722 0,0.0945 0.01114,0.0111 0.03611,-0.0111 0.04725,0 0.01114,0.0111 -0.01114,0.0361 0,0.0472 0.01114,0.0111 0.03611,-0.0111 0.04725,0 0.0021,0.002 0,0.21396 0,0.23623 0,0.0157 0.01408,0.0402 0,0.0472 -0.02817,0.0141 -0.06461,-0.01 -0.09449,0 -0.147472,0.0492 0.01574,0.0315 -0.04725,0.0945 -0.01114,0.0111 -0.03316,-0.007 -0.04725,0 -0.01992,0.01 -0.02871,0.0349 -0.04725,0.0473 -0.0293,0.0195 -0.06959,0.0224 -0.09449,0.0473 -0.01114,0.0111 0.01114,0.0361 0,0.0472 -0.0097,0.01 -0.123006,-0.009 -0.141741,0 -0.196628,0.0983 0.05051,-0.003 -0.04725,0.0945 -0.01114,0.0111 -0.03611,-0.0111 -0.04725,0 -0.01114,0.0111 0.01114,0.0361 0,0.0472 -0.01114,0.0111 -0.0315,0 -0.04725,0 -0.0296,0 -0.280936,0.003 -0.283479,0 -0.02228,-0.0223 0.01408,-0.0663 0,-0.0945 -0.007,-0.0141 -0.0315,0 -0.04725,0 -0.04725,0 -0.09449,0 -0.141738,0 -0.01574,0 -0.03611,0.0111 -0.04725,0 -0.01114,-0.0111 0.01114,-0.0361 0,-0.0472 -0.01114,-0.0111 -0.03611,0.0111 -0.04725,0 -0.01114,-0.0111 0.01114,-0.0361 0,-0.0472 -0.01114,-0.0111 -0.03611,0.0111 -0.04725,0 -0.02228,-0.0223 0.02228,-0.0722 0,-0.0945 -0.01463,-0.0146 -0.221602,0.0146 -0.236233,0 -0.01114,-0.0111 0.01114,-0.0361 0,-0.0472 -0.01114,-0.0111 -0.03611,0.0111 -0.04725,0 -0.01114,-0.0111 0,-0.0315 0,-0.0473 0,-0.17107 -0.01889,-0.0189 0.0945,-0.18899 0.0042,-0.006 0,-0.21168 0,-0.23623 0,-0.0157 -0.01114,-0.0361 0,-0.0472 0.01114,-0.0111 0.03316,0.007 0.04725,0 0.196628,-0.0983 -0.05051,0.003 0.04725,-0.0945 0.01114,-0.0111 0.03611,0.0111 0.04725,0 0.01114,-0.0111 -0.01114,-0.0361 0,-0.0472 0.01114,-0.0111 0.03611,0.0111 0.04725,0 0.01114,-0.0111 0,-0.0315 0,-0.0473 0,-0.063 0,-0.12599 0,-0.18899 z"
       id="path115"
       inkscape:connector-curvature="0" />
    <path
       style="fill:none;stroke:#000000;stroke-width:0.79374;stroke-linecap:butt;stroke-linejoin:miter;stroke-opacity:1;fill-opacity:1;stroke-miterlimit:4;stroke-dasharray:none"
       d="m 65.152825,291.65851 c -0.204264,-0.0511 -0.124051,-0.0472 -0.236233,-0.0472 -0.01574,0 -0.03611,-0.0111 -0.04725,0 -0.0249,0.0249 -0.02234,0.0696 -0.04725,0.0945 -0.0249,0.0249 -0.06959,0.0224 -0.09449,0.0473 -0.01114,0.0111 0.007,0.0332 0,0.0472 -0.01,0.0199 -0.0315,0.0315 -0.04725,0.0473 -0.01574,0.0157 -0.02733,0.0373 -0.04725,0.0472 -0.01408,0.007 -0.03611,-0.0111 -0.04725,0 -0.0249,0.0249 -0.02233,0.0696 -0.04725,0.0945 -0.01114,0.0111 -0.03316,-0.007 -0.04725,0 -0.01992,0.01 -0.02733,0.0373 -0.04725,0.0472 -0.01408,0.007 -0.03611,-0.0111 -0.04725,0 -0.01114,0.0111 0.01114,0.0361 0,0.0473 -0.01114,0.0111 -0.03316,-0.007 -0.04725,0 -0.01992,0.01 -0.02733,0.0373 -0.04725,0.0473 -0.01408,0.007 -0.03149,0 -0.04725,0 -0.0315,0.0157 -0.06519,0.0277 -0.09449,0.0472 -0.04077,0.0272 -0.104835,0.10484 -0.141738,0.14174 -0.01574,0.0158 -0.02733,0.0373 -0.04725,0.0473 -0.01408,0.007 -0.03316,-0.007 -0.04725,0 -0.196628,0.0983 0.05051,-0.003 -0.04725,0.0945 -0.01114,0.0111 -0.03611,-0.0111 -0.04725,0 -0.02228,0.0223 0.02228,0.0722 0,0.0945 -0.09775,0.0978 0.0038,-0.14939 -0.09449,0.0472 -0.01408,0.0282 0.02228,0.0722 0,0.0945 -0.01114,0.0111 -0.03611,-0.0111 -0.04725,0 -0.01114,0.0111 0,0.0315 0,0.0473 v 0.28348 0.0473 c 0,0.0157 0.01114,0.0361 0,0.0472 -0.01114,0.0111 -0.03611,-0.0111 -0.04725,0 -0.01114,0.0111 0,0.0315 0,0.0472 v 0.23623 0.0473 c 0,0.0157 -0.01408,0.0402 0,0.0472 0.02817,0.0141 0.06461,-0.01 0.0945,0 0.09493,0.0317 0.01632,0.11081 0.04725,0.14174 0.01114,0.0111 0.03316,-0.007 0.04725,0 0.01992,0.01 0.02733,0.0373 0.04725,0.0473 0.01408,0.007 0.03611,-0.0111 0.04725,0 0.02228,0.0223 -0.01408,0.0663 0,0.0945 0.01,0.0199 0.03729,0.0273 0.04725,0.0472 0.01408,0.0282 -0.02228,0.0722 0,0.0945 0.03094,0.0309 0.110097,-0.0477 0.141741,0.0473 0,0.26773 -0.0315,0.0158 0.04725,0.0945 0.02363,0.0236 -0.02363,0.11812 0,0.14174 0.02694,-0.10594 0.02068,0.0207 0.04725,0.0473 0.02228,0.0223 0.07222,-0.0223 0.09449,0 0,0.12599 -0.01574,-0.0158 0.04725,0.0472 0.02228,0.0223 -0.02228,0.0722 0,0.0945 0.01114,0.0111 0.03316,-0.007 0.04725,0 0.196628,0.0983 -0.05051,-0.003 0.04725,0.0945 0.01114,0.0111 0.03611,-0.0111 0.04725,0 0.01114,0.0111 -0.01114,0.0361 0,0.0473 0.0097,0.01 0.123006,-0.009 0.141738,0 0.01992,0.01 0.02733,0.0373 0.04725,0.0472 0.01709,0.009 0.203369,0 0.23623,0 h 0.614204 c 0.02455,0 0.229952,0.004 0.236233,0 0.0315,-0.0315 0.06299,-0.063 0.09449,-0.0945 0.01574,0 0.03316,0.007 0.04725,0 0.03984,-0.0199 0.05465,-0.0746 0.0945,-0.0945 0.01408,-0.007 0.03316,0.007 0.04725,0 0.01992,-0.01 0.02733,-0.0373 0.04725,-0.0473 0.02817,-0.0141 0.07222,0.0223 0.09449,0 0.01114,-0.0111 -0.01114,-0.0361 0,-0.0473 0.01114,-0.0111 0.03611,0.0111 0.04725,0 0.01114,-0.0111 -0.01114,-0.0361 0,-0.0472 0.02228,-0.0223 0.07222,0.0223 0.09449,0 -0.05413,-0.098 -0.05195,-0.11088 0,0"
       id="path117"
       inkscape:connector-curvature="0"
       sodipodi:nodetypes="csccccccccccscccccccccccccsscsssscsccccccccccccccccccscccssccccccccsccc" />
    <path
       style="fill:none;stroke:#000000;stroke-width:0.79374;stroke-linecap:butt;stroke-linejoin:miter;stroke-opacity:1;fill-opacity:1;stroke-miterlimit:4;stroke-dasharray:none"
       d="m 68.975653,291.6436 c 0.01352,0.22272 -0.176418,-0.13528 -0.232099,-0.0796 -0.05755,0.0575 -0.02215,0.10556 -0.09449,0.14174 -0.01408,0.007 -0.03611,-0.0111 -0.04725,0 -0.01114,0.0111 0.01114,0.0361 0,0.0473 -0.01114,0.0111 -0.03316,-0.007 -0.04725,0 -0.01992,0.01 -0.02733,0.0373 -0.04725,0.0472 -0.01408,0.007 -0.03611,-0.0111 -0.04725,0 -0.0249,0.0249 -0.02236,0.0696 -0.04725,0.0945 -0.01114,0.0111 -0.03611,-0.0111 -0.04725,0 -0.01114,0.0111 0.01114,0.0361 0,0.0472 -0.01114,0.0111 -0.0315,0 -0.04725,0 0,0.0158 0.007,0.0332 0,0.0473 -0.09831,0.19663 0.0033,-0.0505 -0.09449,0.0472 -0.01114,0.0111 0.01114,0.0361 0,0.0473 -0.01114,0.0111 -0.03611,-0.0111 -0.04725,0 -0.01114,0.0111 0.01114,0.0361 0,0.0473 -0.01114,0.0111 -0.03611,-0.0111 -0.04725,0 -0.01114,0.0111 0.01114,0.0361 0,0.0472 -0.01114,0.0111 -0.03611,-0.0111 -0.04725,0 -0.01114,0.0111 0,0.0315 0,0.0472 0,0.0315 0.01408,0.0663 0,0.0945 -0.007,0.0141 -0.03611,-0.0111 -0.04725,0 -0.02228,0.0223 0.01408,0.0663 0,0.0945 -0.0099,0.0199 -0.03729,0.0273 -0.04725,0.0472 -0.007,0.0141 0.01114,0.0361 0,0.0473 -0.01114,0.0111 -0.03611,-0.0111 -0.04725,0 -0.02228,0.0223 0.01408,0.0663 0,0.0945 -0.0099,0.0199 -0.03728,0.0273 -0.04725,0.0473 -0.007,0.0141 0.007,0.0332 0,0.0472 -0.0099,0.0199 -0.0402,0.0261 -0.04725,0.0473 -0.0099,0.0299 0.0076,0.0639 0,0.0945 -0.0085,0.0342 -0.03611,0.0611 -0.04725,0.0945 -0.0089,0.0267 0,0.11069 0,0.14174 v 0.33072 0.0473 c 0,0.0157 -0.01408,0.0402 0,0.0472 0.251981,0.12599 -0.0315,-0.15748 0.09449,0.0945 0.007,0.0141 0.03316,-0.007 0.04725,0 0.01992,0.01 0.03729,0.0273 0.04725,0.0472 0.02114,0.0423 -0.02114,0.0995 0,0.14174 0.007,0.0141 0.03611,-0.0111 0.04725,0 0.01114,0.0111 -0.01114,0.0361 0,0.0472 0.01114,0.0111 0.03611,-0.0111 0.04725,0 0.02228,0.0223 -0.02228,0.0722 0,0.0945 0.01114,0.0111 0.03611,-0.0111 0.04725,0 0.01114,0.0111 -0.01114,0.0361 0,0.0473 0.01532,0.0153 0.206245,-0.015 0.236233,0 0.08698,0.0435 0.0075,0.0983 0.09449,0.14174 0.01437,0.007 0.120461,0 0.141738,0 h 0.330725 0.04725 c 0.01574,0 0.03611,-0.0111 0.04725,0 0.01114,0.0111 -0.01114,0.0361 0,0.0472 0.01114,0.0111 0.0315,0 0.04725,0 h 0.04725 0.425217 0.04725 c 0.01574,0 0.03611,0.0111 0.04725,0 0.0249,-0.0249 0.02236,-0.0696 0.04725,-0.0945 0.02228,-0.0223 0.07222,0.0223 0.09449,0 0.01114,-0.0111 -0.01114,-0.0361 0,-0.0473 0.01114,-0.0111 0.03611,0.0111 0.04725,0 0.01114,-0.0111 -0.01114,-0.0361 0,-0.0472 0.01114,-0.0111 0.03611,0.0111 0.04725,0 0.01114,-0.0111 -0.01114,-0.0361 0,-0.0473 0.01114,-0.0111 0.04227,0.0149 0.04725,0 0.01495,-0.0448 -0.02619,-0.10243 0,-0.14174 0.01746,-0.0262 0.06461,0.01 0.0945,0 0.147471,-0.0491 -0.01574,-0.0315 0.04725,-0.0945 0.01114,-0.0111 0.03611,0.0111 0.04725,0 0.02363,-0.0236 -0.02363,-0.11812 0,-0.14174 0.01114,-0.0111 0.03611,0.0111 0.04725,0 0.02228,-0.0223 -0.02228,-0.0722 0,-0.0945 0.0249,-0.0249 0.06959,-0.0224 0.09449,-0.0473 0.01114,-0.0111 0,-0.0315 0,-0.0473 v -0.28347 -0.23624 c 0,-0.0157 0.01114,-0.0361 0,-0.0472 -0.0249,-0.0249 -0.06959,-0.0224 -0.09449,-0.0473 -0.02363,-0.0236 0.02363,-0.11811 0,-0.14174 -0.01114,-0.0111 -0.03611,0.0111 -0.04725,0 -0.02363,-0.0236 0.02363,-0.11811 0,-0.14174 -0.02228,-0.0223 -0.07222,0.0223 -0.09449,0 -0.01114,-0.0111 0.01114,-0.0361 0,-0.0472 -0.01114,-0.0111 -0.03611,0.0111 -0.04725,0 -0.02228,-0.0223 0.02228,-0.0722 0,-0.0945 -0.02228,-0.0223 -0.07222,0.0223 -0.0945,0 -0.01114,-0.0111 0.007,-0.0332 0,-0.0472 -0.09831,-0.19663 0.0033,0.0505 -0.09449,-0.0473 -0.01114,-0.0111 0.01114,-0.0361 0,-0.0472 -0.09775,-0.0978 0.0038,0.14939 -0.09449,-0.0472 -0.007,-0.0141 0.01114,-0.0361 0,-0.0473 -0.02363,-0.0236 -0.118117,0.0236 -0.141741,0 -0.01114,-0.0111 0,-0.0315 0,-0.0473 -0.01574,0 -0.03611,0.0111 -0.04725,0 -0.02228,-0.0223 0.02228,-0.0722 0,-0.0945 -0.01114,-0.0111 -0.03611,0.0111 -0.04725,0 -0.01114,-0.0111 0.01114,-0.0361 0,-0.0472 -0.01138,-0.0114 -0.177618,0.0114 -0.188987,0 -0.01114,-0.0111 0.01114,-0.0361 0,-0.0472 -0.01114,-0.0111 -0.03149,0 -0.04725,0 0,-0.0158 0.01114,-0.0361 0,-0.0473 -0.02228,-0.0223 -0.07222,0.0223 -0.09449,0 -0.01114,-0.0111 0.01114,-0.0361 0,-0.0472 -0.01103,-0.011 -0.13859,0.0126 -0.141738,0 -0.01527,-0.0611 -0.0155,-0.10635 -0.0155,-0.16935 -0.0022,0.0426 0.0052,0.0455 0.01138,0.06 z"
       id="path119"
       inkscape:connector-curvature="0"
       sodipodi:nodetypes="cccscccccssccccscssssccccccccccccscscccccssccscccscssssccsccccsssccccccccccscsccccccscsccccccccccsccsccccccc" />
    <path
       style="fill:none;fill-opacity:1;stroke:#000000;stroke-width:0.79373997;stroke-linecap:butt;stroke-linejoin:miter;stroke-miterlimit:4;stroke-dasharray:none;stroke-opacity:1"
       d="m 72.547127,295.56667 0.02339,-2.11279 c 3.64e-4,-0.0329 0.0085,-0.21915 0,-0.23623 -0.0099,-0.0199 -0.03728,-0.0273 -0.04725,-0.0473 -0.0062,-0.0124 0,-0.16428 0,-0.18899 v -0.42521 -0.33073 c 0,-0.0157 -0.01114,-0.0361 0,-0.0472 0.0249,-0.0249 0.06959,-0.0223 0.09449,-0.0472 0.0016,-0.002 0,-0.13028 0,-0.14174 0,-0.0247 -0.0062,-0.17656 0,-0.18899 0.0099,-0.0199 0.03728,-0.0273 0.04725,-0.0472 0.01408,-0.0282 -0.01408,-0.0663 0,-0.0945 0.0099,-0.0199 0.03728,-0.0273 0.04725,-0.0472 0.007,-0.0141 0,-0.0315 0,-0.0472 v -0.0473 -0.28347 -0.0472 c 0,-0.0158 -0.01114,-0.0361 0,-0.0473 0.01114,-0.0111 0.0315,0 0.04725,0 0.01574,0 0.03611,-0.0111 0.04725,0 0.0249,0.0249 0.03611,0.0611 0.04725,0.0945 0.0099,0.0299 -0.02228,0.0722 0,0.0945 0.01114,0.0111 0.0315,0 0.04725,0 0,0.0158 -0.01114,0.0361 0,0.0472 0.01114,0.0111 0.03611,-0.0111 0.04725,0 0.01114,0.0111 -0.01114,0.0361 0,0.0473 0.01114,0.0111 0.03611,-0.0111 0.04725,0 0.01114,0.0111 -0.007,0.0332 0,0.0473 0.0099,0.0199 0.03728,0.0273 0.04725,0.0472 0.01408,0.0282 -0.02228,0.0722 0,0.0945 0.01114,0.0111 0.03611,-0.0111 0.04725,0 0.02228,0.0223 -0.02228,0.0722 0,0.0945 0.01114,0.0111 0.03611,-0.0111 0.04725,0 0.02228,0.0223 -0.02228,0.0722 0,0.0945 0.01114,0.0111 0.03611,-0.0111 0.04725,0 0.02228,0.0223 -0.01408,0.0663 0,0.0945 0.0099,0.0199 0.03729,0.0273 0.04725,0.0472 0.01408,0.0282 -0.02228,0.0722 0,0.0945 0.02228,0.0223 0.07222,-0.0223 0.0945,0 v 0.0473 c 0,0.0158 -0.01114,0.0361 0,0.0473 0.01114,0.0111 0.03611,-0.0111 0.04725,0 0.02228,0.0223 -0.02228,0.0722 0,0.0945 0.01114,0.0111 0.03611,-0.0111 0.04725,0 0.02228,0.0223 -0.02228,0.0722 0,0.0945 0.02228,0.0223 0.07222,-0.0223 0.09449,0 0.01114,0.0111 -0.01114,0.0361 0,0.0473 0.01114,0.0111 0.03611,-0.0111 0.04725,0 0.01463,0.0146 -0.01463,0.2216 0,0.23623 0.01114,0.0111 0.03611,-0.0111 0.04725,0 0.01114,0.0111 -0.01114,0.0361 0,0.0473 0.02228,0.0223 0.07222,-0.0223 0.09449,0 0.02228,0.0223 -0.02228,0.0722 0,0.0945 0.0019,0.002 0.171636,0 0.188984,0 0.01574,0 0.04021,0.0141 0.04725,0 0.01408,-0.0282 0,-0.063 0,-0.0945 0,-0.0158 -0.01114,-0.0361 0,-0.0473 0.0097,-0.01 0.123006,0.009 0.141738,0 0.09556,-0.0478 0.01516,-0.10964 0.04725,-0.14174 0.02228,-0.0223 0.06632,0.0141 0.09449,0 0.07236,-0.0362 0.03695,-0.0842 0.0945,-0.14174 0.01114,-0.0111 0.03611,0.0111 0.04725,0 0.01114,-0.0111 0,-0.0315 0,-0.0472 0.01574,0 0.03611,0.0111 0.04725,0 0.01114,-0.0111 -0.01114,-0.0361 0,-0.0473 0.02228,-0.0223 0.07222,0.0223 0.09449,0 0.02228,-0.0223 -0.02228,-0.0722 0,-0.0945 0.01114,-0.0111 0.03611,0.0111 0.04725,0 0.01114,-0.0111 -0.01114,-0.0361 0,-0.0473 0.01114,-0.0111 0.03611,0.0111 0.04725,0 0.01114,-0.0111 -0.01114,-0.0361 0,-0.0473 0.02228,-0.0223 0.07222,0.0223 0.09449,0 0.02228,-0.0223 -0.01408,-0.0663 0,-0.0945 0.09831,-0.19663 -0.0033,0.0505 0.09449,-0.0472 0.02228,-0.0223 -0.02228,-0.0722 0,-0.0945 0.02228,-0.0223 0.07222,0.0223 0.09449,0 0.02228,-0.0223 -0.02228,-0.0722 0,-0.0945 0.01114,-0.0111 0.03611,0.0111 0.04725,0 0.02228,-0.0223 -0.01408,-0.0663 0,-0.0945 0.01992,-0.0398 0.07457,-0.0546 0.09449,-0.0945 0.02972,-0.0594 -0.06786,-0.0945 0.04725,-0.0945 0.01574,0 0.03611,-0.0111 0.04725,0 0.02363,0.0236 -0.02363,0.11812 0,0.14174 0.01114,0.0111 0.03611,-0.0111 0.04725,0 0.01114,0.0111 0,0.0315 0,0.0472 v 0.0472 0.28348 c 0,0.0158 -0.01114,0.0361 0,0.0473 0.01114,0.0111 0.03611,-0.0111 0.04725,0 0.01114,0.0111 -0.007,0.0332 0,0.0472 0.0099,0.0199 0.03729,0.0273 0.04725,0.0473 0.0025,0.12695 0.01889,0.25421 0.04725,0.37798 0,0.0126 -0.0078,0.13784 0,0.14174 0.02817,0.0141 0.07222,-0.0223 0.09449,0 0.0019,0.002 0,0.20988 0,0.23623 0,0.0329 -0.0085,0.21915 0,0.23624 0.0099,0.0199 0.03729,0.0273 0.04725,0.0472 0.01484,0.0297 -0.01484,0.15929 0,0.18899 0.01,0.0199 0.03729,0.0273 0.04725,0.0472 0.0094,0.0187 -0.0097,0.13209 0,0.14174 0.02228,0.0223 0.07222,-0.0223 0.09449,0 0.01463,0.0146 -0.01463,0.22161 0,0.23624 0.01114,0.0111 0.03611,-0.0111 0.04725,0 0.01114,0.0111 -0.01114,0.0361 0,0.0472 0.01114,0.0111 0.03611,-0.0111 0.04725,0 0.01138,0.0114 -0.01138,0.17762 0,0.18899 0.01114,0.0111 0.03611,-0.0111 0.04725,0 0.01114,0.0111 -0.01114,0.0361 0,0.0472 0.01114,0.0111 0.03611,-0.0111 0.04725,0 0.0021,0.002 0,0.21396 0,0.23624 0,0.0157 -0.01114,0.0361 0,0.0472 0.01114,0.0111 0.03611,-0.0111 0.04725,0 0.02228,0.0223 -0.02228,0.0722 0,0.0945 0.063,0.063 0.04725,-0.0788 0.04725,0.0472 0,0.0115 -0.0016,0.14022 0,0.14174 0.01114,0.0111 0.03611,-0.0111 0.04725,0 0.01138,0.0114 -0.01138,0.17762 0,0.18899 0.01114,0.0111 0.04851,0.0116 0.05965,0.0227 0.04661,0.0466 0.233858,0.60803 0.281108,0.70253"
       id="path121"
       inkscape:connector-curvature="0"
       sodipodi:nodetypes="csccscsccsccccsccscsccccsscsccccccccccscsccccsccccscccssscccccscscccscsccccscccccsccsscscscccccscccccccssccsscssccsccccc" />
    <path
       style="fill:none;fill-opacity:1;stroke:#000000;stroke-width:0.79373997;stroke-linecap:butt;stroke-linejoin:miter;stroke-miterlimit:4;stroke-dasharray:none;stroke-opacity:1"
       d="m 17.2959,291.11133 0.149563,-0.0174 c 0.171104,0.0235 0.329104,0.28599 0.264995,0.43635 -0.01992,0.01 -0.05072,0.163 -0.07064,0.173 -0.05964,0.025 -0.118514,0.0643 -0.18899,0.0945 -0.01438,0.007 -0.202313,-0.0205 -0.223591,-0.0205 h -0.330725 c -0.09765,-0.0159 -0.192719,-0.20494 -0.201637,-0.31021 -0.0042,-0.004 -0.0024,-0.14053 0,-0.14174 0.168485,-0.0901 0.206635,-0.16422 0.234805,-0.17832 0.306254,-0.10938 -0.0548,-0.0532 0.366218,-0.0356 z"
       id="path31-3"
       inkscape:connector-curvature="0"
       sodipodi:nodetypes="cccccscccccc" />
    <path
       style="fill:none;fill-opacity:1;stroke:#000000;stroke-width:0.79373997;stroke-linecap:butt;stroke-linejoin:miter;stroke-miterlimit:4;stroke-dasharray:none;stroke-opacity:1"
       d="m 17.356341,292.78972 -0.0029,0.17531 c -2.64e-4,0.0158 0.0076,0.0829 0.0029,0.15546 0.01371,0.11744 0.0487,0.17919 0.04725,0.28353 0.03833,0.11713 0.0234,0.22643 0.0379,0.26174 0.0162,0.15868 0.03029,0.29267 0.03029,0.44696 0.02843,0.17081 0.0633,0.24047 0.06706,0.36799 l -0.0124,1.16875"
       id="path35-6"
       inkscape:connector-curvature="0"
       sodipodi:nodetypes="cscccccc" />
    <path
       style="fill:none;fill-opacity:1;stroke:#000000;stroke-width:0.79373997;stroke-linecap:butt;stroke-linejoin:miter;stroke-miterlimit:4;stroke-dasharray:none;stroke-opacity:1"
       d="m 31.786082,290.44916 v 2.74029 0.56696 c -0.01928,0.16708 -0.03938,0.48774 0.02421,0.59714 l 0.07028,0.3006 c 0.09803,0.16265 0.348285,0.0831 0.504664,0.0111 0.293618,-0.037 0.620658,-0.17974 0.943627,-0.20836 0.267676,-0.0237 0.821373,-0.01 1.196907,-0.20839"
       id="path39-3"
       inkscape:connector-curvature="0"
       sodipodi:nodetypes="ccccccsc" />
    <path
       style="fill:none;fill-opacity:1;stroke:#000000;stroke-width:0.79373997;stroke-linecap:butt;stroke-linejoin:miter;stroke-miterlimit:4;stroke-dasharray:none;stroke-opacity:1"
       d="m 22.070427,296.14341 c 0,0 0.09402,-0.21411 0.126975,-0.31841 0.08605,-0.27235 0.119017,-0.51422 0.149556,-0.66392 0.01895,-0.31132 0.07484,-0.63024 0.102138,-0.8431 l 0.0041,-0.6644 c 0.02107,-0.50637 -0.0189,-0.76994 0.02658,-1.02993 0.04144,-0.47648 -0.194685,-0.82106 -0.01949,-1.25446 0.04555,-0.34875 0.186362,-0.34123 0.465374,-0.17244 0.08786,0.0346 0.240382,0.0926 0.345491,0.13584 0.247722,0.15641 0.504745,0.2763 0.56695,0.378 0.08472,0.10164 0.157798,0.31324 0.256307,0.46664 0.226222,0.8096 0.08783,1.04118 -0.526795,1.43934 -0.35145,0.10447 -1.03297,0.42404 -1.114448,0.46221"
       id="path59-7"
       inkscape:connector-curvature="0"
       sodipodi:nodetypes="csccccccccccc" />
    <path
       style="fill:none;fill-opacity:1;stroke:#000000;stroke-width:0.79373997;stroke-linecap:butt;stroke-linejoin:miter;stroke-miterlimit:4;stroke-dasharray:none;stroke-opacity:1"
       d="m 4.1814779,295.90737 c 0,0 0.09402,-0.21411 0.126975,-0.31841 0.08605,-0.27235 0.119017,-0.51422 0.149556,-0.66392 0.01895,-0.31132 0.07484,-0.63024 0.102138,-0.8431 l 0.0041,-0.6644 c 0.02107,-0.50637 -0.0189,-0.76994 0.02658,-1.02993 0.04144,-0.47648 -0.194685,-0.82106 -0.01949,-1.25446 0.04555,-0.34875 0.186362,-0.34123 0.4653741,-0.17244 0.08786,0.0346 0.2403819,0.0926 0.3454909,0.13584 0.247722,0.15641 0.5047451,0.2763 0.56695,0.378 0.08472,0.10164 0.1577981,0.31324 0.256307,0.46664 0.2262221,0.8096 0.08783,1.04118 -0.526795,1.43934 -0.35145,0.10447 -1.03297,0.42404 -1.114448,0.46221"
       id="path59-5"
       inkscape:connector-curvature="0"
       sodipodi:nodetypes="csccccccccccc" />
  </g>
</svg>
